<svg xmlns="http://www.w3.org/2000/svg" viewBox="0 0 500 500"><g id="freepik--background-simple--inject-42"><path d="M394.49,104.8l-2-3.21c-16.61-27-46.65-43.33-78.33-41.36a84.06,84.06,0,0,0-12.12,1.65C273.26,68,248.2,89.47,237.82,117c-6.11,16.2-7.82,34.85-19.41,47.7-15.09,16.74-40.7,17.26-63.22,16.57S107,181.18,92,198c-9.4,10.52-12.39,25.48-11.63,39.57,2,37.31,28.33,70.66,61.8,87.24s72.89,18.06,109.53,10.77c51.32-10.22,100.13-38.28,129.47-81.61S418,151.57,394.49,104.8Z" style="fill:#ebebeb"></path></g><g id="freepik--Floor--inject-42"><path d="M477.7,444.45c0,.14-100.47.26-224.38.26s-224.4-.12-224.4-.26,100.45-.26,224.4-.26S477.7,444.3,477.7,444.45Z" style="fill:#263238"></path></g><g id="freepik--Plants--inject-42"><path d="M125.22,423.3c.77-2.95-1.17-5.92-3.34-8.06s-4.78-4.07-5.91-6.91c-1.83-4.59.63-10.54-2.49-14.37-1.84-2.26-5.14-3-6.77-5.42a12.59,12.59,0,0,1-1.47-4.31,43.7,43.7,0,0,0-10.87-20.35,38,38,0,0,0,4.27,19.62c1.26,2.41,2.81,4.75,3.23,7.44.69,4.37-1.75,8.87-.68,13.16,1.23,4.91,6.74,8.19,7,13.24.22,4.27-3.5,8-3.22,12.28a11.53,11.53,0,0,0,1.89,5.06c3.31,5.49,8.15,9.26,15.5,9.14l9,.32Z" style="fill:#3AC3BD"></path><g style="opacity:0.30000000000000004"><path d="M125.22,423.3c.77-2.95-1.17-5.92-3.34-8.06s-4.78-4.07-5.91-6.91c-1.83-4.59.63-10.54-2.49-14.37-1.84-2.26-5.14-3-6.77-5.42a12.59,12.59,0,0,1-1.47-4.31,43.7,43.7,0,0,0-10.87-20.35,38,38,0,0,0,4.27,19.62c1.26,2.41,2.81,4.75,3.23,7.44.69,4.37-1.75,8.87-.68,13.16,1.23,4.91,6.74,8.19,7,13.24.22,4.27-3.5,8-3.22,12.28a11.53,11.53,0,0,0,1.89,5.06c3.31,5.49,8.15,9.26,15.5,9.14l9,.32Z"></path></g><path d="M133.19,444.37a7.16,7.16,0,0,0,2.47-.05,14.91,14.91,0,0,0,2.93-.74,12.3,12.3,0,0,0,3.61-2,5,5,0,0,0,1.49-2,9.34,9.34,0,0,0,.42-2.68,26.75,26.75,0,0,1,.21-2.92,8,8,0,0,1,1.1-2.89c1.06-1.87,2.82-3.63,3.39-6.16s.18-5.19-.24-7.89-.82-5.64.21-8.46,2.94-5.35,3.93-8.53.52-6.65.73-10a13.2,13.2,0,0,1,1.17-5c.73-1.59,1.74-3.09,2.53-4.77,1.6-3.39,1.88-7.23,2.31-11,.22-1.9.43-3.82.65-5.75a28.7,28.7,0,0,1,1-5.76,52.76,52.76,0,0,1,2.15-5.57,17.91,17.91,0,0,0,1.05-2.91,29.84,29.84,0,0,0,.29-3.09,37.27,37.27,0,0,0-.24-6.24c-.25-2.07-.62-4.13-.84-6.21,0-.13,0-.25,0-.36l-.05-.42-.37.19a13.7,13.7,0,0,0-4.84,4.09,22,22,0,0,0-3,5.48c-1.5,3.87-2,7.92-2.8,11.79a32.13,32.13,0,0,1-3.7,10.89c-1,1.6-2.18,3.06-3.23,4.63a12.74,12.74,0,0,0-2.23,5.13c-.53,3.8,1.56,7.15,1.13,10.52a11.71,11.71,0,0,1-1.64,4.67c-.82,1.44-1.78,2.77-2.69,4.11a26.34,26.34,0,0,0-2.42,4.16,13.1,13.1,0,0,0-1.11,4.51c-.21,3,.22,5.91,0,8.63a19.85,19.85,0,0,1-2.22,7.4c-1.09,2.21-2.3,4.22-3.31,6.16-.51,1-1,1.92-1.37,2.87a14.94,14.94,0,0,0-.79,2.84,18.17,18.17,0,0,0-.06,5.14,13,13,0,0,0,2.57,6.55,5.76,5.76,0,0,0,.73.79,3.41,3.41,0,0,0,.59.5c.34.25.52.36.52.36a11.41,11.41,0,0,1-1.75-1.72,13,13,0,0,1-2.44-6.51,18.1,18.1,0,0,1,.11-5.06,14,14,0,0,1,.8-2.78c.38-.93.86-1.87,1.37-2.83,1-1.92,2.25-3.92,3.36-6.15a20,20,0,0,0,2.3-7.53c.24-2.77-.18-5.66.05-8.63a12.7,12.7,0,0,1,1.08-4.36,26.87,26.87,0,0,1,2.39-4.07c.91-1.33,1.89-2.67,2.73-4.13a12.17,12.17,0,0,0,1.71-4.87c.44-3.59-1.64-7-1.1-10.49a12.23,12.23,0,0,1,2.15-4.91c1-1.54,2.23-3,3.25-4.64A32.73,32.73,0,0,0,153,354.62c.77-3.89,1.31-7.9,2.79-11.69a21.41,21.41,0,0,1,2.89-5.34,13.35,13.35,0,0,1,4.65-3.92l-.42-.23c0,.11,0,.24,0,.36.23,2.11.6,4.17.85,6.22a36.16,36.16,0,0,1,.23,6.14,29.07,29.07,0,0,1-.27,3,18.92,18.92,0,0,1-1,2.81,49.91,49.91,0,0,0-2.17,5.63,28.48,28.48,0,0,0-1,5.85q-.31,2.91-.63,5.76c-.43,3.78-.72,7.56-2.25,10.83-.76,1.63-1.77,3.14-2.52,4.79a13.71,13.71,0,0,0-1.21,5.18c-.2,3.47.26,6.87-.68,9.94s-2.9,5.62-3.89,8.53-.62,6-.19,8.66.87,5.35.29,7.74-2.23,4.17-3.32,6.09a8.21,8.21,0,0,0-1.11,3,25.4,25.4,0,0,0-.19,2.94,9.05,9.05,0,0,1-.39,2.62,4.76,4.76,0,0,1-1.39,1.89,12.24,12.24,0,0,1-3.53,2,15,15,0,0,1-2.88.78,10.86,10.86,0,0,1-1.83.18Z" style="fill:#263238"></path><path d="M161.63,338.33a1.09,1.09,0,0,0-.09.28l-.2.81c-.18.71-.39,1.78-.73,3.11s-1.17,2.84-1.87,4.7-1.46,4-2.13,6.39-1.3,5.06-1.94,7.92a33.11,33.11,0,0,1-2.88,8.79c-.74,1.46-1.57,2.94-2.23,4.56a21.29,21.29,0,0,0-1.29,5.17A105.39,105.39,0,0,1,146.33,391c-1.81,7.37-3.53,14.4-5.09,20.8s-3.05,12.11-4.27,17-2.14,8.7-2.82,11.45c-.32,1.32-.56,2.36-.74,3.12-.08.33-.13.59-.18.81a.87.87,0,0,0,0,.28.91.91,0,0,0,.09-.26c.07-.22.14-.48.24-.81.2-.75.49-1.78.84-3.09.73-2.74,1.75-6.62,3-11.4s2.74-10.57,4.39-16.93l5.13-20.81a101,101,0,0,0,1.94-10.93,20.67,20.67,0,0,1,1.25-5c.63-1.58,1.45-3.05,2.19-4.53a33.69,33.69,0,0,0,2.87-8.93c.62-2.86,1.2-5.52,1.86-7.91s1.35-4.53,2.05-6.38,1.45-3.38,1.78-4.76.48-2.43.62-3.15l.15-.82A1,1,0,0,0,161.63,338.33Z" style="fill:#263238"></path><path d="M134.77,444.4c5.88-3.49,7.57-14.1,5.12-20.49s-6.75-12.21-7.41-19c-.51-5.23,1.21-10.6,0-15.72-1.65-6.9-8.39-12.25-8.31-19.34,0-4,2.31-7.73,2.13-11.71-.22-4.88-4-8.75-6.28-13-3.55-6.58-3.79-14.36-5-21.73s-4-15.28-10.56-18.9c-1,6.26-2.62,10.55-2.1,19,.19,3,3.73,8.88,4.21,15.56.29,4,.49,8,.73,12s.49,7.84,1.88,11.48c1.07,2.78,2.78,5.31,3.58,8.19,1.49,5.41-.47,11.27.73,16.75,1,4.65,4.24,8.65,4.89,13.36.93,6.61-3.36,13.49-1.16,19.8,1.08,3.14,3.66,5.65,4.39,8.88.57,2.51,0,5.17.46,7.69.83,4.06,8.58,7.22,12.72,7" style="fill:#3AC3BD"></path><path d="M106.07,310.66a1.93,1.93,0,0,0,0,.36c0,.26.08.6.14,1,.13.9.28,2.23.59,3.95s1.22,3.67,1.93,6,1.49,5,2.15,8.05,1.24,6.36,1.83,9.95a41.42,41.42,0,0,0,3,11.25c.82,1.88,1.75,3.76,2.44,5.76a26,26,0,0,1,1.24,6.36,130,130,0,0,0,1.73,13.69l5.07,26.16c1.65,8,3.13,15.23,4.38,21.31s2.28,10.92,3,14.35c.36,1.66.64,3,.84,3.9l.24,1a1.38,1.38,0,0,0,.1.34,2.47,2.47,0,0,0,0-.36c-.05-.26-.11-.59-.18-1-.18-.93-.43-2.24-.74-3.92-.67-3.43-1.63-8.34-2.82-14.39s-2.65-13.31-4.25-21.33-3.25-16.87-5-26.15A128.33,128.33,0,0,1,120,363.32a26.88,26.88,0,0,0-1.28-6.48c-.72-2-1.66-3.93-2.48-5.8-1.78-3.68-2.4-7.53-3-11.11s-1.2-6.94-1.9-10a83.4,83.4,0,0,0-2.25-8.06c-.74-2.35-1.66-4.28-2-6s-.53-3-.7-3.92l-.19-1A1.5,1.5,0,0,0,106.07,310.66Z" style="fill:#263238"></path><path d="M367.13,393.6a9.81,9.81,0,0,1,6.26,4.49,17.38,17.38,0,0,1,2.42,7.47c.57,5.08-1.09,10.72-3.21,15.37-5-2.68-7.42-8.8-8.45-12-1.63-5-1.52-15.11,3-15.34" style="fill:#3AC3BD"></path><path d="M379.32,428a8.42,8.42,0,0,1,.85-8.39,11.19,11.19,0,0,1,7.44-4.34,4.66,4.66,0,0,1,3.88.77,3.56,3.56,0,0,1,.87,3.53,7.22,7.22,0,0,1-2,3.19c-3.09,3.1-6.65,5.53-11,5.24" style="fill:#3AC3BD"></path><path d="M377.46,444.39a5.92,5.92,0,0,1-.09-1.05c0-.74-.07-1.71-.12-2.86a29.46,29.46,0,0,1,.82-9.44,18,18,0,0,1,4.76-8.14,12.52,12.52,0,0,1,2.31-1.73c.29-.17.53-.27.69-.35s.25-.11.26-.1a19.44,19.44,0,0,0-3.08,2.37,18.59,18.59,0,0,0-4.59,8.06,31.8,31.8,0,0,0-.91,9.32c0,1.21,0,2.19,0,2.87A5.8,5.8,0,0,1,377.46,444.39Z" style="fill:#263238"></path><path d="M367.72,401.29s.07.14.16.43l.36,1.26c.32,1.09.75,2.68,1.27,4.65,1,3.93,2.4,9.39,3.77,15.45s2.47,11.58,3.22,15.58c.37,2,.66,3.62.85,4.75.08.53.15,1,.2,1.29a2,2,0,0,1,.05.46,2.88,2.88,0,0,1-.12-.44l-.27-1.29c-.24-1.16-.57-2.76-1-4.72-.81-4-2-9.49-3.33-15.55s-2.68-11.52-3.65-15.47c-.48-1.94-.87-3.53-1.15-4.68-.13-.52-.23-.94-.31-1.27A3.17,3.17,0,0,1,367.72,401.29Z" style="fill:#263238"></path><path d="M372.8,432.66A19.62,19.62,0,0,0,359.13,421c-1.55-.35-3.47-.37-4.37.93s-.23,3.1.66,4.42a16.8,16.8,0,0,0,17.37,6.7" style="fill:#3AC3BD"></path><path d="M360.88,425.58a4.49,4.49,0,0,1,1,.18,9.13,9.13,0,0,1,1.12.3,14.39,14.39,0,0,1,1.46.51,16.17,16.17,0,0,1,1.71.76,18,18,0,0,1,1.87,1.05,20.11,20.11,0,0,1,6.76,7,19,19,0,0,1,1,1.93,14.94,14.94,0,0,1,.67,1.74c.2.54.29,1.05.41,1.49a10,10,0,0,1,.23,1.14,4.21,4.21,0,0,1,.11,1c-.08,0-.25-1.39-1-3.52a17.22,17.22,0,0,0-.7-1.71,16.89,16.89,0,0,0-1-1.88,22,22,0,0,0-2.92-3.85,22.37,22.37,0,0,0-3.73-3.07A19.92,19.92,0,0,0,366,427.6a17.56,17.56,0,0,0-1.67-.79C362.25,425.94,360.86,425.65,360.88,425.58Z" style="fill:#263238"></path></g><g id="freepik--character-4--inject-42"><path d="M366.05,198.79c0,.14-11.2,3.25-25.1,7s-25.2,6.59-25.23,6.45,11.2-3.25,25.1-7S366,198.65,366.05,198.79Z" style="fill:#263238"></path><circle cx="407.73" cy="188.95" r="52.16" transform="matrix(0.22, -0.97, 0.97, 0.22, 131.98, 543.79)" style="fill:#fff"></circle><path d="M459.89,189s0-.28-.07-.84-.08-1.4-.15-2.48c0-.54-.06-1.15-.1-1.82s-.21-1.39-.33-2.18-.26-1.64-.4-2.54a7.86,7.86,0,0,0-.3-1.39l-.38-1.46a49.33,49.33,0,0,0-5.77-13.85,51.75,51.75,0,0,0-13.21-14.75L436.93,146c-.79-.52-1.62-1-2.44-1.5S432.86,143.4,432,143l-2.69-1.3-1.37-.65-1.45-.52-2.92-1.07c-1-.33-2-.54-3.06-.82a25.5,25.5,0,0,0-3.14-.71,48.73,48.73,0,0,0-6.57-.77c-1.12,0-2.25-.14-3.39-.13l-3.43.18c-.58,0-1.16,0-1.74.11l-1.73.27c-1.16.19-2.33.33-3.49.57a53.06,53.06,0,0,0-6.93,2l-1.72.63c-.29.11-.58.2-.86.32l-.84.4-3.35,1.62c-1.1.6-2.15,1.29-3.23,1.93-.53.34-1.1.63-1.61,1l-1.53,1.14a60.15,60.15,0,0,0-5.89,5l-2.63,2.91-.67.73-.59.79-1.19,1.59-1.2,1.6-1,1.71-1.05,1.71-.52.87c-.16.29-.29.6-.44.9l-1.77,3.67-1.4,3.84a51.49,51.49,0,0,0,0,32.76c.47,1.28.94,2.57,1.41,3.84l1.76,3.66.45.91.52.87,1,1.72,1.05,1.7,1.19,1.6,1.19,1.59.6.79.66.73c.89,1,1.77,1.94,2.64,2.91a59.11,59.11,0,0,0,5.89,5l1.53,1.14c.51.38,1.07.67,1.61,1,1.08.65,2.13,1.34,3.23,1.93l3.35,1.62.84.41.86.32,1.72.63a54.66,54.66,0,0,0,6.93,2c1.16.24,2.34.38,3.49.57l1.73.26c.58.08,1.16.08,1.74.12l3.44.17c1.13,0,2.26-.09,3.38-.13a48.73,48.73,0,0,0,6.57-.76,27.47,27.47,0,0,0,3.14-.71c1-.28,2.07-.49,3.06-.82l2.93-1.07,1.44-.52,1.37-.66,2.7-1.29c.9-.41,1.69-1,2.53-1.47s1.66-1,2.45-1.5l2.24-1.67a51.83,51.83,0,0,0,13.22-14.76,49.45,49.45,0,0,0,5.76-13.85c.13-.5.26-1,.38-1.46a8,8,0,0,0,.3-1.38c.14-.91.28-1.76.4-2.54s.26-1.51.33-2.18.07-1.28.1-1.83c.07-1.07.12-1.9.15-2.47s.07-.85.07-.85,0,.29,0,.85-.06,1.4-.1,2.48c0,.55,0,1.16-.08,1.83s-.2,1.4-.31,2.19-.24,1.64-.37,2.55a9.18,9.18,0,0,1-.29,1.4c-.12.47-.24,1-.37,1.46a49.56,49.56,0,0,1-5.71,13.95,51.87,51.87,0,0,1-13.24,14.9l-2.26,1.69c-.8.53-1.63,1-2.46,1.52s-1.64,1.07-2.55,1.49l-2.71,1.31-1.38.66-1.45.53-3,1.08c-1,.34-2,.55-3.08.84a26,26,0,0,1-3.17.72,47.89,47.89,0,0,1-6.62.79c-1.13,0-2.27.15-3.42.13l-3.46-.17c-.59,0-1.17,0-1.76-.11l-1.74-.26c-1.17-.19-2.36-.33-3.53-.57a54.41,54.41,0,0,1-7-2l-1.74-.63c-.29-.11-.59-.21-.87-.33l-.84-.4L383,235.18c-1.11-.6-2.17-1.3-3.27-2-.53-.34-1.11-.63-1.62-1l-1.54-1.16a57.69,57.69,0,0,1-5.95-5c-.89-1-1.78-1.95-2.67-2.94l-.67-.73-.61-.8-1.2-1.61-1.2-1.61-1.06-1.72-1.06-1.74-.52-.87-.45-.92c-.6-1.23-1.19-2.46-1.79-3.7s-.94-2.58-1.42-3.88a52,52,0,0,1,0-33.08c.48-1.3,1-2.6,1.43-3.89l1.78-3.69c.15-.31.29-.62.45-.92l.53-.87,1.05-1.74,1.06-1.72,1.21-1.61,1.2-1.61.6-.79.67-.74,2.67-2.93a58.87,58.87,0,0,1,5.95-5.05l1.54-1.15c.51-.39,1.09-.68,1.62-1,1.1-.65,2.16-1.35,3.27-2l3.39-1.63.84-.4c.28-.12.58-.22.87-.33l1.74-.63a54.41,54.41,0,0,1,7-2c1.17-.24,2.36-.38,3.53-.57l1.74-.27c.58-.07,1.17-.07,1.75-.11l3.47-.17c1.15,0,2.29.1,3.41.14a49.62,49.62,0,0,1,6.63.78,27.38,27.38,0,0,1,3.16.73c1,.28,2.09.5,3.09.83l2.94,1.08,1.45.54c.47.21.93.44,1.38.66l2.72,1.31c.9.41,1.7,1,2.55,1.48s1.66,1,2.45,1.52l2.26,1.69a52,52,0,0,1,13.24,14.9,49.56,49.56,0,0,1,5.72,13.95l.37,1.47a9.06,9.06,0,0,1,.29,1.39c.13.91.26,1.77.37,2.56s.25,1.51.31,2.19.05,1.28.08,1.83c0,1.08.07,1.9.1,2.48S459.89,189,459.89,189Z" style="fill:#263238"></path><path d="M368.9,223.79s6.6-7.28,8.3-8.12,16.64-4.85,16.64-4.85l23.72-1.4,25.32,10.9s3.28,2.39,3.77,3.88C447.2,225.05,409.33,262.5,368.9,223.79Z" style="fill:#263238"></path><path d="M383.83,148.27c4-1.09,8.05,2.62,12.16,2,2.5-.41,4.44-2.32,6.69-3.48A12.76,12.76,0,0,1,414,146.7c3.32,1.83,5.43,3.73,5.76,7.5,3.13-1.66,8.12,2.38,9.73,6.16s1.05,7.62-.07,11.58a54.37,54.37,0,0,1-9.63,18.81c-.39.49-1,1-1.56.74-.39-.19-.5-.69-.55-1.12-.47-3.67.12-7.38.56-11.05s.73-7.47-.32-11-3.68-6.85-7.28-7.69a11.73,11.73,0,0,0-7.91,1.42c-2.42,1.25-4.58,3-6.9,4.42a15.06,15.06,0,0,1-7.64,2.66c-2.74,0-5.62-1.36-6.7-3.87s.34-6,3-6.45a5.37,5.37,0,0,1-.72-10.52Z" style="fill:#263238"></path><path d="M423.67,172.87,418.32,214a12.35,12.35,0,0,1-14.44,10.55h0a12.35,12.35,0,0,1-10-13.76c.4-3.1.73-5.68.75-6,0,0-10.34-2.35-9.75-12.82.29-5.06,1.72-15.43,3.13-24.79a19.54,19.54,0,0,1,20.66-16.57l1,.07C420.48,152.1,425.36,162.08,423.67,172.87Z" style="fill:#ffbe9d"></path><path d="M394.59,204.67a24.39,24.39,0,0,0,13.9-2.94s-3.74,7.31-14.11,5.64Z" style="fill:#eb996e"></path><path d="M390.51,174.72a1.49,1.49,0,0,0,1.33,1.61,1.45,1.45,0,0,0,1.64-1.24,1.5,1.5,0,0,0-1.34-1.61A1.43,1.43,0,0,0,390.51,174.72Z" style="fill:#263238"></path><path d="M389.87,172.49c.17.21,1.36-.55,3-.43s2.73,1,2.92.81-.07-.44-.56-.85a4.06,4.06,0,0,0-2.32-.89,3.86,3.86,0,0,0-2.38.59C390,172.06,389.78,172.4,389.87,172.49Z" style="fill:#263238"></path><path d="M405.67,176.16a1.5,1.5,0,0,0,1.34,1.6,1.43,1.43,0,0,0,1.63-1.24,1.5,1.5,0,0,0-1.33-1.6A1.43,1.43,0,0,0,405.67,176.16Z" style="fill:#263238"></path><path d="M405.64,173.89c.18.2,1.37-.56,3-.44s2.73,1,2.92.81-.07-.44-.56-.85a4.06,4.06,0,0,0-2.32-.89,3.86,3.86,0,0,0-2.38.59C405.75,173.45,405.56,173.79,405.64,173.89Z" style="fill:#263238"></path><path d="M399,185.4a11,11,0,0,0-2.58-.65c-.41-.07-.79-.18-.84-.46a2.07,2.07,0,0,1,.36-1.2c.45-1,.93-2,1.43-3,2-4.34,3.46-7.91,3.29-8s-1.94,3.37-3.93,7.7l-1.38,3.07a2.38,2.38,0,0,0-.32,1.59,1,1,0,0,0,.63.65,3,3,0,0,0,.69.15A10.35,10.35,0,0,0,399,185.4Z" style="fill:#263238"></path><path d="M403.64,186.84c-.26,0-.38,1.71-2,2.85s-3.42.81-3.45,1.05.39.37,1.17.45a4.34,4.34,0,0,0,2.88-.79,3.78,3.78,0,0,0,1.53-2.39C403.93,187.28,403.76,186.84,403.64,186.84Z" style="fill:#263238"></path><path d="M405.66,167.56c.13.45,1.75.35,3.62.71s3.36,1,3.64.6c.12-.18-.11-.61-.7-1.08a6.16,6.16,0,0,0-2.65-1.13,6.06,6.06,0,0,0-2.88.14C406,167,405.61,167.35,405.66,167.56Z" style="fill:#263238"></path><path d="M390.78,167.88c.26.39,1.39.09,2.72.16s2.44.42,2.73.05c.13-.18,0-.55-.5-.93a3.7,3.7,0,0,0-2.17-.75,3.76,3.76,0,0,0-2.22.58C390.85,167.33,390.67,167.7,390.78,167.88Z" style="fill:#263238"></path><path d="M422.28,180.56c.19-.07,7.33-1.63,6.61,5.5s-7.73,4.94-7.72,4.74S422.28,180.56,422.28,180.56Z" style="fill:#ffbe9d"></path><path d="M423.62,188.31s.11.1.31.22a1.3,1.3,0,0,0,.93.11,3.08,3.08,0,0,0,1.7-2.61,4.19,4.19,0,0,0-.16-1.82,1.48,1.48,0,0,0-.84-1.05.65.65,0,0,0-.77.27c-.12.19-.09.34-.12.35s-.15-.14-.06-.43a.85.85,0,0,1,.33-.42,1,1,0,0,1,.7-.11,1.77,1.77,0,0,1,1.19,1.24,4.23,4.23,0,0,1,.23,2c-.19,1.43-1.06,2.71-2.13,2.9a1.33,1.33,0,0,1-1.11-.3C423.61,188.49,423.59,188.32,423.62,188.31Z" style="fill:#eb996e"></path><path d="M385.91,164.88a15.14,15.14,0,0,0,13.63-2.09c2.69-2,4.87-4.95,8.12-5.71a8.54,8.54,0,0,1,6.44,1.33,16.61,16.61,0,0,1,4.61,4.87c-2.39,5.18-1.44,11.2-.44,16.82a2.81,2.81,0,0,0,.71,1.7c.8.71,2.11.29,2.9-.43a8.91,8.91,0,0,0,2.26-4.53,29.49,29.49,0,0,0,.73-11.6,20.08,20.08,0,0,0-4.81-10.49,19,19,0,0,0-12.95-5.94,23.3,23.3,0,0,0-13.85,3.89,13.76,13.76,0,0,0-4.74,4.76" style="fill:#263238"></path><path d="M380.65,150.58a1.63,1.63,0,0,0,0,.62,2.86,2.86,0,0,0,.89,1.55,4.61,4.61,0,0,0,2.61,1.07,7.6,7.6,0,0,0,1.79,0,3.92,3.92,0,0,0,1.88-.72,2.55,2.55,0,0,0,1-2,2.23,2.23,0,0,0-1.39-1.93,2.77,2.77,0,0,0-1.28-.25,2.31,2.31,0,0,0-1.26.46,3.23,3.23,0,0,0-1.24,2.43,3.78,3.78,0,0,0,.94,2.7,5.8,5.8,0,0,0,2.49,1.65,9.46,9.46,0,0,0,6.16-.24,27,27,0,0,0,5.51-2.82,33.85,33.85,0,0,1,5-2.73,10.68,10.68,0,0,1,5-.86A10,10,0,0,1,413,151a12.65,12.65,0,0,1,4.45,4.63c.38.67.63,1.22.8,1.59s.25.56.26.56,0-.05,0-.15-.08-.25-.15-.44a14.11,14.11,0,0,0-.75-1.62,12.57,12.57,0,0,0-4.44-4.79,10.39,10.39,0,0,0-4.3-1.47,11,11,0,0,0-5.15.84,34.92,34.92,0,0,0-5.07,2.74,26,26,0,0,1-5.44,2.78,9.08,9.08,0,0,1-5.92.25,5.34,5.34,0,0,1-2.35-1.54,3.46,3.46,0,0,1-.88-2.46,3,3,0,0,1,1.1-2.19,2.15,2.15,0,0,1,2.23-.2,1.92,1.92,0,0,1,1.24,1.66,2.26,2.26,0,0,1-.91,1.76,3.57,3.57,0,0,1-1.75.69,7.75,7.75,0,0,1-1.73,0,4.48,4.48,0,0,1-2.54-1,2.81,2.81,0,0,1-.92-1.45C380.65,150.8,380.68,150.58,380.65,150.58Z" style="fill:#455a64"></path><path d="M430.37,166.61a12.14,12.14,0,0,1-2.22.41,6,6,0,0,1-2.38-.41,10.35,10.35,0,0,1-2.59-1.48,8.31,8.31,0,0,1-2.89-4.48,16.89,16.89,0,0,1-.33-2.24,1.8,1.8,0,0,0-.08.61,7.81,7.81,0,0,0,.16,1.69,8.12,8.12,0,0,0,2.92,4.7,10,10,0,0,0,2.7,1.51,6.08,6.08,0,0,0,2.5.35,5.75,5.75,0,0,0,1.66-.38A1.74,1.74,0,0,0,430.37,166.61Z" style="fill:#455a64"></path><path d="M429.7,171.76c0-.07-.85.06-2.19-.11a9.82,9.82,0,0,1-8-6.09c-.51-1.25-.61-2.1-.67-2.09s0,.22,0,.6a8.2,8.2,0,0,0,.41,1.58,9.58,9.58,0,0,0,3.16,4.33,9.69,9.69,0,0,0,5,1.92,7.65,7.65,0,0,0,1.63,0A1.62,1.62,0,0,0,429.7,171.76Z" style="fill:#455a64"></path><path d="M410.51,181.09a.18.18,0,0,0,.22-.14.19.19,0,0,0-.12-.24.2.2,0,0,0-.1.38Z" style="fill:#eb996e"></path><path d="M407.49,180.18a.21.21,0,0,0,.23-.17.2.2,0,0,0-.11-.26.2.2,0,0,0-.23.17A.19.19,0,0,0,407.49,180.18Z" style="fill:#eb996e"></path><path d="M405.43,180c.09,0,.19-.09.23-.25s0-.3-.12-.32-.2.1-.23.26S405.33,180,405.43,180Z" style="fill:#eb996e"></path><path d="M408.87,182.91c.1,0,.18,0,.18-.1s-.07-.12-.16-.13-.19,0-.19.1S408.77,182.9,408.87,182.91Z" style="fill:#eb996e"></path><path d="M406.1,182.06a.19.19,0,0,0,.21-.17.18.18,0,1,0-.36,0A.19.19,0,0,0,406.1,182.06Z" style="fill:#eb996e"></path><path d="M391.56,179.3a.19.19,0,0,0,.23-.15.18.18,0,1,0-.23.15Z" style="fill:#eb996e"></path><path d="M389.48,179a.2.2,0,0,0,.22-.19.22.22,0,0,0-.14-.25.21.21,0,0,0-.21.19C389.33,178.84,389.39,179,389.48,179Z" style="fill:#eb996e"></path><path d="M393.41,179.48a.16.16,0,0,0,.21-.1.18.18,0,0,0-.13-.2.16.16,0,0,0-.21.1A.17.17,0,0,0,393.41,179.48Z" style="fill:#eb996e"></path><path d="M391.71,181.47a.19.19,0,0,0,.25-.1.19.19,0,0,0-.06-.27.2.2,0,0,0-.25.1A.21.21,0,0,0,391.71,181.47Z" style="fill:#eb996e"></path><path d="M390,181a.16.16,0,0,0,.14-.19.18.18,0,0,0-.34.07A.17.17,0,0,0,390,181Z" style="fill:#eb996e"></path><path d="M426.35,190.45a4.35,4.35,0,0,1,.08,1.64,2.34,2.34,0,0,1-.88,1.44,2.16,2.16,0,0,1-2,.38,2,2,0,0,1-1.3-1.49,2.52,2.52,0,0,1,.41-1.64,3.5,3.5,0,0,1,1.13-1.18c0-.06-.74.12-1.34,1a2.68,2.68,0,0,0-.52,1.83,2.24,2.24,0,0,0,1.5,1.77,2.42,2.42,0,0,0,2.28-.45,2.53,2.53,0,0,0,.93-1.66,2.8,2.8,0,0,0-.12-1.27C426.46,190.58,426.37,190.44,426.35,190.45Z" style="fill:#263238"></path><path d="M426.41,189.24s-.27.07-.43.46a1,1,0,0,0,.62,1.37,1,1,0,0,0,.9-.15.79.79,0,0,0,.31-.68c0-.44-.32-.58-.33-.54s.12.22.08.53a.59.59,0,0,1-.25.43.73.73,0,0,1-.6.08.81.81,0,0,1-.44-.43.94.94,0,0,1,0-.54C426.29,189.45,426.45,189.28,426.41,189.24Z" style="fill:#263238"></path></g><g id="freepik--character-3--inject-42"><path d="M310.39,99.4a1.05,1.05,0,0,1,.08.62,11.55,11.55,0,0,1-.29,1.78c-.35,1.52-1,3.69-1.84,6.33-1.73,5.3-4.36,12.53-7.4,20.46s-5.88,15.07-8,20.22c-1,2.53-1.9,4.59-2.52,6.09-.29.67-.53,1.22-.71,1.65a2.8,2.8,0,0,1-.29.56,3.28,3.28,0,0,1,.19-.6l.62-1.68c.59-1.52,1.39-3.6,2.37-6.15l7.84-20.28c3-7.93,5.71-15.13,7.53-20.38.9-2.63,1.59-4.77,2-6.27a14.36,14.36,0,0,0,.38-1.74A3.11,3.11,0,0,0,310.39,99.4Z" style="fill:#263238"></path><circle cx="318.6" cy="64.55" r="41.1" transform="translate(134.19 332.26) rotate(-66.89)" style="fill:#fff"></circle><path d="M345.51,82c.5-3.34,2.24-6.38,2.76-9.71.56-3.55-.31-7.16-1.26-10.63-1.78-6.48-4-13.08-8.47-18.08s-11.82-8-18.11-5.66l-6.63,5.76c-4.62,1.19-7.47,5.79-9.19,10.24s-2.9,9.31-6.13,12.81c-2,2.21-5,4.06-5.29,7s1.92,5.93.51,8.43c-1.07,1.91-3.76,2.36-5,4.2-1.33,2.06.8,7.23.8,7.23s17.28,19.71,45.66,8.55c5.94-2.34,9-5.1,13.35-9.54A13.55,13.55,0,0,1,345.51,82Z" style="fill:#263238"></path><path d="M295,98.58l13.58-3.94,22.35-1.15,13.65,3.21s-10.32,9.33-27.21,8.92a43.32,43.32,0,0,1-22.37-7" style="fill:#3AC3BD"></path><path d="M304.24,40.83a17.2,17.2,0,0,1,12.51-6.12c6.69-.61,13.95,1.1,19,5.52,4.64,4.06,6.9,10.34,7.18,16.5A15.76,15.76,0,0,1,341.45,63a11.54,11.54,0,0,1-5.33,5.36c-2,.85-2.75.14-4.27-1.42A9.48,9.48,0,0,1,330,63.4c-1.94-5.28-4.21-10.53-7.82-14.84S313.42,41,307.81,40.7" style="fill:#3AC3BD"></path><path d="M300.69,52.59a13.41,13.41,0,0,1,3.55-11.76,17.48,17.48,0,0,1,8.4-4.44,18.91,18.91,0,0,1,12.64.92c3.88,1.87,6.92,5.74,7.14,10,.09,1.95-.36,4,.17,5.85a4.31,4.31,0,0,1,.37,2.47,2,2,0,0,1-1.82,1.24,4.55,4.55,0,0,1-2.24-.57,24.41,24.41,0,0,1-6.19-4.93" style="fill:#263238"></path><path d="M330.24,48.1l-18.61-5.76c-6-1-10.41,6.27-11.11,12.31-.78,6.72-1.46,14.94-.93,20,1.08,10.18,8.75,11.87,8.75,11.87s0,2.39-.06,5.21a11.11,11.11,0,0,0,13.85,11l.47-.13a11.23,11.23,0,0,0,7.95-10l2.68-40.75A3.57,3.57,0,0,0,330.24,48.1Z" style="fill:#ffbe9d"></path><path d="M303,61.8a1.3,1.3,0,0,0,1.18,1.38,1.25,1.25,0,0,0,1.4-1.1,1.3,1.3,0,0,0-1.18-1.38A1.25,1.25,0,0,0,303,61.8Z" style="fill:#263238"></path><path d="M302.08,59c.15.18,1.17-.49,2.57-.42s2.38.83,2.54.67-.07-.39-.5-.74a3.68,3.68,0,0,0-2-.74,3.42,3.42,0,0,0-2.06.55C302.17,58.66,302,59,302.08,59Z" style="fill:#263238"></path><path d="M316.34,62.56a1.3,1.3,0,0,0,1.18,1.38,1.25,1.25,0,0,0,1.4-1.1,1.3,1.3,0,0,0-1.18-1.38A1.25,1.25,0,0,0,316.34,62.56Z" style="fill:#263238"></path><path d="M315.77,60c.15.18,1.17-.5,2.57-.42s2.38.83,2.54.67-.07-.39-.5-.74a3.57,3.57,0,0,0-2-.74,3.42,3.42,0,0,0-2.06.55C315.86,59.63,315.7,59.93,315.77,60Z" style="fill:#263238"></path><path d="M310.17,70.09a9,9,0,0,0-2.24-.53c-.36-.06-.69-.15-.74-.39a1.78,1.78,0,0,1,.3-1l1.19-2.66a47.53,47.53,0,0,0,2.74-7c-.16-.06-1.63,3-3.29,6.73L307,67.91a2.06,2.06,0,0,0-.25,1.39.9.9,0,0,0,.56.55,2.39,2.39,0,0,0,.6.11A9.88,9.88,0,0,0,310.17,70.09Z" style="fill:#263238"></path><path d="M308.34,86.53a25.67,25.67,0,0,0,13.72-2.9s-3.68,7-13.74,5.55Z" style="fill:#eb996e"></path><path d="M310.58,73.48a2.52,2.52,0,0,1,2.3-.82,2.29,2.29,0,0,1,1.54.93,1.44,1.44,0,0,1,0,1.67,1.7,1.7,0,0,1-1.85.37,5.27,5.27,0,0,1-1.73-1.16,1.73,1.73,0,0,1-.38-.43.48.48,0,0,1,0-.52" style="fill:#eb996e"></path><path d="M314.22,71.27c-.22,0-.31,1.48-1.66,2.49s-2.95.75-3,1,.34.31,1,.36a3.73,3.73,0,0,0,2.48-.72,3.25,3.25,0,0,0,1.29-2.09C314.48,71.65,314.33,71.26,314.22,71.27Z" style="fill:#263238"></path><path d="M315.76,55.78c.12.39,1.52.28,3.14.57s2.93.79,3.16.47c.11-.16-.1-.53-.62-.92a5.21,5.21,0,0,0-2.31-.95,5.31,5.31,0,0,0-2.49.16C316,55.32,315.71,55.6,315.76,55.78Z" style="fill:#263238"></path><path d="M302.81,53c.22.33,1.2,0,2.36.09s2.12.33,2.36,0c.11-.16,0-.48-.44-.8a3.44,3.44,0,0,0-3.81-.09C302.86,52.48,302.71,52.8,302.81,53Z" style="fill:#263238"></path><path d="M329.48,68.64c0-.75,1-2.48,1.75-2.55,2-.21,5.57.14,5.34,5.18-.32,6.89-7.17,5.15-7.17,5S329.33,71.24,329.48,68.64Z" style="fill:#ffbe9d"></path><path d="M331.62,73.71s.12.09.31.19a1.21,1.21,0,0,0,.9.06,3,3,0,0,0,1.5-2.6,4.09,4.09,0,0,0-.26-1.74,1.4,1.4,0,0,0-.86-1,.61.61,0,0,0-.72.3c-.11.19-.07.33-.11.34s-.14-.13-.07-.41a.82.82,0,0,1,.29-.42.93.93,0,0,1,.67-.14,1.69,1.69,0,0,1,1.21,1.12,4.1,4.1,0,0,1,.33,1.94c-.11,1.39-.88,2.66-1.89,2.9a1.31,1.31,0,0,1-1.09-.23C331.62,73.88,331.6,73.72,331.62,73.71Z" style="fill:#eb996e"></path><path d="M310.74,41.1a9.43,9.43,0,0,0,5.86,7.65c1.69.65,3.75.94,4.67,2.49s.17,3.75,1,5.38c1.2,2.25,4.89,2.41,5.74,4.82.36,1.06,0,2.26.43,3.31a3.19,3.19,0,0,0,3.69,1.74,5.09,5.09,0,0,0,3.22-2.87,13.55,13.55,0,0,0,1.05-4.31,24.38,24.38,0,0,0-.1-8.73C334.89,44.63,327,36,320.9,36" style="fill:#263238"></path><path d="M359.7,64.55s0-.22-.06-.66-.07-1.11-.13-2c0-.43-.05-.91-.08-1.44s-.17-1.1-.26-1.72-.21-1.28-.32-2a21.9,21.9,0,0,0-.54-2.24,39.24,39.24,0,0,0-4.55-10.9A40.81,40.81,0,0,0,343.35,32l-1.77-1.32c-.62-.4-1.27-.78-1.92-1.18s-1.29-.83-2-1.15l-2.12-1-1.08-.51-1.13-.41L331,25.6c-.79-.26-1.6-.43-2.41-.65a22.32,22.32,0,0,0-2.48-.56A38,38,0,0,0,321,23.8c-.88,0-1.77-.12-2.66-.11l-2.7.14c-.46,0-.92,0-1.37.09l-1.36.21c-.91.15-1.84.26-2.75.45a43.35,43.35,0,0,0-5.45,1.6,41.67,41.67,0,0,0-5.33,2.34c-.86.47-1.69,1-2.54,1.52-.42.27-.87.49-1.27.8l-1.2.9a45.09,45.09,0,0,0-4.63,3.94L287.63,38l-.52.58-.47.62-.93,1.25-.94,1.26L283.94,43l-.82,1.35-.41.68-.35.72q-.69,1.43-1.38,2.88l-1.11,3a43.77,43.77,0,0,0-2.11,12.89,43.81,43.81,0,0,0,2.1,12.89l1.11,3,1.39,2.88.35.72.41.68.82,1.35.82,1.34.94,1.26.94,1.25.47.62.52.58,2.08,2.29a46.38,46.38,0,0,0,4.63,3.94l1.2.9c.4.3.85.53,1.27.8.85.5,1.68,1.05,2.54,1.52a44.68,44.68,0,0,0,5.33,2.34,43.35,43.35,0,0,0,5.45,1.6c.91.19,1.84.29,2.75.44l1.36.21c.45.06.91.06,1.37.09l2.7.14c.9,0,1.78-.07,2.67-.1a38.22,38.22,0,0,0,5.17-.6,20.55,20.55,0,0,0,2.47-.56c.81-.22,1.63-.39,2.41-.64l2.3-.84,1.13-.42,1.08-.51,2.13-1a22.89,22.89,0,0,0,2-1.15c.65-.4,1.3-.77,1.93-1.18l1.76-1.32a40.66,40.66,0,0,0,10.41-11.61,38.7,38.7,0,0,0,4.55-10.9,21.9,21.9,0,0,0,.54-2.24c.11-.71.22-1.38.32-2s.2-1.19.26-1.72.06-1,.08-1.43c.06-.85.1-1.5.13-2s.06-.67.06-.67,0,.23,0,.67,0,1.11-.07,2c0,.44,0,.92-.06,1.45s-.16,1.1-.24,1.72-.19,1.3-.29,2a21.92,21.92,0,0,1-.52,2.26,38.93,38.93,0,0,1-4.5,11,41,41,0,0,1-10.43,11.76L341.8,98.7c-.63.42-1.29.79-1.94,1.2s-1.29.84-2,1.17l-2.14,1-1.09.52-1.14.42-2.32.85c-.79.27-1.62.44-2.44.66a20.2,20.2,0,0,1-2.5.57,37,37,0,0,1-5.22.62c-.89,0-1.79.12-2.69.11l-2.74-.13c-.46,0-.92,0-1.38-.09l-1.38-.21c-.92-.15-1.85-.25-2.78-.44a44.27,44.27,0,0,1-5.51-1.61,43.52,43.52,0,0,1-5.4-2.36c-.87-.48-1.71-1-2.58-1.54-.42-.27-.87-.5-1.28-.8L294,97.77a47.58,47.58,0,0,1-4.69-4l-2.11-2.31-.52-.58-.48-.63L285.29,89l-1-1.27-.83-1.36L282.67,85l-.41-.69-.36-.72c-.46-1-.93-1.94-1.4-2.92l-1.13-3.06a44.19,44.19,0,0,1-2.13-13,43.82,43.82,0,0,1,2.14-13c.37-1,.75-2,1.12-3.06l1.41-2.92.35-.72.42-.69.83-1.37.83-1.36,1-1.27.94-1.27.48-.63.53-.58,2.1-2.31a45.19,45.19,0,0,1,4.7-4l1.21-.91c.41-.31.86-.54,1.28-.81.87-.51,1.71-1.06,2.58-1.53a42.08,42.08,0,0,1,5.4-2.36A42.62,42.62,0,0,1,310,24.12c.93-.19,1.86-.3,2.78-.45l1.38-.21c.46-.06.92-.05,1.38-.08l2.74-.14c.9,0,1.8.08,2.69.11a38.58,38.58,0,0,1,5.22.62,20.62,20.62,0,0,1,2.5.57c.82.23,1.64.4,2.43.66l2.33.86,1.14.42,1.09.52,2.14,1c.71.33,1.34.79,2,1.17s1.31.79,1.94,1.2l1.78,1.34A41,41,0,0,1,354,43.49a39,39,0,0,1,4.5,11,22.54,22.54,0,0,1,.52,2.26c.1.72.2,1.39.29,2s.19,1.2.24,1.73,0,1,.06,1.44c0,.85.05,1.5.07,2S359.7,64.55,359.7,64.55Z" style="fill:#263238"></path></g><g id="freepik--character-2--inject-42"><path d="M256.22,434.45l3.16,25.75,8.37,19.65a2.66,2.66,0,0,1-1.57,3.55h0a2.65,2.65,0,0,1-2.41-.34c-4.47-3.19-20.84-15-21-16.89-.15-2.19-6-30.44-6-30.44Z" style="fill:#3AC3BD"></path><g style="opacity:0.6000000000000001"><path d="M266.18,483.4l-23.63-19,.16,1.09A4,4,0,0,0,244,468c1.91,1.68,7.28,6.19,19.66,15.11a2.67,2.67,0,0,0,2.49.33Z" style="fill:#fff"></path></g><g style="opacity:0.6000000000000001"><path d="M246.61,455.39a1.61,1.61,0,0,1,.74,2,1.54,1.54,0,0,1-2,.75,1.7,1.7,0,0,1-.77-2.14,1.61,1.61,0,0,1,2.16-.55" style="fill:#fff"></path></g><path d="M258.67,473c.16,0,.54-1.38,2-2.33a8,8,0,0,1,2.88-1c0-.07-.35-.22-1-.22a4.24,4.24,0,0,0-3.74,2.57C258.59,472.64,258.61,473,258.67,473Z" style="fill:#263238"></path><path d="M261,476.21c.14.09.84-.86,2.12-1.44a23.45,23.45,0,0,1,2.46-.69,3,3,0,0,0-2.7.18C261.43,474.92,260.86,476.16,261,476.21Z" style="fill:#263238"></path><path d="M254.63,469.13a25.44,25.44,0,0,1,3.11-2.44,26.66,26.66,0,0,1,3.68-1.44,5.94,5.94,0,0,0-4,.95A5.82,5.82,0,0,0,254.63,469.13Z" style="fill:#263238"></path><path d="M253,461.38c.09.15,1.43-.65,3.26-1s3.36-.11,3.4-.27a6.59,6.59,0,0,0-6.66,1.26Z" style="fill:#263238"></path><path d="M251.89,453.85a13,13,0,0,1,3.37-1.13,13.61,13.61,0,0,1,3.53.36c0-.06-.3-.34-.94-.59a5.56,5.56,0,0,0-2.65-.33,5.67,5.67,0,0,0-2.52.9C252.11,453.45,251.85,453.8,251.89,453.85Z" style="fill:#263238"></path><path d="M255,451.3a2.17,2.17,0,0,0-.1-1,6.78,6.78,0,0,0-1.15-2.43,2.94,2.94,0,0,0-1.49-1.24,1,1,0,0,0-1.15.41,1.71,1.71,0,0,0-.24,1.22,3.76,3.76,0,0,0,3.76,3,4.38,4.38,0,0,0,3.91-2.87,1.52,1.52,0,0,0-.12-1.26,1,1,0,0,0-1.16-.39,3.74,3.74,0,0,0-1.56,1.13,7.6,7.6,0,0,0-1.46,2.25,2.23,2.23,0,0,0-.27.94,12.46,12.46,0,0,1,2-2.91,3.36,3.36,0,0,1,1.38-.95.58.58,0,0,1,.64.21,1,1,0,0,1,0,.83,3.88,3.88,0,0,1-3.41,2.45,3.24,3.24,0,0,1-3.23-2.47,1.29,1.29,0,0,1,.13-.86.57.57,0,0,1,.63-.23,2.76,2.76,0,0,1,1.29,1A10,10,0,0,1,255,451.3Z" style="fill:#263238"></path><g style="opacity:0.30000000000000004"><polygon points="239.53 450.81 258.01 448.9 257.46 444.56 238.65 446.49 239.53 450.81"></polygon></g><path d="M236.5,248l.06.34-32.29,2s-9.75,38.85-2.76,54.05S226,381.85,226,381.85L238.38,448l21.95-3-2.73-32.4c2.26-5.5,13.52-33,14.89-37.56,1.52-5.07,4.4-59.42,4.65-79.19.27-22.54.75-50.94.75-50.94Z" style="fill:#263238"></path><path d="M249,277.23a2.49,2.49,0,0,1,.05.35c0,.25.07.58.11,1,.09.92.22,2.22.38,3.89.32,3.41.79,8.28,1.35,14.3,1.15,12.08,2.88,28.75,4.41,47.2.76,9.23,1.33,18,1.73,26s.59,15.24.68,21.31.06,11,0,14.37c0,1.67-.07,3-.09,3.91q0,.63,0,1a1.55,1.55,0,0,1,0,.34,1.6,1.6,0,0,1,0-.35c0-.25,0-.59,0-1,0-.93,0-2.24,0-3.91,0-3.39,0-8.3-.14-14.36s-.35-13.28-.78-21.29-1-16.81-1.78-26c-1.53-18.45-3.2-35.13-4.25-47.22-.53-6-.94-10.93-1.19-14.32-.12-1.66-.21-3-.28-3.89,0-.43-.05-.76-.06-1A1.55,1.55,0,0,1,249,277.23Z" style="fill:#455a64"></path><path d="M249,277.1a13.94,13.94,0,0,1-3.72-.8,13.58,13.58,0,0,1-3.56-1.29A27.25,27.25,0,0,1,249,277.1Z" style="fill:#455a64"></path><path d="M249.7,266.91a90.45,90.45,0,0,1-1.56-9.51,92.25,92.25,0,0,1-1-9.58,87.43,87.43,0,0,1,1.56,9.51A89.07,89.07,0,0,1,249.7,266.91Z" style="fill:#455a64"></path><path d="M249.7,249.05c-.06,0,.44-.47,1.31-.17a1.47,1.47,0,0,1,1,1.18,1.65,1.65,0,0,1-.85,1.7,1.6,1.6,0,0,1-1.85-.41,1.37,1.37,0,0,1,.64-2.19c.23-.06.37,0,.37,0s-.54.13-.83.8a1,1,0,0,0,.18,1.06,1.15,1.15,0,0,0,1.26.26,1.19,1.19,0,0,0,.6-1.17,1.14,1.14,0,0,0-.64-.91A2.57,2.57,0,0,0,249.7,249.05Z" style="fill:#455a64"></path><polygon points="225.07 149 252.33 146.87 262.85 154.46 256.27 217.2 264.98 247.96 216.2 247.96 209.92 191.42 225.07 149" style="fill:#fafafa"></polygon><path d="M227.89,156.07l.4-10.86h-3.66l-3,4.91-9.85,4.16c-.89.9-9.86,5.07-14,9.85S172.35,225.88,173.85,233c1.13,5.44,13.09,15.08,20.1,20l-.11,1s-.06.8-.07,2c0,2.64.17,7.27,1.6,10.13,2.09,4.18,11,19.69,11,19.69l24.46,16.4s6-20.58,6.86-28.93,0-87.7,0-87.7S228.8,161.46,227.89,156.07Z" style="fill:#3AC3BD"></path><path d="M308.35,220s-13.54-38.25-17.81-50.18-11.58-13-11.58-13l-15.65-6.53L261.92,146H251.61s5.46,5.29,6.06,9.17-6.26,23-6.26,23-2.39,40.57,0,51.61S275,290.31,275,290.31a26.75,26.75,0,0,0,6.17-10.14c2.28-6.56,2.48-18.2,0-31-.25-1.29-.48-2.56-.71-3.81a7.69,7.69,0,0,0,1.46.51c9.78,2.25,13.09,4.61,23-3.86S308.35,220,308.35,220Z" style="fill:#3AC3BD"></path><path d="M221.51,158.65c0,.08-1.33.44-3.45,1.15a64.9,64.9,0,0,0-8.1,3.28,65.83,65.83,0,0,0-7.59,4.34c-1.86,1.24-3,2.08-3,2s.23-.26.71-.67,1.2-1,2.11-1.64a51.81,51.81,0,0,1,7.57-4.51,50.63,50.63,0,0,1,8.22-3.16c1.08-.31,2-.53,2.59-.65A3.78,3.78,0,0,1,221.51,158.65Z" style="fill:#263238"></path><path d="M280.3,166.8a17.34,17.34,0,0,1-2.22-1.47,61.84,61.84,0,0,0-5.43-3.36c-2.19-1.2-4.24-2.14-5.75-2.78a17.75,17.75,0,0,1-2.43-1.08,11,11,0,0,1,2.56.74,41.23,41.23,0,0,1,5.87,2.66,42.76,42.76,0,0,1,5.4,3.52A10.68,10.68,0,0,1,280.3,166.8Z" style="fill:#263238"></path><path d="M223.89,247.16a3.73,3.73,0,0,1,0,1.08,6.66,6.66,0,0,1-.17,1.26,12.86,12.86,0,0,1-.38,1.63,14.16,14.16,0,0,1-.69,1.93,18.54,18.54,0,0,1-1,2.1,19.78,19.78,0,0,1-7.6,7.44,18.21,18.21,0,0,1-2.13,1,16.08,16.08,0,0,1-3.58,1,7.1,7.1,0,0,1-1.26.14,4.73,4.73,0,0,1-1.08,0c0-.12,1.54-.15,3.88-.86a13.19,13.19,0,0,0,1.88-.69,18.52,18.52,0,0,0,2.06-1,20.59,20.59,0,0,0,7.42-7.26,20,20,0,0,0,1.06-2A16.53,16.53,0,0,0,223,251C223.71,248.69,223.78,247.15,223.89,247.16Z" style="fill:#263238"></path><path d="M200.55,179.3a42.47,42.47,0,0,1-1.65-6.44,42.78,42.78,0,0,1-1.14-6.55,42.47,42.47,0,0,1,1.65,6.44A42.78,42.78,0,0,1,200.55,179.3Z" style="fill:#263238"></path><path d="M285,164.88a58.18,58.18,0,0,0-3.66,5.28,58.85,58.85,0,0,0-2.58,5.88,5.58,5.58,0,0,1,.34-1.88,20.34,20.34,0,0,1,1.79-4.26,20.09,20.09,0,0,1,2.69-3.74A5.53,5.53,0,0,1,285,164.88Z" style="fill:#263238"></path><path d="M300.69,220.26a8.84,8.84,0,0,1-1.05-1.09c-.32-.37-.72-.81-1.2-1.3s-1-1.07-1.65-1.66a56.68,56.68,0,0,0-4.58-4,54.54,54.54,0,0,0-12.84-7.43,55.16,55.16,0,0,0-5.74-2c-.83-.26-1.6-.43-2.26-.6s-1.25-.3-1.72-.4a7.75,7.75,0,0,1-1.47-.37,9.48,9.48,0,0,1,1.5.17c.49.07,1.08.16,1.75.32s1.46.28,2.29.52a48,48,0,0,1,5.83,1.9,50.71,50.71,0,0,1,13,7.5,50.17,50.17,0,0,1,4.54,4.1c.63.61,1.14,1.21,1.6,1.73s.84,1,1.14,1.36A7.26,7.26,0,0,1,300.69,220.26Z" style="fill:#263238"></path><path d="M277.33,184c.14,0,.8,4.58,1.46,10.25a99.79,99.79,0,0,1,.95,10.32c-.14,0-.8-4.58-1.46-10.25A103.24,103.24,0,0,1,277.33,184Z" style="fill:#263238"></path><path d="M280.63,245.42a7.26,7.26,0,0,1-1.25-.73,32.84,32.84,0,0,1-3.15-2.36,24,24,0,0,1-4-4.29,24.9,24.9,0,0,1-3.3-6.38,36.74,36.74,0,0,1-1.07-3.56c-.28-1.18-.42-2.32-.64-3.39a9.9,9.9,0,0,0-2.31-5.13,10.15,10.15,0,0,0-3.13-2.23,7.56,7.56,0,0,1-1.3-.6,7,7,0,0,1,1.38.41,9.73,9.73,0,0,1,3.32,2.16,10.13,10.13,0,0,1,2.51,5.29c.23,1.09.39,2.23.67,3.37s.64,2.33,1.06,3.51a25.62,25.62,0,0,0,3.2,6.27,25.18,25.18,0,0,0,3.85,4.29c1.22,1.11,2.3,1.91,3,2.48A8.63,8.63,0,0,1,280.63,245.42Z" style="fill:#263238"></path><path d="M211.76,245.19s-10.85,4.67-7.31,10.4c2.43,3.94,7.45,7.47,7.45,7.47,5.08-2.91,8.65-6,11.12-11.58Z" style="fill:#ffbe9d"></path><path d="M194,253s.7.49,2.11,1.16a17.65,17.65,0,0,0,6.49,1.59l-.16.14a12.33,12.33,0,0,1,2.81-6,19.26,19.26,0,0,1,6.47-4.91h0a5.07,5.07,0,0,0,1.58-1.61,3.5,3.5,0,0,0,.65-2.17,4.74,4.74,0,0,0-1.19-2.1,11.89,11.89,0,0,0-1.92-1.75l0,0,0,0a27.83,27.83,0,0,1-2.85-3.91,35.4,35.4,0,0,0-2.65-4.18c-.43-.57-.88-1.11-1.34-1.67s-.87-1.14-1.27-1.72c-.8-1.16-1.56-2.32-2.29-3.47l0-.05v-.07a65.31,65.31,0,0,1-.22-7.34q.21-3.53.39-6.72c.26-4.25.49-8,.69-11.21s.37-5.64.49-7.43c.07-.83.12-1.5.16-2a5.58,5.58,0,0,1,.08-.69,3.46,3.46,0,0,1,0,.7c0,.5,0,1.16-.07,2-.08,1.79-.2,4.31-.34,7.44s-.35,7-.57,11.21c-.11,2.13-.23,4.38-.36,6.72a64.58,64.58,0,0,0,.25,7.28l0-.11c.73,1.14,1.49,2.29,2.28,3.44.4.58.81,1.15,1.25,1.69s.92,1.11,1.36,1.68a38,38,0,0,1,2.68,4.24,27.9,27.9,0,0,0,2.78,3.84l0,0a12.46,12.46,0,0,1,2,1.83,5.17,5.17,0,0,1,1.29,2.35,2.8,2.8,0,0,1-.16,1.36,6.16,6.16,0,0,1-.57,1.15,5.48,5.48,0,0,1-1.76,1.76h0a19,19,0,0,0-6.34,4.74A12.16,12.16,0,0,0,202.7,256l0,.15h-.14a17.23,17.23,0,0,1-6.55-1.75,11.32,11.32,0,0,1-1.55-.94A3.64,3.64,0,0,1,194,253Z" style="fill:#263238"></path><path d="M200.52,222.79c0,.08-.71-.07-1.83-.09a11.64,11.64,0,0,0-4.24.74,11.88,11.88,0,0,0-3.68,2.26c-.82.76-1.24,1.33-1.31,1.28a4.23,4.23,0,0,1,1-1.54,10.13,10.13,0,0,1,8.21-3.11A4,4,0,0,1,200.52,222.79Z" style="fill:#263238"></path><path d="M235.23,233.51a7.64,7.64,0,0,1-.26-.84l-.65-2.46c-.55-2.14-1.34-5.24-2.18-9.1a128,128,0,0,1-2.32-13.69,72.61,72.61,0,0,1,0-17c.31-3,1.26-5.9.67-8.64s-2.67-4.72-4.06-6.93a32.12,32.12,0,0,1-4.88-22.32c.2-1.09.36-1.93.52-2.49a7.44,7.44,0,0,1,.25-.85,5.17,5.17,0,0,1-.14.87c-.13.57-.26,1.41-.43,2.5a33.52,33.52,0,0,0,.14,9.28,31.78,31.78,0,0,0,4.94,12.74c.69,1.09,1.54,2.12,2.33,3.26a10.84,10.84,0,0,1,1.83,3.84c.62,2.93-.36,5.85-.65,8.8a72.88,72.88,0,0,0,0,16.89A133.4,133.4,0,0,0,232.5,221c.8,3.87,1.52,7,2,9.13.24,1,.42,1.87.56,2.48A5.69,5.69,0,0,1,235.23,233.51Z" style="fill:#263238"></path><path d="M261.92,146a1.51,1.51,0,0,1,.19.38,10.14,10.14,0,0,1,.42,1.15,24.41,24.41,0,0,1,1,4.37,29.92,29.92,0,0,1,.13,6.65,18.67,18.67,0,0,1-2.35,7.8c-1.42,2.5-3,4.78-3.48,7.19s.1,4.63.16,6.53a8.38,8.38,0,0,1-.78,4.41,4.58,4.58,0,0,1-.71,1c-.2.2-.32.28-.33.27a9.21,9.21,0,0,0,.86-1.36,8.67,8.67,0,0,0,.59-4.3c-.07-.93-.23-1.95-.34-3.06a11.48,11.48,0,0,1,.08-3.59c.49-2.54,2.1-4.88,3.5-7.35a18.8,18.8,0,0,0,2.32-7.59,31.6,31.6,0,0,0,0-6.55,28.7,28.7,0,0,0-.8-4.36C262.07,146.58,261.88,146,261.92,146Z" style="fill:#263238"></path><path d="M232.57,295.82a2.45,2.45,0,0,1-.49-.17l-1.38-.57c-1.2-.5-2.92-1.25-5-2.23a89.6,89.6,0,0,1-15.72-9A45.66,45.66,0,0,1,197.7,270.5a30.1,30.1,0,0,1-2.36-5c-.24-.6-.37-1.1-.48-1.42a2.09,2.09,0,0,1-.12-.51,19.73,19.73,0,0,1,.78,1.86,37.43,37.43,0,0,0,2.5,4.86,47.26,47.26,0,0,0,12.24,13.08,99.23,99.23,0,0,0,15.57,9.13l4.95,2.38,1.34.66C232.43,295.71,232.58,295.8,232.57,295.82Z" style="fill:#263238"></path><path d="M282.73,261.08a4.18,4.18,0,0,1,0,1,27.25,27.25,0,0,1-.19,2.8,36.49,36.49,0,0,1-2.18,9,33.19,33.19,0,0,1-4.49,8.09,22.82,22.82,0,0,1-1.81,2.14,4.68,4.68,0,0,1-.75.7c-.07-.06.91-1.14,2.27-3.06a38.08,38.08,0,0,0,4.29-8.06,42.4,42.4,0,0,0,2.31-8.84C282.56,262.54,282.64,261.08,282.73,261.08Z" style="fill:#263238"></path><path d="M231.86,264.38a2.72,2.72,0,0,0-1.31,1.18,2.19,2.19,0,0,0-.09,1.8,2,2,0,0,0,3.55-.16,2.15,2.15,0,0,0-.26-1.78,2.74,2.74,0,0,0-1.41-1.06s.19-.08.53,0a2.16,2.16,0,0,1,1.18.84,2.45,2.45,0,0,1,.42,2.14,2.31,2.31,0,0,1-2.16,1.53,2.29,2.29,0,0,1-2.29-1.33,2.46,2.46,0,0,1,.21-2.16,2.22,2.22,0,0,1,1.1-.95C231.66,264.32,231.86,264.35,231.86,264.38Z" style="fill:#263238"></path><path d="M233.56,249.93a2.68,2.68,0,0,0-1.31,1.18,2.15,2.15,0,0,0-.09,1.8,1.83,1.83,0,0,0,1.82,1,1.86,1.86,0,0,0,1.73-1.16,2.15,2.15,0,0,0-.26-1.78,2.82,2.82,0,0,0-1.41-1.06s.19-.08.53,0a2.19,2.19,0,0,1,1.18.84,2.48,2.48,0,0,1,.41,2.14,2.45,2.45,0,0,1-4.45.2,2.46,2.46,0,0,1,.22-2.16A2.18,2.18,0,0,1,233,250C233.36,249.87,233.56,249.91,233.56,249.93Z" style="fill:#263238"></path><g style="opacity:0.30000000000000004"><path d="M199.68,221.79l.42.25a10,10,0,0,0-14.9,3.43c-.49.95-.78,2.25,0,3a2.08,2.08,0,0,0,2.32.22,8.26,8.26,0,0,0,1.94-1.56,16.54,16.54,0,0,1,11.12-4.47"></path></g><g style="opacity:0.30000000000000004"><path d="M224.18,170.28c.62,5.77,3.55,10.27,2.91,15.79s-2.58,10.81-3.17,16.33a44.05,44.05,0,0,0,3.29,20.69c2.6,6.55,6.36,11.39,10.24,17.28-4.84-15.26-8.35-30.29-7.62-45.78.19-3.93,1.73-8.7,1-12.57-1-5.18-4.95-7.43-6.63-11.74"></path></g><g style="opacity:0.30000000000000004"><path d="M250.5,216.57c.13,2.12,2.67,4.39,4.8,4.44s4.41-.4,6.25.67c2.45,1.43,2.83,4.72,3.23,7.53.93,6.52,3.72,13.16,9.17,16.86a6.38,6.38,0,0,0,3.5,1.32,2.9,2.9,0,0,0,2.87-2,57.74,57.74,0,0,0-4.55-3.58c-3.59-2.34-5.19-6.9-6.41-11-.86-2.92-1.42-6-2.79-8.75-2.67-5.32-6.62-6-16.07-5.44"></path></g><path d="M238.57,85.33s-5.58-1.52-9.89,0-17,24.35-20.8,27.14-6.08,8.62-2.79,13.69,7.61,3.55,6.6,7.87-2,9.63,3.8,9.63,12.94-1.77,13.7-3.55,25.36,5.58,29.17,5.08,9.63-3.69,9.38-6.16,11.67-2.47,10.65-10.33c0,0,2.92-8.12.06-11.16,0,0,8.57-11.92-2.34-12.68s-10-11.59-17.25-18.26C256.07,84,245.42,77,238.57,85.33Z" style="fill:#263238"></path><path d="M226,105.75a18.2,18.2,0,0,1,18.54-18.52A18.74,18.74,0,0,1,262.87,105c.44,8.49.69,17,.34,20.12-1,9.24-6.93,12.28-9.27,13.13a12.06,12.06,0,0,1-2.54.36h0a.06.06,0,0,0-.06.07l1,10.83c.25,7-7.24,8.18-10.87,8.72-5.63.83-12.85-1.17-13.23-8.25Z" style="fill:#ffbe9d"></path><path d="M258.45,111.28a1.48,1.48,0,0,1-1.38,1.55,1.44,1.44,0,0,1-1.61-1.27,1.48,1.48,0,0,1,1.38-1.55A1.44,1.44,0,0,1,258.45,111.28Z" style="fill:#263238"></path><path d="M260.45,107.33c-.18.2-1.36-.58-3-.51s-2.76.91-3,.72.09-.43.59-.83a4.23,4.23,0,0,1,2.35-.82,4.08,4.08,0,0,1,2.37.65C260.35,106.89,260.53,107.24,260.45,107.33Z" style="fill:#263238"></path><path d="M243,111.67a1.49,1.49,0,0,1-1.38,1.55A1.43,1.43,0,0,1,240,112a1.47,1.47,0,0,1,1.38-1.55A1.44,1.44,0,0,1,243,111.67Z" style="fill:#263238"></path><path d="M244.56,108.28c-.18.2-1.36-.58-3-.51s-2.76.92-3,.73.08-.44.59-.83a4.16,4.16,0,0,1,2.35-.82,4,4,0,0,1,2.37.64C244.46,107.85,244.64,108.19,244.56,108.28Z" style="fill:#263238"></path><path d="M251,119.83a10.47,10.47,0,0,1,2.6-.58c.41-.06.8-.15.86-.43a2.12,2.12,0,0,0-.33-1.2c-.44-1-.89-2-1.37-3-1.9-4.33-3.3-7.89-3.12-8s1.86,3.38,3.77,7.71c.45,1.07.89,2.09,1.31,3.06A2.34,2.34,0,0,1,255,119a1,1,0,0,1-.65.62,2.85,2.85,0,0,1-.7.12A10.6,10.6,0,0,1,251,119.83Z" style="fill:#263238"></path><path d="M251.33,138.65s-6.22.76-14.25-3.53c0,0,2.84,8,14.53,6.45Z" style="fill:#eb996e"></path><path d="M250.47,123.68a3,3,0,0,0-2.66-1,2.63,2.63,0,0,0-1.79,1,1.62,1.62,0,0,0,0,1.9,2,2,0,0,0,2.14.44,5.94,5.94,0,0,0,2-1.3,1.67,1.67,0,0,0,.44-.48.54.54,0,0,0,0-.6" style="fill:#eb996e"></path><path d="M246.27,121.12c.26,0,.34,1.7,1.9,2.86s3.42.9,3.45,1.14-.4.35-1.19.41a4.5,4.5,0,0,1-2.87-.85,3.77,3.77,0,0,1-1.49-2.41C246,121.55,246.15,121.12,246.27,121.12Z" style="fill:#263238"></path><path d="M245.15,105.47c-.13.44-1.76.3-3.65.6s-3.4.88-3.67.5c-.12-.18.13-.6.73-1a6.05,6.05,0,0,1,2.69-1,6.25,6.25,0,0,1,2.89.21C244.85,104.93,245.21,105.26,245.15,105.47Z" style="fill:#263238"></path><path d="M259.7,104.1c-.27.38-1.4.05-2.74.09s-2.47.34-2.74,0c-.13-.18,0-.54.51-.91a3.85,3.85,0,0,1,2.2-.68,3.76,3.76,0,0,1,2.22.64C259.64,103.56,259.82,103.92,259.7,104.1Z" style="fill:#263238"></path><path d="M232,88.54a18.75,18.75,0,0,0-7.49,12.57L220,103.69l4.9,38.08-.65.78c2.8.21,6.44-2.27,8.42-4.26a9.88,9.88,0,0,0,2.79-7.65c-.32-3.94-3-7.7-2.11-11.54.6-2.52,2.66-4.49,3.29-7a9.67,9.67,0,0,0-.59-5.65,26.76,26.76,0,0,0,6-6.51c-.26.86-.53,1.71-.8,2.57a19.31,19.31,0,0,0,14.91-13.64C249.83,83.07,239,83.57,232,88.54Z" style="fill:#263238"></path><path d="M256.27,88.58c0,.1-.06.2-.09.3s.05,0,.06.05Z" style="fill:#263238"></path><path d="M203.86,120.53a2.2,2.2,0,0,1,.61-.22l1.76-.51c.77-.23,1.69-.57,2.76-.93s2.27-.85,3.56-1.47a51.67,51.67,0,0,0,17.72-13.19,50.07,50.07,0,0,0,7.22-10.79l.34-.7.1.77c.1.74.2,1.46.29,2.16l-.34-.17a18.65,18.65,0,0,0,7.5-8.77,24.57,24.57,0,0,0,1.26-4.3s0,.1,0,.3,0,.5-.11.88a17.43,17.43,0,0,1-.89,3.22,18.53,18.53,0,0,1-7.51,9.06l-.3.19,0-.35c-.1-.7-.2-1.41-.31-2.15l.45.07a50.46,50.46,0,0,1-25.21,24.11c-1.31.6-2.55,1-3.61,1.41s-2,.64-2.8.84l-1.8.42A4.83,4.83,0,0,1,203.86,120.53Z" style="fill:#455a64"></path><path d="M244.12,100.82c-.06-.06.75-.85,1.89-2.23a32,32,0,0,0,3.85-5.85,31.48,31.48,0,0,0,2.44-6.56c.44-1.74.6-2.85.69-2.84a2.52,2.52,0,0,1,0,.79,18.52,18.52,0,0,1-.32,2.13,26.59,26.59,0,0,1-6.37,12.57,18.79,18.79,0,0,1-1.53,1.51C244.37,100.67,244.15,100.84,244.12,100.82Z" style="fill:#455a64"></path><path d="M266,204.6a16.54,16.54,0,0,1-1.15-6,11.25,11.25,0,0,0-.45-3.66c-.41-1.15-1.72-2.23-2.91-1.94l-.43,9Z" style="fill:#ffbe9d"></path><path d="M261.92,183.84,260.45,215a1.34,1.34,0,0,1-1.21,1.27l-15.78,1.64a1.35,1.35,0,0,1-1.48-1.36l.53-30.09a1.35,1.35,0,0,1,1.14-1.3l16.72-2.68A1.33,1.33,0,0,1,261.92,183.84Z" style="fill:#263238"></path><path d="M251,190.17a1,1,0,0,1,1.14-.81,1,1,0,0,1,.86.71,1.15,1.15,0,0,1-.4,1.14,1.06,1.06,0,0,1-1.19.07A1,1,0,0,1,251,190.17Z" style="fill:#fafafa"></path><path d="M255.05,196.18c.36,0,9.05,2.9,9.05,2.9l4.89,3.76a8.66,8.66,0,0,1,1.33,6.5c-.6,4.19-2.38,5.91-6.81,7.78h-8.95l-5-2.93a2.77,2.77,0,0,1-1.34-2.81l0-.2-.63-.75a1.52,1.52,0,0,1-.19-1.69h0a1.53,1.53,0,0,1,2.06-.66l5.55,2.84,3.5-.09.33-1.2-5.43-1.81-7.16-3.92a1.9,1.9,0,0,1-.71-2.65h0a1.9,1.9,0,0,1,2.32-.78l6.47,2.54,6.62,1.75-1.36-2.3-8.13-4.23S250.52,195.75,255.05,196.18Z" style="fill:#ffbe9d"></path><path d="M269,202.84a38.88,38.88,0,0,1-5.05-3.55l.08,0-.33-.11a40.58,40.58,0,0,1-6.11-2.27,40.68,40.68,0,0,1,6.27,1.78l.33.11h.05l0,0A36.88,36.88,0,0,1,269,202.84Z" style="fill:#eb996e"></path><path d="M260.91,214a6.31,6.31,0,0,1-1.84.72,7.44,7.44,0,0,1-4.8,0,18.23,18.23,0,0,1-2.38-1.15l-1.86-1a7.09,7.09,0,0,1-1.65-1.08,7.75,7.75,0,0,1,1.82.75l1.92.94a25.32,25.32,0,0,0,2.33,1.1,8,8,0,0,0,4.53.14A8.72,8.72,0,0,1,260.91,214Z" style="fill:#eb996e"></path></g><g id="freepik--character-1--inject-42"><path d="M180.43,181.16c-.08.12-9.4-5.52-20.82-12.59s-20.63-12.91-20.55-13,9.4,5.51,20.82,12.59S180.5,181,180.43,181.16Z" style="fill:#263238"></path><circle cx="96.04" cy="124.59" r="53.27" style="fill:#fff"></circle><path d="M103.56,91.06a13.56,13.56,0,0,0-19.78-.25c-2.48,2.56-4,6.17-7.21,7.77s-7.08.89-9.77,3c-4.77,3.81-1.28,12.63-5.63,16.92-2.4,2.36-6.8,2.87-7.73,6.1s2.81,6.47,2.45,9.93c-.22,2.06-1.84,3.66-2.67,5.56a7.75,7.75,0,0,0,3.46,9.65,19.43,19.43,0,0,1,3.42,1.69c2.15,1.76,2,5,3,7.62a8.28,8.28,0,0,0,8.74,4.9,9.69,9.69,0,0,1,3.44-.4c2.8.55,3.82,4.6,6.62,5.08,1.83.31,3.5-1.08,4.61-2.57s2-3.21,3.66-4.1c2-1.1,4.51-.59,6.79-.19a16.17,16.17,0,0,0,6.08.17,6.88,6.88,0,0,0,4.84-3.38c.81-1.59.82-3.59,2-4.88s3.15-1.39,4.84-1,3.29,1.1,5,1.34a8.6,8.6,0,0,0,9.71-9.81c-.2-1.27-.68-2.58-.34-3.82.47-1.71,2.27-2.63,3.59-3.82a8.64,8.64,0,0,0,0-12.29c-1.25-1.14-3-2.07-3.26-3.73-.37-2.16,1.95-4,1.92-6.17,0-2.41-2.73-3.77-5-4.4s-5.07-1.39-5.86-3.66c-.41-1.16-.18-2.45-.53-3.63a6.09,6.09,0,0,0-3.7-3.47,26.16,26.16,0,0,1-4-2.47c-2.15-1.36-2.93-4.65-4.8-6.37s-5-1.45-6.94.14" style="fill:#263238"></path><path d="M62.61,165.83S67,149.82,85.67,147s20.19-3.44,20.19-3.44,22.79-4.21,28.28,18.21c0,0-8.21,11.53-30.76,15.62C80.55,181.49,62.61,165.83,62.61,165.83Z" style="fill:#3AC3BD"></path><path d="M79.59,110A16.68,16.68,0,0,1,95.27,91.82a17.16,17.16,0,0,1,18,15c1,7.73,1.79,15.53,1.68,18.36-.33,8.51-5.5,11.69-7.58,12.63a11.23,11.23,0,0,1-2.3.5h0a.06.06,0,0,0,0,.06l1.67,9.83c.7,6.43-3.09,12-9.63,12.8s-11.53-4.29-12.36-10.73Z" style="fill:#936754"></path><path d="M111.22,111.89a1.37,1.37,0,0,1-1.16,1.51,1.32,1.32,0,0,1-1.56-1.05,1.36,1.36,0,0,1,1.16-1.51A1.32,1.32,0,0,1,111.22,111.89Z" style="fill:#263238"></path><path d="M111.19,109.43c-.15.2-1.28-.44-2.75-.26s-2.47,1-2.65.86,0-.4.48-.8a3.91,3.91,0,0,1,2.09-.91,3.78,3.78,0,0,1,2.22.43C111.07,109,111.26,109.34,111.19,109.43Z" style="fill:#263238"></path><path d="M96.76,114a1.35,1.35,0,0,1-1.15,1.51,1.32,1.32,0,0,1-1.56-1A1.36,1.36,0,0,1,95.2,113,1.32,1.32,0,0,1,96.76,114Z" style="fill:#263238"></path><path d="M96.74,111.5c-.15.19-1.28-.44-2.75-.27s-2.47,1-2.65.87,0-.41.48-.8a3.76,3.76,0,0,1,2.09-.91,3.71,3.71,0,0,1,2.22.43C96.62,111.11,96.81,111.41,96.74,111.5Z" style="fill:#263238"></path><path d="M103.39,121.16a9.53,9.53,0,0,1,2.34-.7c.37-.09.72-.2.75-.46a1.88,1.88,0,0,0-.38-1.07l-1.46-2.68c-2-3.83-3.55-7-3.39-7.07s1.93,3,4,6.78l1.41,2.71a2.17,2.17,0,0,1,.37,1.43.93.93,0,0,1-.56.61,2.47,2.47,0,0,1-.62.16A10.31,10.31,0,0,1,103.39,121.16Z" style="fill:#263238"></path><path d="M105,138.33s-5.63,1.12-13.26-2.25c0,0,3.15,7.13,13.71,4.9Z" style="fill:#7c5142"></path><path d="M97.09,108.44c-.09.41-1.59.39-3.29.8s-3,1-3.32.7c-.12-.16.08-.56.59-1a6,6,0,0,1,5-1.15C96.78,108,97.13,108.24,97.09,108.44Z" style="fill:#263238"></path><path d="M110.29,106.2c-.22.36-1.28.13-2.5.26s-2.23.48-2.51.17c-.12-.16,0-.51.42-.87a3.69,3.69,0,0,1,4-.34C110.2,105.7,110.38,106,110.29,106.2Z" style="fill:#263238"></path><path d="M106.1,92.25A17.67,17.67,0,0,1,93.34,106c.19-.8.38-1.6.56-2.4a25,25,0,0,1-14,11.58,17.35,17.35,0,0,1,4-21.31c6.11-5,16-6.23,22.19-1.3" style="fill:#263238"></path><path d="M86.45,111c-1.48,2.67-.87,5.94.07,8.83s2.17,5.83,1.83,8.84c-.32,2.79-2,5.32-2.35,8.1-.61,4.69,2.48,9,3.67,13.65a17.89,17.89,0,0,1-4.78,16.9,2.4,2.4,0,0,1-1.68.87,1.7,1.7,0,0,1-1.46-1.44,7,7,0,0,1,.11-2.13c.78-6.74-6-12.32-6.8-19.06-.54-4.37,1.49-8.64,1.9-13,.5-5.52-1.57-10.94-2.14-16.46a12,12,0,0,1,.48-5.61,6,6,0,0,1,4.15-3.8c2-.43,4.29.58,4.84,2.41" style="fill:#263238"></path><path d="M149.31,124.59s0-.29-.07-.86-.09-1.43-.16-2.53c0-.56-.07-1.18-.11-1.86s-.21-1.43-.33-2.23-.26-1.67-.41-2.6a8.27,8.27,0,0,0-.3-1.41c-.13-.48-.26-1-.39-1.49a50.49,50.49,0,0,0-5.89-14.15,53,53,0,0,0-13.5-15.07l-2.29-1.71c-.81-.53-1.66-1-2.49-1.53s-1.67-1.08-2.59-1.49L118,76.33c-.46-.22-.92-.45-1.4-.66l-1.47-.54-3-1.09c-1-.33-2.07-.55-3.12-.84a26.63,26.63,0,0,0-3.21-.72,49.2,49.2,0,0,0-6.71-.78c-1.14,0-2.3-.15-3.46-.13l-3.51.18c-.59,0-1.18,0-1.77.11l-1.77.27c-1.18.2-2.38.34-3.57.58A57.39,57.39,0,0,0,78,74.78l-1.76.65c-.29.11-.59.21-.88.33l-.85.41-3.42,1.65c-1.12.61-2.2,1.32-3.3,2-.55.35-1.13.65-1.64,1L64.56,82a59.17,59.17,0,0,0-6,5.11l-2.69,3-.68.74-.61.81-1.22,1.62-1.21,1.63-1.07,1.75L50,98.38l-.53.89c-.16.3-.3.61-.46.92-.59,1.24-1.19,2.49-1.8,3.74s-1,2.61-1.44,3.93A56.67,56.67,0,0,0,43,124.58a56.41,56.41,0,0,0,2.73,16.73l1.44,3.93L49,149l.45.93.54.88,1.06,1.75,1.07,1.75,1.22,1.63,1.21,1.63.61.8.68.75,2.7,3a60.16,60.16,0,0,0,6,5.11l1.56,1.17c.52.39,1.1.69,1.64,1,1.11.66,2.19,1.37,3.31,2L74.48,173l.85.41c.29.12.59.22.88.33l1.76.64a55.42,55.42,0,0,0,7.08,2.08c1.18.24,2.38.38,3.56.58l1.77.27c.59.08,1.19.07,1.77.11l3.52.18c1.16,0,2.31-.09,3.45-.13a49,49,0,0,0,6.71-.78A26.23,26.23,0,0,0,109,176c1-.28,2.11-.5,3.13-.83l3-1.09,1.48-.54,1.4-.67,2.75-1.32c.92-.42,1.73-1,2.59-1.5s1.69-1,2.49-1.53l2.3-1.71a52.92,52.92,0,0,0,13.49-15.07,50.44,50.44,0,0,0,5.89-14.14c.13-.51.26-1,.39-1.49a8.18,8.18,0,0,0,.3-1.42l.41-2.59c.12-.81.26-1.54.33-2.23s.08-1.3.11-1.86c.07-1.1.12-1.94.16-2.53s.07-.86.07-.86,0,.29,0,.86-.06,1.43-.1,2.54c0,.56-.06,1.18-.09,1.87s-.19,1.42-.3,2.23l-.39,2.61a9.18,9.18,0,0,1-.29,1.42c-.13.49-.25,1-.38,1.5a50.55,50.55,0,0,1-5.84,14.24,53,53,0,0,1-13.52,15.22l-2.3,1.72c-.81.54-1.67,1-2.51,1.55a29.16,29.16,0,0,1-2.61,1.52l-2.77,1.34-1.41.67-1.48.55-3,1.1c-1,.34-2.09.56-3.14.86a29.27,29.27,0,0,1-3.24.74,48.38,48.38,0,0,1-6.76.79c-1.15.05-2.32.16-3.49.15l-3.54-.18c-.59,0-1.19,0-1.79-.11l-1.78-.27c-1.19-.2-2.4-.34-3.6-.58a58.47,58.47,0,0,1-7.14-2.08L76,174.2c-.29-.11-.59-.21-.89-.34l-.86-.41-3.45-1.66c-1.14-.61-2.22-1.33-3.34-2-.55-.35-1.13-.65-1.66-1l-1.57-1.18a59.06,59.06,0,0,1-6.08-5.16l-2.72-3-.69-.75-.61-.82-1.23-1.64-1.23-1.64-1.08-1.77L49.54,151l-.54-.89-.46-.93c-.6-1.26-1.21-2.52-1.82-3.78s-1-2.64-1.45-4a53.09,53.09,0,0,1,0-33.79l1.46-4L48.55,100c.15-.31.29-.62.46-.93l.54-.89,1.07-1.77L51.7,94.6,52.93,93l1.23-1.64.62-.81.68-.75,2.72-3a60,60,0,0,1,6.08-5.15l1.58-1.18c.52-.39,1.1-.69,1.65-1,1.12-.67,2.21-1.38,3.34-2l3.46-1.66.85-.42L76,75l1.78-.65A58,58,0,0,1,85,72.25c1.2-.24,2.41-.38,3.6-.58l1.78-.27c.6-.08,1.2-.07,1.79-.11l3.54-.18c1.17,0,2.33.1,3.49.14a49.93,49.93,0,0,1,6.76.8,29.09,29.09,0,0,1,3.23.74c1.06.29,2.13.51,3.15.85l3,1.11,1.48.54c.48.22.94.45,1.41.68L121,77.31c.93.42,1.74,1,2.6,1.51s1.7,1,2.51,1.55l2.31,1.73A53.14,53.14,0,0,1,141.9,97.31a50.72,50.72,0,0,1,5.84,14.25c.13.51.25,1,.38,1.5a9.18,9.18,0,0,1,.29,1.42c.14.93.27,1.8.38,2.61s.25,1.55.31,2.23.06,1.31.09,1.87c0,1.11.07,2,.1,2.54S149.31,124.59,149.31,124.59Z" style="fill:#263238"></path><path d="M103.81,124.42c-.86,0-1.72-.09-2.58-.1a2.07,2.07,0,0,0-1,.16,1.48,1.48,0,0,0-.69,1.18,2.63,2.63,0,0,0,5.09,1.18" style="fill:#7c5142"></path><path d="M103.94,127.91a2.14,2.14,0,0,1-1.48.76,3.44,3.44,0,0,1-1.81-.48,1.91,1.91,0,0,1-.84-.81,3.22,3.22,0,0,1-.31-1.16,4.2,4.2,0,0,1,.1-1.19,1.08,1.08,0,0,1,.31-.61.64.64,0,0,1,.37-.12l.26,0,1.77,0a5,5,0,0,1,1.63.1,5,5,0,0,1-1.61.26l-1.75.15-.24,0-.1,0s0,0,0,0a.2.2,0,0,0,0-.08l0,0c0,.06-.1-.16.1.14h0a.65.65,0,0,0-.13.34,4,4,0,0,0-.08,1,2.89,2.89,0,0,0,.25,1,1.48,1.48,0,0,0,.62.62,3.55,3.55,0,0,0,1.54.52A9.75,9.75,0,0,0,103.94,127.91Z" style="fill:#263238"></path></g></svg>