<?xml version="1.0" encoding="UTF-8" standalone="no"?>
<!DOCTYPE svg PUBLIC "-//W3C//DTD SVG 1.1//EN" "http://www.w3.org/Graphics/SVG/1.1/DTD/svg11.dtd">
<svg width="100%" height="100%" viewBox="0 0 243 192" version="1.1" xmlns="http://www.w3.org/2000/svg" xmlns:xlink="http://www.w3.org/1999/xlink" xml:space="preserve" xmlns:serif="http://www.serif.com/" style="fill-rule:evenodd;clip-rule:evenodd;stroke-linejoin:round;stroke-miterlimit:2;">
    <g transform="matrix(1,0,0,1,-11.46,-0.001)">
        <path d="M95.01,57.685C141.035,41.129 175.679,-31.136 229.939,27.075C284.199,85.286 239.176,173.509 173.905,183.944C108.634,194.379 33.05,165.944 19.48,119.529C-3.709,40.223 64.135,68.791 95.01,57.685Z" style="fill:rgb(240,240,240);fill-rule:nonzero;"/>
    </g>
    <g transform="matrix(1,0,0,1,-11.46,-0.001)">
        <path d="M91.727,52.907C137.753,36.352 172.4,-35.914 226.659,22.3C280.918,80.514 235.896,168.734 170.625,179.169C105.354,189.604 29.77,161.169 16.2,114.754C-6.991,35.445 60.852,64.013 91.727,52.907Z" style="fill:url(#_Linear1);fill-rule:nonzero;"/>
    </g>
    <g transform="matrix(0.33976,0,0,0.33976,-5.49855,7.17697)">
        <path d="M548.25,90.06L546,86.42C527.38,55.74 493.71,37.24 458.22,39.48C453.65,39.768 449.108,40.393 444.63,41.35C412.36,48.26 384.28,72.66 372.63,103.92C365.79,122.3 363.87,143.46 350.88,158.05C333.98,177.05 305.28,177.64 280.04,176.85C254.8,176.06 226.09,176.73 209.26,195.85C198.73,207.79 195.38,224.76 196.26,240.75C198.51,283.08 228,320.93 265.52,339.75C303.04,358.57 347.2,360.24 388.25,351.97C445.76,340.37 500.46,308.54 533.33,259.36C566.2,210.18 574.55,143.14 548.25,90.06Z" style="fill:rgb(235,235,235);fill-rule:nonzero;"/>
    </g>
    <g transform="matrix(0.240246,-0.240246,0.240246,0.240246,-2.86542,81.7984)">
        <circle cx="268.99" cy="100.46" r="28.11" style="fill:rgb(235,235,235);"/>
    </g>
    <g transform="matrix(0.33976,0,0,0.33976,-5.49855,7.17697)">
        <path d="M127,370.64C126.91,370.75 126.16,370.3 125.32,369.64C124.48,368.98 123.88,368.34 123.97,368.23C124.06,368.12 124.81,368.57 125.65,369.23C126.49,369.89 127.06,370.53 127,370.64Z" style="fill:rgb(38,50,56);fill-rule:nonzero;"/>
    </g>
    <g transform="matrix(0.33976,0,0,0.33976,-5.49855,7.17697)">
        <path d="M149.77,336.56C149.91,333.38 150,330.11 148.99,327.09C147.98,324.07 145.65,321.28 142.53,320.64C138.97,319.9 135.32,322.15 133.33,325.19C131.34,328.23 130.64,331.92 130.05,335.51C125.987,360.266 124.493,385.376 125.59,410.44L140.16,412.44C146.56,386.33 148.61,363.46 149.77,336.56Z" style="fill:rgb(69,90,100);fill-rule:nonzero;"/>
    </g>
    <g transform="matrix(0.33976,0,0,0.33976,-5.49855,7.17697)">
        <path d="M140.51,320.52C140.51,320.52 140.51,320.61 140.44,320.76C140.37,320.91 140.3,321.15 140.2,321.42C139.97,322.03 139.64,322.87 139.2,323.94C139,324.48 138.73,325.08 138.51,325.76C138.29,326.44 138.06,327.18 137.8,327.96C137.54,328.74 137.28,329.6 136.99,330.5C136.7,331.4 136.5,332.38 136.24,333.39C135.02,338.138 134.079,342.953 133.42,347.81C132.63,353.29 132.11,359.37 131.71,365.74C130.96,378.51 130.85,390.11 130.52,398.49C130.36,402.68 130.22,406.07 130.06,408.41C129.98,409.55 129.92,410.41 129.87,411.11C129.87,411.39 129.87,411.62 129.81,411.81C129.816,411.887 129.816,411.963 129.81,412.04C129.795,411.961 129.795,411.879 129.81,411.8L129.81,411.1C129.81,410.44 129.81,409.54 129.89,408.4C129.99,406.06 130.08,402.67 130.19,398.48C130.42,390.1 130.48,378.48 131.19,365.71C131.59,359.32 132.13,353.24 132.94,347.71C133.627,342.838 134.609,338.013 135.88,333.26L136.67,330.37C136.97,329.47 137.26,328.63 137.53,327.83C137.8,327.03 138.05,326.31 138.28,325.63C138.51,324.95 138.8,324.37 139.01,323.82L140.08,321.34L140.37,320.7C140.407,320.633 140.454,320.572 140.51,320.52Z" style="fill:rgb(38,50,56);fill-rule:nonzero;"/>
    </g>
    <g transform="matrix(0.33976,0,0,0.33976,-5.49855,7.17697)">
        <path d="M141.86,320.53C142.616,321.424 143.217,322.438 143.64,323.53C144.772,326.551 145.236,329.782 145,333C144.61,341 143.89,352.15 142.93,364.4C141.97,376.65 140.93,387.73 140.04,395.74C139.61,399.74 139.24,402.98 138.96,405.22C138.83,406.3 138.72,407.16 138.63,407.79L138.54,408.46C138.533,408.536 138.513,408.611 138.48,408.68C138.467,408.604 138.467,408.526 138.48,408.45C138.48,408.27 138.48,408.05 138.53,407.78C138.59,407.14 138.66,406.28 138.76,405.2C138.98,402.91 139.29,399.68 139.67,395.7C140.44,387.7 141.45,376.61 142.41,364.36C143.37,352.11 144.12,341 144.6,333C144.873,329.841 144.481,326.659 143.45,323.66C143.018,322.57 142.486,321.522 141.86,320.53Z" style="fill:rgb(38,50,56);fill-rule:nonzero;"/>
    </g>
    <g transform="matrix(0.33976,0,0,0.33976,-5.49855,7.17697)">
        <path d="M152,358.25C151.041,358.186 150.102,357.945 149.23,357.54C148.306,357.294 147.433,356.888 146.65,356.34C147.606,356.405 148.542,356.646 149.41,357.05C150.336,357.297 151.213,357.703 152,358.25Z" style="fill:rgb(38,50,56);fill-rule:nonzero;"/>
    </g>
    <g transform="matrix(0.33976,0,0,0.33976,-5.49855,7.17697)">
        <path d="M153.72,343.4C152.05,344.524 150.2,345.353 148.25,345.85C149.92,344.726 151.77,343.897 153.72,343.4Z" style="fill:rgb(38,50,56);fill-rule:nonzero;"/>
    </g>
    <g transform="matrix(0.33976,0,0,0.33976,-5.49855,7.17697)">
        <path d="M152.81,331.28C152.105,331.482 151.362,331.52 150.64,331.39C149.905,331.422 149.172,331.281 148.5,330.98C149.205,330.778 149.948,330.74 150.67,330.87C151.406,330.833 152.14,330.973 152.81,331.28Z" style="fill:rgb(38,50,56);fill-rule:nonzero;"/>
    </g>
    <g transform="matrix(0.33976,0,0,0.33976,-5.49855,7.17697)">
        <path d="M137.77,323.51C137.65,323.59 137.01,322.79 136.35,321.73C135.866,321.131 135.524,320.43 135.35,319.68C135.47,319.6 136.11,320.4 136.78,321.46C137.259,322.061 137.597,322.761 137.77,323.51Z" style="fill:rgb(38,50,56);fill-rule:nonzero;"/>
    </g>
    <g transform="matrix(0.33976,0,0,0.33976,-5.49855,7.17697)">
        <path d="M132.8,330.84C132.138,331.078 131.428,331.153 130.73,331.06C129.59,331.06 128.67,330.9 128.67,330.75C130.033,330.44 131.452,330.47 132.8,330.84Z" style="fill:rgb(38,50,56);fill-rule:nonzero;"/>
    </g>
    <g transform="matrix(0.33976,0,0,0.33976,-5.49855,7.17697)">
        <path d="M129.23,345.51C128.468,345.472 127.724,345.267 127.05,344.91C125.9,344.45 125.05,343.91 125.05,343.83C125.813,343.861 126.559,344.066 127.23,344.43C128.4,344.89 129.29,345.37 129.23,345.51Z" style="fill:rgb(38,50,56);fill-rule:nonzero;"/>
    </g>
    <g transform="matrix(0.33976,0,0,0.33976,-5.49855,7.17697)">
        <path d="M128.85,357.84C128.85,357.98 128.05,358.28 127,358.5C125.95,358.72 125.06,358.78 125,358.64C124.94,358.5 125.8,358.21 126.85,357.99C127.9,357.77 128.82,357.7 128.85,357.84Z" style="fill:rgb(38,50,56);fill-rule:nonzero;"/>
    </g>
    <g transform="matrix(0.33976,0,0,0.33976,-5.49855,7.17697)">
        <path d="M127.17,378C127.17,378.14 126.32,378.42 125.17,378.62C124.502,378.823 123.794,378.857 123.11,378.72C123.11,378.58 123.97,378.31 125.11,378.11C125.778,377.907 126.485,377.869 127.17,378Z" style="fill:rgb(38,50,56);fill-rule:nonzero;"/>
    </g>
    <g transform="matrix(0.33976,0,0,0.33976,-5.49855,7.17697)">
        <path d="M126.06,389.16C126.12,389.29 125.39,389.81 124.42,390.32C123.45,390.83 122.6,391.15 122.53,391.02C122.46,390.89 123.2,390.38 124.17,389.86C125.14,389.34 126,389 126.06,389.16Z" style="fill:rgb(38,50,56);fill-rule:nonzero;"/>
    </g>
    <g transform="matrix(0.33976,0,0,0.33976,-5.49855,7.17697)">
        <path d="M135.15,401.8C135.03,401.87 134.39,400.99 133.72,399.8C133.24,399.128 132.9,398.366 132.72,397.56C132.85,397.49 133.49,398.38 134.15,399.56C134.642,400.225 134.983,400.99 135.15,401.8Z" style="fill:rgb(38,50,56);fill-rule:nonzero;"/>
    </g>
    <g transform="matrix(0.33976,0,0,0.33976,-5.49855,7.17697)">
        <path d="M137.78,380.79C137.88,380.9 137.16,381.79 136.18,382.72C135.2,383.65 134.33,384.38 134.18,384.27C134.03,384.16 134.8,383.27 135.78,382.35C136.76,381.43 137.68,380.69 137.78,380.79Z" style="fill:rgb(38,50,56);fill-rule:nonzero;"/>
    </g>
    <g transform="matrix(0.33976,0,0,0.33976,-5.49855,7.17697)">
        <path d="M137.2,369.77C137.09,369.87 136.43,369.32 135.72,368.56C135.01,367.8 134.52,367.09 134.62,366.99C134.72,366.89 135.39,367.44 136.1,368.2C136.81,368.96 137.3,369.67 137.2,369.77Z" style="fill:rgb(38,50,56);fill-rule:nonzero;"/>
    </g>
    <g transform="matrix(0.33976,0,0,0.33976,-5.49855,7.17697)">
        <path d="M139,355.68C139.11,355.78 138.51,356.62 137.67,357.56C136.83,358.5 136.06,359.18 135.96,359.08C135.86,358.98 136.44,358.15 137.28,357.21C138.12,356.27 138.89,355.59 139,355.68Z" style="fill:rgb(38,50,56);fill-rule:nonzero;"/>
    </g>
    <g transform="matrix(0.33976,0,0,0.33976,-5.49855,7.17697)">
        <path d="M140,345.46C139.89,345.57 139.06,344.91 138.14,344.01C137.22,343.11 136.55,342.28 136.65,342.18C136.75,342.08 137.58,342.73 138.51,343.64C139.44,344.55 140.12,345.36 140,345.46Z" style="fill:rgb(38,50,56);fill-rule:nonzero;"/>
    </g>
    <g transform="matrix(0.33976,0,0,0.33976,-5.49855,7.17697)">
        <path d="M142,331.65C141.849,332.398 141.531,333.102 141.07,333.71C140.43,334.78 139.82,335.59 139.69,335.52C139.845,334.77 140.163,334.064 140.62,333.45C141.27,332.38 141.89,331.57 142,331.65Z" style="fill:rgb(38,50,56);fill-rule:nonzero;"/>
    </g>
    <g transform="matrix(0.33976,0,0,0.33976,-5.49855,7.17697)">
        <path d="M145.76,318.84C145.89,318.91 145.52,319.84 144.94,320.91C144.36,321.98 143.79,322.8 143.66,322.73C143.53,322.66 143.9,321.73 144.48,320.66C145.06,319.59 145.64,318.77 145.76,318.84Z" style="fill:rgb(38,50,56);fill-rule:nonzero;"/>
    </g>
    <g transform="matrix(0.33976,0,0,0.33976,-5.49855,7.17697)">
        <path d="M150,324.66C150.07,324.79 149.48,325.19 148.7,325.57C147.92,325.95 147.24,326.14 147.17,326.01C147.1,325.88 147.7,325.47 148.48,325.1C149.26,324.73 150,324.53 150,324.66Z" style="fill:rgb(38,50,56);fill-rule:nonzero;"/>
    </g>
    <g transform="matrix(0.33976,0,0,0.33976,-5.49855,7.17697)">
        <path d="M150.13,370.64C149.136,370.66 148.154,370.422 147.28,369.95C146.334,369.64 145.481,369.096 144.8,368.37C145.726,368.652 146.623,369.021 147.48,369.47C148.397,369.778 149.285,370.169 150.13,370.64Z" style="fill:rgb(38,50,56);fill-rule:nonzero;"/>
    </g>
    <g transform="matrix(0.33976,0,0,0.33976,-5.49855,7.17697)">
        <path d="M148.39,380.38C147.785,380.754 147.099,380.977 146.39,381.03C145.743,381.231 145.058,381.276 144.39,381.16C144.39,381.02 145.24,380.73 146.39,380.52C147.036,380.315 147.722,380.267 148.39,380.38Z" style="fill:rgb(38,50,56);fill-rule:nonzero;"/>
    </g>
    <g transform="matrix(0.33976,0,0,0.33976,-5.49855,7.17697)">
        <path d="M146.25,397.08C145.349,396.645 144.582,395.975 144.03,395.14C143.343,394.408 142.86,393.508 142.63,392.53C143.296,393.235 143.899,393.998 144.43,394.81C145.096,395.517 145.705,396.276 146.25,397.08Z" style="fill:rgb(38,50,56);fill-rule:nonzero;"/>
    </g>
    <g transform="matrix(0.33976,0,0,0.33976,-5.49855,7.17697)">
        <path d="M122.82,404.72C122.72,404.61 123.32,403.95 124.14,403.25C124.96,402.55 125.71,402.06 125.8,402.17C125.89,402.28 125.3,402.94 124.48,403.64C123.66,404.34 122.91,404.83 122.82,404.72Z" style="fill:rgb(38,50,56);fill-rule:nonzero;"/>
    </g>
    <g transform="matrix(0.33976,0,0,0.33976,-5.49855,7.17697)">
        <path d="M116.08,368.27C115.08,365.27 113.35,361.86 110.24,361.81C108.361,361.917 106.683,363.042 105.87,364.74C105.023,366.395 104.616,368.242 104.69,370.1C105.077,383.29 107.326,396.359 111.37,408.92L122.75,408.92C122.619,395.109 120.37,381.399 116.08,368.27Z" style="fill:rgb(69,90,100);fill-rule:nonzero;"/>
    </g>
    <g transform="matrix(0.33976,0,0,0.33976,-5.49855,7.17697)">
        <path d="M95.5,349.62C93.91,343.26 89.17,339.83 83.66,339.51C78.66,340.39 76.66,345.34 76.08,350.41C75.5,355.48 77.08,360.53 78.61,365.41C83.603,381.023 88.603,396.64 93.61,412.26L107.77,410.71C103.27,389.78 100.69,370.38 95.5,349.62Z" style="fill:rgb(69,90,100);fill-rule:nonzero;"/>
    </g>
    <g transform="matrix(0.33976,0,0,0.33976,-5.49855,7.17697)">
        <path d="M110.24,361.81C109.868,362.321 109.533,362.859 109.24,363.42C108.666,365.02 108.485,366.735 108.71,368.42C108.93,370.59 109.18,373.19 109.54,376.04C109.9,378.89 110.42,382.04 111.06,385.3C112.35,391.84 113.8,397.71 114.72,401.98C115.19,404.12 115.54,405.86 115.72,407.06C115.81,407.61 115.89,408.06 115.96,408.45C115.978,408.613 115.978,408.777 115.96,408.94C115.886,408.791 115.833,408.633 115.8,408.47C115.71,408.1 115.6,407.65 115.47,407.1C115.17,405.83 114.76,404.1 114.27,402.1C113.27,397.85 111.75,391.99 110.46,385.43C109.82,382.16 109.32,379.01 108.97,376.13C108.79,374.7 108.67,373.33 108.55,372.04C108.43,370.75 108.31,369.58 108.25,368.48C108.05,366.733 108.297,364.964 108.97,363.34C109.276,362.743 109.71,362.221 110.24,361.81Z" style="fill:rgb(38,50,56);fill-rule:nonzero;"/>
    </g>
    <g transform="matrix(0.33976,0,0,0.33976,-5.49855,7.17697)">
        <path d="M83.86,339.1C83.237,339.826 82.666,340.595 82.15,341.4C80.845,343.66 80.107,346.203 80,348.81C79.939,352.682 80.534,356.537 81.76,360.21C83,364.42 84.36,369.04 85.76,373.9L93,398.81L95.14,406.37C95.37,407.23 95.56,407.91 95.7,408.43C95.769,408.67 95.822,408.913 95.86,409.16C95.745,408.938 95.658,408.703 95.6,408.46C95.43,407.95 95.22,407.27 94.95,406.46L92.65,398.94C90.74,392.53 88.14,383.76 85.26,374.08C83.84,369.22 82.49,364.59 81.26,360.37C80.047,356.644 79.488,352.736 79.61,348.82C79.752,346.151 80.575,343.562 82,341.3C82.492,340.467 83.121,339.724 83.86,339.1Z" style="fill:rgb(38,50,56);fill-rule:nonzero;"/>
    </g>
    <g transform="matrix(0.33976,0,0,0.33976,-5.49855,7.17697)">
        <path d="M104.66,409.19C104.529,408.976 104.421,408.748 104.34,408.51C104.15,408.06 103.85,407.4 103.53,406.51C102.86,404.77 101.99,402.21 101.1,398.99C100.21,395.77 99.31,391.9 98.46,387.57C97.61,383.24 96.74,378.48 95.79,373.49C94.84,368.5 93.71,363.79 92.44,359.58C91.341,355.847 89.961,352.203 88.31,348.68C87.199,346.302 85.926,344.004 84.5,341.8C84.01,341 83.57,340.43 83.3,340.02C83.148,339.821 83.017,339.606 82.91,339.38C83.086,339.56 83.246,339.754 83.39,339.96C83.68,340.35 84.15,340.91 84.66,341.69C86.171,343.858 87.509,346.141 88.66,348.52C90.37,352.04 91.794,355.692 92.92,359.44C94.291,364.029 95.426,368.685 96.32,373.39C97.26,378.39 98.14,383.15 98.95,387.48C99.76,391.81 100.62,395.68 101.47,398.9C102.32,402.12 103.13,404.68 103.74,406.44C104.03,407.33 104.3,408 104.46,408.44C104.552,408.683 104.619,408.934 104.66,409.19Z" style="fill:rgb(38,50,56);fill-rule:nonzero;"/>
    </g>
    <g transform="matrix(0.33976,0,0,0.33976,-5.49855,7.17697)">
        <path d="M78.86,363.06C78.86,363.2 78.13,363.51 77.14,363.74C76.15,363.97 75.33,364.06 75.3,363.92C75.27,363.78 76.04,363.48 77.02,363.24C78,363 78.83,362.92 78.86,363.06Z" style="fill:rgb(38,50,56);fill-rule:nonzero;"/>
    </g>
    <g transform="matrix(0.33976,0,0,0.33976,-5.49855,7.17697)">
        <path d="M77.36,353.4C76.583,353.617 75.775,353.701 74.97,353.65C74.172,353.768 73.36,353.744 72.57,353.58C73.314,353.237 74.132,353.083 74.95,353.13C75.763,353.017 76.592,353.11 77.36,353.4Z" style="fill:rgb(38,50,56);fill-rule:nonzero;"/>
    </g>
    <g transform="matrix(0.33976,0,0,0.33976,-5.49855,7.17697)">
        <path d="M79,344.57C78.9,344.68 78.14,344.18 77.28,343.46C76.42,342.74 75.81,342.05 75.9,341.94C75.99,341.83 76.76,342.33 77.62,343.06C78.48,343.79 79.05,344.46 79,344.57Z" style="fill:rgb(38,50,56);fill-rule:nonzero;"/>
    </g>
    <g transform="matrix(0.33976,0,0,0.33976,-5.49855,7.17697)">
        <path d="M83.28,336.4C83.42,336.4 83.38,337.12 83.36,337.96C83.34,338.8 83.36,339.48 83.19,339.5C83.02,339.52 82.81,338.83 82.84,337.94C82.87,337.05 83.14,336.37 83.28,336.4Z" style="fill:rgb(38,50,56);fill-rule:nonzero;"/>
    </g>
    <g transform="matrix(0.33976,0,0,0.33976,-5.49855,7.17697)">
        <path d="M92.1,340.25C92.22,340.33 91.87,341.03 91.33,341.81C90.79,342.59 90.25,343.15 90.13,343.07C90.01,342.99 90.36,342.29 90.9,341.51C91.44,340.73 92,340.17 92.1,340.25Z" style="fill:rgb(38,50,56);fill-rule:nonzero;"/>
    </g>
    <g transform="matrix(0.33976,0,0,0.33976,-5.49855,7.17697)">
        <path d="M97.83,350.2C97.83,350.33 97.15,350.76 96.19,351.15C95.23,351.54 94.41,351.75 94.36,351.62C94.31,351.49 95.04,351.06 95.99,350.67C96.94,350.28 97.77,350.07 97.83,350.2Z" style="fill:rgb(38,50,56);fill-rule:nonzero;"/>
    </g>
    <g transform="matrix(0.33976,0,0,0.33976,-5.49855,7.17697)">
        <path d="M101.3,360.44C99.931,361.38 98.251,361.76 96.61,361.5C97.357,361.202 98.141,361.003 98.94,360.91C99.702,360.647 100.496,360.489 101.3,360.44Z" style="fill:rgb(38,50,56);fill-rule:nonzero;"/>
    </g>
    <g transform="matrix(0.33976,0,0,0.33976,-5.49855,7.17697)">
        <path d="M85.35,357.53C85.21,357.53 85.35,356.78 85.57,355.95C85.79,355.12 86.15,354.48 86.29,354.53C86.43,354.58 86.29,355.28 86.07,356.11C85.85,356.94 85.49,357.57 85.35,357.53Z" style="fill:rgb(38,50,56);fill-rule:nonzero;"/>
    </g>
    <g transform="matrix(0.33976,0,0,0.33976,-5.49855,7.17697)">
        <path d="M87.58,370.38C87.44,370.32 87.73,369.38 88.22,368.25C88.71,367.12 89.22,366.25 89.33,366.33C89.44,366.41 89.18,367.33 88.69,368.46C88.2,369.59 87.71,370.44 87.58,370.38Z" style="fill:rgb(38,50,56);fill-rule:nonzero;"/>
    </g>
    <g transform="matrix(0.33976,0,0,0.33976,-5.49855,7.17697)">
        <path d="M82.08,373.9C82.02,374.04 81.08,373.79 80.08,373.45C79.08,373.11 78.08,372.8 78.15,372.66C78.861,372.562 79.585,372.666 80.24,372.96C81.31,373.3 82.13,373.77 82.08,373.9Z" style="fill:rgb(38,50,56);fill-rule:nonzero;"/>
    </g>
    <g transform="matrix(0.33976,0,0,0.33976,-5.49855,7.17697)">
        <path d="M85.25,384.38C85.33,384.5 84.73,385.07 83.89,385.67C83.05,386.27 82.32,386.67 82.24,386.53C82.16,386.39 82.76,385.83 83.59,385.24C84.42,384.65 85.16,384.26 85.25,384.38Z" style="fill:rgb(38,50,56);fill-rule:nonzero;"/>
    </g>
    <g transform="matrix(0.33976,0,0,0.33976,-5.49855,7.17697)">
        <path d="M87.79,394.83C87.79,394.97 87.07,395.27 86.11,395.5C85.15,395.73 84.35,395.81 84.32,395.67C84.29,395.53 85,395.23 86,395C87,394.77 87.76,394.69 87.79,394.83Z" style="fill:rgb(38,50,56);fill-rule:nonzero;"/>
    </g>
    <g transform="matrix(0.33976,0,0,0.33976,-5.49855,7.17697)">
        <path d="M101.58,369.17C101.66,369.29 101.01,369.8 100.08,370.17C99.15,370.54 98.33,370.56 98.3,370.42C98.27,370.28 99.01,370.02 99.9,369.68C100.79,369.34 101.51,369 101.58,369.17Z" style="fill:rgb(38,50,56);fill-rule:nonzero;"/>
    </g>
    <g transform="matrix(0.33976,0,0,0.33976,-5.49855,7.17697)">
        <path d="M103.55,385.42C103.49,385.55 102.73,385.32 101.85,384.9C100.97,384.48 100.3,384.05 100.36,383.9C100.42,383.75 101.19,384 102.07,384.41C102.95,384.82 103.61,385.29 103.55,385.42Z" style="fill:rgb(38,50,56);fill-rule:nonzero;"/>
    </g>
    <g transform="matrix(0.33976,0,0,0.33976,-5.49855,7.17697)">
        <path d="M107,397.05C105.452,396.818 103.975,396.24 102.68,395.36C103.469,395.385 104.242,395.59 104.94,395.96C106.16,396.43 107.09,396.92 107,397.05Z" style="fill:rgb(38,50,56);fill-rule:nonzero;"/>
    </g>
    <g transform="matrix(0.33976,0,0,0.33976,-5.49855,7.17697)">
        <path d="M88.35,406.16C88.28,406.03 89.2,405.41 90.28,404.56C91.36,403.71 92.18,402.96 92.28,403.06C92.38,403.16 91.71,404.06 90.59,404.97C89.967,405.566 89.192,405.978 88.35,406.16Z" style="fill:rgb(38,50,56);fill-rule:nonzero;"/>
    </g>
    <g transform="matrix(0.33976,0,0,0.33976,-5.49855,7.17697)">
        <path d="M97.54,400.25C97.4,400.25 97.2,399.48 96.84,398.57C96.48,397.66 96.12,396.95 96.24,396.86C96.36,396.77 96.95,397.4 97.33,398.39C97.71,399.38 97.68,400.24 97.54,400.25Z" style="fill:rgb(38,50,56);fill-rule:nonzero;"/>
    </g>
    <g transform="matrix(0.33976,0,0,0.33976,-5.49855,7.17697)">
        <path d="M95.11,386.26C95.02,386.38 94.43,386.09 93.78,385.63C93.13,385.17 92.67,384.69 92.78,384.57C92.89,384.45 93.45,384.74 94.1,385.2C94.75,385.66 95.19,386.14 95.11,386.26Z" style="fill:rgb(38,50,56);fill-rule:nonzero;"/>
    </g>
    <g transform="matrix(0.33976,0,0,0.33976,-5.49855,7.17697)">
        <path d="M116.54,364.34C116.63,364.45 116.05,365.03 115.25,365.61C114.45,366.19 113.73,366.61 113.65,366.47C113.57,366.33 114.14,365.79 114.94,365.2C115.74,364.61 116.46,364.22 116.54,364.34Z" style="fill:rgb(38,50,56);fill-rule:nonzero;"/>
    </g>
    <g transform="matrix(0.33976,0,0,0.33976,-5.49855,7.17697)">
        <path d="M119.77,373.17C119.77,373.31 118.88,373.5 117.77,373.38C116.66,373.26 115.77,372.88 115.85,372.75C115.93,372.62 116.76,372.75 117.85,372.86C118.94,372.97 119.76,373 119.77,373.17Z" style="fill:rgb(38,50,56);fill-rule:nonzero;"/>
    </g>
    <g transform="matrix(0.33976,0,0,0.33976,-5.49855,7.17697)">
        <path d="M105.89,375.15C105.89,375.29 105.08,375.59 103.99,375.66C102.9,375.73 102.04,375.55 102.05,375.41C102.06,375.27 102.92,375.21 103.96,375.14C105,375.07 105.86,375 105.89,375.15Z" style="fill:rgb(38,50,56);fill-rule:nonzero;"/>
    </g>
    <g transform="matrix(0.33976,0,0,0.33976,-5.49855,7.17697)">
        <path d="M107.08,366.8C107.08,366.94 106.22,366.96 105.29,366.53C104.36,366.1 103.83,365.45 103.93,365.35C104.03,365.25 104.66,365.68 105.51,366.06C106.36,366.44 107.1,366.65 107.08,366.8Z" style="fill:rgb(38,50,56);fill-rule:nonzero;"/>
    </g>
    <g transform="matrix(0.33976,0,0,0.33976,-5.49855,7.17697)">
        <path d="M121,382.65C120.92,382.77 120,382.37 119.06,381.74C118.12,381.11 117.32,380.51 117.4,380.39C117.48,380.27 118.34,380.67 119.33,381.3C120.32,381.93 121,382.53 121,382.65Z" style="fill:rgb(38,50,56);fill-rule:nonzero;"/>
    </g>
    <g transform="matrix(0.33976,0,0,0.33976,-5.49855,7.17697)">
        <rect x="80.76" y="407.44" width="74.09" height="13.13" style="fill:rgb(58,195,189);"/>
    </g>
    <g transform="matrix(0.33976,0,0,0.33976,-5.49855,7.17697)">
        <path d="M86.29,417.96L95.3,457.21L139.46,457.21L149.32,417.96L86.29,417.96Z" style="fill:rgb(58,195,189);fill-rule:nonzero;"/>
    </g>
    <g transform="matrix(0.33976,0,0,0.33976,-5.49855,7.17697)">
        <path d="M154.81,420.59C154.81,420.73 138.1,420.85 117.49,420.85C96.88,420.85 80.16,420.73 80.16,420.59C80.16,420.45 96.87,420.33 117.49,420.33C138.11,420.33 154.81,420.44 154.81,420.59Z" style="fill:rgb(38,50,56);fill-rule:nonzero;"/>
    </g>
    <g transform="matrix(0.33976,0,0,0.33976,-5.49855,7.17697)">
        <path d="M113.61,375.44C113.48,375.51 112.98,374.92 112.47,374.12C111.96,373.32 111.66,372.6 111.79,372.53C111.92,372.46 112.41,373.04 112.92,373.84C113.43,374.64 113.73,375.36 113.61,375.44Z" style="fill:rgb(38,50,56);fill-rule:nonzero;"/>
    </g>
    <g transform="matrix(0.33976,0,0,0.33976,-5.49855,7.17697)">
        <path d="M113.63,386C113.595,385.312 113.729,384.625 114.02,384C114.37,382.94 114.77,382.12 114.9,382.17C115.03,382.22 114.9,383.11 114.51,384.17C114.12,385.23 113.77,386.05 113.63,386Z" style="fill:rgb(38,50,56);fill-rule:nonzero;"/>
    </g>
    <g transform="matrix(0.33976,0,0,0.33976,-5.49855,7.17697)">
        <path d="M117.25,397.09C117.12,397.16 116.57,396.27 116.01,395.09C115.598,394.421 115.339,393.67 115.25,392.89C115.38,392.83 115.93,393.71 116.48,394.89C116.896,395.557 117.159,396.309 117.25,397.09Z" style="fill:rgb(38,50,56);fill-rule:nonzero;"/>
    </g>
    <g transform="matrix(0.33976,0,0,0.33976,-5.49855,7.17697)">
        <path d="M109.42,406C109.32,405.9 109.76,405.22 110.42,404.46C111.08,403.7 111.69,403.18 111.8,403.27C111.91,403.36 111.47,404.05 110.8,404.81C110.13,405.57 109.53,406.11 109.42,406Z" style="fill:rgb(38,50,56);fill-rule:nonzero;"/>
    </g>
    <g transform="matrix(0.33976,0,0,0.33976,-5.49855,7.17697)">
        <path d="M107.78,389.82C107.78,389.96 107.04,389.95 106.19,389.82C105.34,389.69 104.66,389.43 104.69,389.29C104.72,389.15 105.42,389.16 106.28,389.29C107.14,389.42 107.81,389.67 107.78,389.82Z" style="fill:rgb(38,50,56);fill-rule:nonzero;"/>
    </g>
    <g transform="matrix(0.33976,0,0,0.33976,-5.49855,7.17697)">
        <path d="M659.37,355.38C657.213,354.45 655.489,352.733 654.55,350.58C654.17,349.7 654.16,348.33 655.1,348.13C655.68,348.01 656.21,348.46 656.63,348.87L660.83,353.04C660.003,350.818 660.107,348.354 661.12,346.21C661.48,345.45 662.22,344.65 663.01,344.94C663.63,345.16 663.83,345.94 663.94,346.58L664.94,352.58C665.5,350.236 666.634,348.067 668.24,346.27C668.82,345.62 669.76,344.98 670.5,345.45C671.24,345.92 671.12,346.81 670.98,347.56C670.636,349.447 670.106,351.296 669.4,353.08C671.215,351.488 673.527,350.572 675.94,350.49C676.646,350.386 677.361,350.62 677.87,351.12C678.52,351.94 677.95,353.12 677.26,353.94C675.2,356.27 670.37,356.87 667.26,356.67" style="fill:rgb(58,195,189);fill-rule:nonzero;"/>
    </g>
    <g transform="matrix(0.33976,0,0,0.33976,-5.49855,7.17697)">
        <path d="M678,360.34C670.48,354.42 657.25,353.58 648.54,357.57C638.7,362.07 632.26,372.57 631.3,382.57C630.39,392.11 634.98,401.78 638.89,410.52L676.89,410.7C681.45,403.17 686.2,394.7 686.51,385.93C686.82,377.16 684.88,365.79 678,360.34Z" style="fill:rgb(69,90,100);fill-rule:nonzero;"/>
    </g>
    <g transform="matrix(0.33976,0,0,0.33976,-5.49855,7.17697)">
        <path d="M660.91,355.11L660.74,355.16L660.25,355.28L659.44,355.45C659.071,355.524 658.707,355.621 658.35,355.74C656.046,356.403 653.869,357.448 651.91,358.83C649.018,360.893 646.533,363.473 644.58,366.44C643.426,368.192 642.397,370.023 641.5,371.92C640.567,373.966 639.778,376.074 639.14,378.23C637.963,382.424 637.744,386.83 638.5,391.12C639.123,394.621 640.084,398.054 641.37,401.37C642.37,404.22 643.37,406.5 643.98,408.08C644.28,408.85 644.52,409.46 644.69,409.91C644.76,410.1 644.82,410.26 644.87,410.38C644.92,410.5 644.87,410.55 644.87,410.55L644.79,410.4C644.74,410.27 644.67,410.12 644.58,409.93C644.4,409.49 644.14,408.93 643.81,408.13C643.15,406.56 642.18,404.3 641.09,401.46C639.754,398.137 638.749,394.69 638.09,391.17C637.312,386.845 637.528,382.399 638.72,378.17C639.364,375.996 640.163,373.87 641.11,371.81C642.011,369.9 643.05,368.058 644.22,366.3C646.212,363.31 648.746,360.719 651.69,358.66C653.679,357.287 655.892,356.272 658.23,355.66C658.591,355.54 658.963,355.453 659.34,355.4L660.15,355.26L660.66,355.18L660.91,355.11Z" style="fill:rgb(38,50,56);fill-rule:nonzero;"/>
    </g>
    <g transform="matrix(0.33976,0,0,0.33976,-5.49855,7.17697)">
        <path d="M672,410.4C672.037,410.205 672.094,410.014 672.17,409.83L672.74,408.23C673.24,406.83 673.97,404.82 674.82,402.32C675.67,399.82 676.63,396.83 677.46,393.44C678.383,389.773 678.949,386.026 679.15,382.25C679.32,378.464 678.932,374.673 678,371C677.243,368.01 676.04,365.151 674.43,362.52C673.342,360.743 672.035,359.11 670.54,357.66C670.04,357.13 669.54,356.79 669.29,356.52C669.135,356.396 668.991,356.259 668.86,356.11C669.023,356.221 669.18,356.342 669.33,356.47C669.786,356.809 670.223,357.173 670.64,357.56C672.181,358.982 673.527,360.603 674.64,362.38C676.3,365.046 677.535,367.954 678.3,371C679.257,374.693 679.662,378.508 679.5,382.32C679.296,386.118 678.717,389.886 677.77,393.57C676.92,396.97 675.93,399.96 675.05,402.46C674.17,404.96 673.4,406.95 672.86,408.32C672.6,408.99 672.38,409.51 672.23,409.91C672.163,410.077 672.086,410.241 672,410.4Z" style="fill:rgb(38,50,56);fill-rule:nonzero;"/>
    </g>
    <g transform="matrix(0.33976,0,0,0.33976,-5.49855,7.17697)">
        <path d="M664.64,355.33C664.606,355.521 664.556,355.708 664.49,355.89C664.37,356.28 664.21,356.81 664,357.46C663.79,358.11 663.51,358.98 663.23,359.96C662.95,360.94 662.59,362.04 662.23,363.27C661.51,365.73 660.77,368.69 660.01,371.99C659.25,375.29 658.58,378.94 658.01,382.8C657.44,386.66 657.08,390.37 656.84,393.75C656.76,395.44 656.65,397.04 656.63,398.54L656.63,402.72C656.63,404 656.63,405.16 656.71,406.17C656.79,407.18 656.78,408.06 656.84,408.78C656.9,409.5 656.91,410.01 656.94,410.42C656.97,410.83 656.94,411 656.94,411C656.892,410.813 656.862,410.622 656.85,410.43C656.85,410.02 656.76,409.43 656.69,408.79C656.62,408.15 656.54,407.2 656.5,406.18C656.46,405.16 656.37,404.01 656.36,402.72L656.36,398.54C656.36,397.03 656.47,395.42 656.54,393.73C656.76,390.34 657.12,386.63 657.69,382.73C658.26,378.83 658.99,375.2 659.69,371.89C660.39,368.58 661.24,365.64 661.98,363.18C662.33,361.95 662.7,360.85 662.98,359.88C663.26,358.91 663.56,358.08 663.81,357.4C664.06,356.72 664.23,356.23 664.36,355.85C664.444,355.672 664.538,355.498 664.64,355.33Z" style="fill:rgb(38,50,56);fill-rule:nonzero;"/>
    </g>
    <g transform="matrix(0.33976,0,0,0.33976,-5.49855,7.17697)">
        <path d="M632.47,385.61C631.661,386.169 630.788,386.629 629.87,386.98C629.004,387.445 628.084,387.801 627.13,388.04C628.804,387.016 630.598,386.2 632.47,385.61Z" style="fill:rgb(38,50,56);fill-rule:nonzero;"/>
    </g>
    <g transform="matrix(0.33976,0,0,0.33976,-5.49855,7.17697)">
        <path d="M633.68,374.68C632.675,374.309 631.716,373.826 630.82,373.24C629.869,372.755 628.974,372.168 628.15,371.49C629.152,371.86 630.108,372.343 631,372.93C631.955,373.414 632.853,374.001 633.68,374.68Z" style="fill:rgb(38,50,56);fill-rule:nonzero;"/>
    </g>
    <g transform="matrix(0.33976,0,0,0.33976,-5.49855,7.17697)">
        <path d="M640.61,365.66C640.093,364.978 639.672,364.227 639.36,363.43C638.936,362.681 638.619,361.877 638.42,361.04C638.94,361.726 639.364,362.48 639.68,363.28C640.098,364.027 640.41,364.828 640.61,365.66Z" style="fill:rgb(38,50,56);fill-rule:nonzero;"/>
    </g>
    <g transform="matrix(0.33976,0,0,0.33976,-5.49855,7.17697)">
        <path d="M650.14,357.14C649.125,356.186 648.289,355.058 647.67,353.81C648.213,354.25 648.68,354.777 649.05,355.37C649.511,355.894 649.879,356.493 650.14,357.14Z" style="fill:rgb(38,50,56);fill-rule:nonzero;"/>
    </g>
    <g transform="matrix(0.33976,0,0,0.33976,-5.49855,7.17697)">
        <path d="M636.78,398.94C635.962,399.594 635.069,400.148 634.12,400.59C633.227,401.133 632.278,401.579 631.29,401.92C632.108,401.266 633.001,400.712 633.95,400.27C634.842,399.725 635.791,399.279 636.78,398.94Z" style="fill:rgb(38,50,56);fill-rule:nonzero;"/>
    </g>
    <g transform="matrix(0.33976,0,0,0.33976,-5.49855,7.17697)">
        <path d="M648.13,392.3C647.271,392.027 646.453,391.636 645.7,391.14C644.89,390.753 644.134,390.262 643.45,389.68C644.306,389.956 645.123,390.343 645.88,390.83C646.689,391.223 647.445,391.717 648.13,392.3Z" style="fill:rgb(38,50,56);fill-rule:nonzero;"/>
    </g>
    <g transform="matrix(0.33976,0,0,0.33976,-5.49855,7.17697)">
        <path d="M651.29,377.12C650.597,377.682 649.803,378.106 648.95,378.37C648.145,378.748 647.277,378.975 646.39,379.04C647.17,378.639 647.983,378.304 648.82,378.04C649.618,377.669 650.444,377.362 651.29,377.12Z" style="fill:rgb(38,50,56);fill-rule:nonzero;"/>
    </g>
    <g transform="matrix(0.33976,0,0,0.33976,-5.49855,7.17697)">
        <path d="M654.9,365.68C654.055,364.544 653.58,363.175 653.54,361.76C653.843,362.384 654.081,363.037 654.25,363.71C654.532,364.343 654.75,365.003 654.9,365.68Z" style="fill:rgb(38,50,56);fill-rule:nonzero;"/>
    </g>
    <g transform="matrix(0.33976,0,0,0.33976,-5.49855,7.17697)">
        <path d="M646.84,407.2C647.063,406.308 647.399,405.447 647.84,404.64C648.185,403.788 648.639,402.985 649.19,402.25C648.621,403.997 647.824,405.662 646.82,407.2L646.84,407.2Z" style="fill:rgb(38,50,56);fill-rule:nonzero;"/>
    </g>
    <g transform="matrix(0.33976,0,0,0.33976,-5.49855,7.17697)">
        <path d="M666,403.12C665.141,402.599 664.388,401.92 663.78,401.12C663.091,400.397 662.542,399.553 662.16,398.63C662.833,399.349 663.467,400.103 664.06,400.89C665.11,402.14 666.07,403 666,403.12Z" style="fill:rgb(38,50,56);fill-rule:nonzero;"/>
    </g>
    <g transform="matrix(0.33976,0,0,0.33976,-5.49855,7.17697)">
        <path d="M672.64,386.41C671.827,387.088 670.938,387.669 669.99,388.14C669.103,388.715 668.154,389.188 667.16,389.55C667.977,388.88 668.866,388.303 669.81,387.83C670.699,387.256 671.648,386.78 672.64,386.41Z" style="fill:rgb(38,50,56);fill-rule:nonzero;"/>
    </g>
    <g transform="matrix(0.33976,0,0,0.33976,-5.49855,7.17697)">
        <path d="M668.18,376.13C669.463,374.594 670.923,373.214 672.53,372.02C671.936,372.832 671.244,373.568 670.47,374.21C669.782,374.934 669.013,375.578 668.18,376.13Z" style="fill:rgb(38,50,56);fill-rule:nonzero;"/>
    </g>
    <g transform="matrix(0.33976,0,0,0.33976,-5.49855,7.17697)">
        <path d="M668.38,365.23C667.617,364.833 666.911,364.335 666.28,363.75C665.58,363.254 664.951,362.666 664.41,362C665.171,362.4 665.877,362.898 666.51,363.48C667.21,363.976 667.839,364.564 668.38,365.23Z" style="fill:rgb(38,50,56);fill-rule:nonzero;"/>
    </g>
    <g transform="matrix(0.33976,0,0,0.33976,-5.49855,7.17697)">
        <path d="M681.05,358C680.428,358.616 679.725,359.144 678.96,359.57C678.262,360.09 677.499,360.517 676.69,360.84C677.305,360.22 678.005,359.691 678.77,359.27C679.469,358.746 680.236,358.319 681.05,358Z" style="fill:rgb(38,50,56);fill-rule:nonzero;"/>
    </g>
    <g transform="matrix(0.33976,0,0,0.33976,-5.49855,7.17697)">
        <path d="M685.92,368C685.22,368.23 684.487,368.342 683.75,368.33C683.022,368.45 682.278,368.45 681.55,368.33C682.254,368.102 682.99,367.987 683.73,367.99C684.456,367.875 685.195,367.879 685.92,368Z" style="fill:rgb(38,50,56);fill-rule:nonzero;"/>
    </g>
    <g transform="matrix(0.33976,0,0,0.33976,-5.49855,7.17697)">
        <path d="M689.11,379.83C688.186,379.909 687.257,379.879 686.34,379.74C685.414,379.709 684.497,379.558 683.61,379.29C684.534,379.211 685.463,379.241 686.38,379.38C687.306,379.412 688.223,379.563 689.11,379.83Z" style="fill:rgb(38,50,56);fill-rule:nonzero;"/>
    </g>
    <g transform="matrix(0.33976,0,0,0.33976,-5.49855,7.17697)">
        <path d="M687.53,395.07C685.75,393.614 684.128,391.975 682.69,390.18C684.47,391.636 686.092,393.275 687.53,395.07Z" style="fill:rgb(38,50,56);fill-rule:nonzero;"/>
    </g>
    <g transform="matrix(0.33976,0,0,0.33976,-5.49855,7.17697)">
        <path d="M683.37,406.81C682.392,406.115 681.526,405.275 680.8,404.32C679.982,403.429 679.308,402.417 678.8,401.32C678.88,401.26 679.8,402.56 681.06,404.06C682.32,405.56 683.45,406.73 683.37,406.81Z" style="fill:rgb(38,50,56);fill-rule:nonzero;"/>
    </g>
    <g transform="matrix(0.33976,0,0,0.33976,-5.49855,7.17697)">
        <g opacity="0.3">
            <path d="M668.84,356.14C668.9,356.05 669.65,356.41 670.91,357.26C672.65,358.526 674.193,360.043 675.49,361.76C677.419,364.333 678.844,367.248 679.69,370.35C680.715,374.115 681.189,378.009 681.1,381.91C681.045,385.798 680.524,389.666 679.55,393.43C678.781,396.486 677.778,399.478 676.55,402.38C674.43,407.32 672.64,410.12 672.45,410.02C672.26,409.92 673.58,406.9 675.37,401.92C677.8,395.52 679.152,388.762 679.37,381.92C679.455,378.18 679.048,374.444 678.16,370.81C677.427,367.86 676.196,365.056 674.52,362.52C673.363,360.815 672.021,359.242 670.52,357.83C669.38,356.81 668.76,356.25 668.84,356.14Z" style="fill-rule:nonzero;"/>
        </g>
    </g>
    <g transform="matrix(0.33976,0,0,0.33976,-5.49855,7.17697)">
        <g opacity="0.3">
            <path d="M664.37,354.77C664.61,354.83 664.12,357.96 663.18,362.99C662.24,368.02 660.88,374.94 659.69,382.62C659.12,386.46 658.69,390.13 658.32,393.48C658.18,395.15 658.01,396.74 657.93,398.23C657.85,399.72 657.74,401.12 657.69,402.39C657.46,407.47 657.51,410.64 657.23,410.65C656.95,410.66 656.52,407.52 656.42,402.37L656.42,398.16C656.42,396.65 656.56,395.04 656.66,393.34C656.91,389.94 657.32,386.23 657.91,382.34C659.1,374.59 660.68,367.67 661.91,362.71C663.14,357.75 664.13,354.72 664.37,354.77Z" style="fill-rule:nonzero;"/>
        </g>
    </g>
    <g transform="matrix(0.33976,0,0,0.33976,-5.49855,7.17697)">
        <g opacity="0.3">
            <path d="M659.91,354.37C659.91,354.5 659.07,354.84 657.54,355.54C655.39,356.506 653.34,357.682 651.42,359.05C643.221,364.873 638.325,374.314 638.29,384.37C638.287,386.419 638.441,388.465 638.75,390.49C639.301,393.95 640.137,397.358 641.25,400.68C642.18,403.55 643.04,405.84 643.6,407.44C643.984,408.243 644.23,409.105 644.33,409.99C644.22,410.04 643.73,409.23 642.96,407.71C642.19,406.19 641.16,403.96 640.06,401.11C638.747,397.76 637.762,394.29 637.12,390.75C636.754,388.639 636.557,386.502 636.53,384.36C636.532,382.045 636.773,379.736 637.25,377.47C638.211,373.094 640.093,368.973 642.77,365.38C644.951,362.463 647.641,359.963 650.71,358C652.756,356.677 654.969,355.631 657.29,354.89C658.118,354.538 659.01,354.361 659.91,354.37Z" style="fill-rule:nonzero;"/>
        </g>
    </g>
    <g transform="matrix(0.33976,0,0,0.33976,-5.49855,7.17697)">
        <rect x="621.08" y="410.27" width="70.34" height="12.47" style="fill:rgb(58,195,189);"/>
    </g>
    <g transform="matrix(0.33976,0,0,0.33976,-5.49855,7.17697)">
        <path d="M626.33,420.26L634.89,457.52L676.81,457.52L686.17,420.26L626.33,420.26Z" style="fill:rgb(58,195,189);fill-rule:nonzero;"/>
    </g>
    <g transform="matrix(0.33976,0,0,0.33976,-5.49855,7.17697)">
        <path d="M691.38,422.75C691.38,422.89 675.51,423 655.95,423C636.39,423 620.51,422.89 620.51,422.75C620.51,422.61 636.37,422.5 655.95,422.5C675.53,422.5 691.38,422.61 691.38,422.75Z" style="fill:rgb(38,50,56);fill-rule:nonzero;"/>
    </g>
    <g transform="matrix(0.33976,0,0,0.33976,-5.49855,7.17697)">
        <path d="M701,456.8C701,456.94 555,457.06 375,457.06C195,457.06 49,456.94 49,456.8C49,456.66 195,456.54 375,456.54C555,456.54 701,456.65 701,456.8Z" style="fill:rgb(38,50,56);fill-rule:nonzero;"/>
    </g>
    <g transform="matrix(0.33976,0,0,0.33976,-5.49855,7.17697)">
        <path d="M481.43,205.09C482.515,204.484 483.868,204.612 484.82,205.41L523,236.28L517.14,263L479,231.58C477.821,230.607 477.217,229.097 477.4,227.58L479.81,207.41C479.938,206.419 480.544,205.552 481.43,205.09Z" style="fill:rgb(38,50,56);fill-rule:nonzero;"/>
    </g>
    <g transform="matrix(0.33976,0,0,0.33976,-5.49855,7.17697)">
        <path d="M472.73,294.92L515.34,259.19L529.79,265.1C529.79,265.1 482.52,339.53 477.79,342.45C473.06,345.37 458.79,340.19 458.79,340.19L472.73,294.92Z" style="fill:rgb(255,190,157);fill-rule:nonzero;"/>
    </g>
    <g transform="matrix(0.33976,0,0,0.33976,-5.49855,7.17697)">
        <path d="M497.37,237.28C493.25,236.98 494.27,231.37 494.27,231.37L507.15,229.93L497.27,228.16C495.934,227.562 495.07,226.229 495.07,224.765C495.07,224.153 495.221,223.55 495.51,223.01L510.34,224.77C510.34,224.77 519.53,228.08 522.48,229.19C525.43,230.3 525.1,235.43 525.1,235.43C527.39,236.1 528.19,239.36 527.9,240.12C527.61,240.88 530.83,260 530.83,260L529.83,265.07L515.65,260.19C515.04,258.74 515.55,255.83 515.55,255.83L511.04,255.3C511.04,255.3 503.04,255.13 502.83,252.96C502.599,251.381 503.702,249.89 505.28,249.65C502.797,250.315 500.207,250.481 497.66,250.14C493.17,249.6 494.15,246.36 494.15,246.36L505.59,243.36C505.59,243.36 511.99,242.73 514.31,243.21C514.488,243.255 514.671,243.278 514.855,243.278C515.867,243.278 516.756,242.583 517,241.6L510.13,237.81C510.13,237.81 501.49,237.57 497.37,237.28Z" style="fill:rgb(255,190,157);fill-rule:nonzero;"/>
    </g>
    <g transform="matrix(0.33976,0,0,0.33976,-5.49855,7.17697)">
        <path d="M518.62,249.14C517.973,249.341 517.297,249.435 516.62,249.42C515.4,249.51 513.72,249.53 511.87,249.51C508.17,249.44 505.21,249.82 505.19,249.68C505.808,249.44 506.459,249.295 507.12,249.25C508.696,249.055 510.283,248.968 511.87,248.99L516.61,249.05C517.281,248.996 517.956,249.026 518.62,249.14Z" style="fill:rgb(235,153,110);fill-rule:nonzero;"/>
    </g>
    <g transform="matrix(0.33976,0,0,0.33976,-5.49855,7.17697)">
        <path d="M522.57,254.84C521.466,255.325 520.276,255.587 519.07,255.61C517.893,255.798 516.702,255.881 515.51,255.86C516.616,255.37 517.81,255.108 519.02,255.09C520.193,254.897 521.381,254.813 522.57,254.84Z" style="fill:rgb(235,153,110);fill-rule:nonzero;"/>
    </g>
    <g transform="matrix(0.33976,0,0,0.33976,-5.49855,7.17697)">
        <path d="M525.23,253C525.1,252.93 525.38,252.18 525.15,251.27C524.92,250.36 524.35,249.81 524.44,249.69C524.53,249.57 524.69,249.69 524.96,249.94C525.652,250.612 525.897,251.626 525.59,252.54C525.46,252.86 525.29,253 525.23,253Z" style="fill:rgb(235,153,110);fill-rule:nonzero;"/>
    </g>
    <g transform="matrix(0.33976,0,0,0.33976,-5.49855,7.17697)">
        <path d="M522.66,235C522.58,235.15 519.36,233.35 515.07,232C513.24,231.407 511.381,230.91 509.5,230.51C508.702,230.4 507.916,230.219 507.15,229.97C507.958,229.929 508.767,229.989 509.56,230.15C511.489,230.438 513.39,230.893 515.24,231.51C517.089,232.118 518.886,232.877 520.61,233.78C521.341,234.1 522.03,234.51 522.66,235Z" style="fill:rgb(235,153,110);fill-rule:nonzero;"/>
    </g>
    <g transform="matrix(0.33976,0,0,0.33976,-5.49855,7.17697)">
        <path d="M488.51,219.51C488.339,220.199 487.716,220.688 487.005,220.688C486.155,220.688 485.455,219.988 485.455,219.138C485.455,218.287 486.155,217.588 487.005,217.588C487.111,217.588 487.216,217.599 487.32,217.62C488.165,217.812 488.702,218.665 488.51,219.51Z" style="fill:rgb(235,235,235);fill-rule:nonzero;"/>
    </g>
    <g transform="matrix(0.33976,0,0,0.33976,-5.49855,7.17697)">
        <path d="M518,186.74C518.1,186.85 513.52,191.04 507.78,196.1C502.04,201.16 497.31,205.18 497.22,205.1C497.13,205.02 501.7,200.81 507.44,195.74C513.18,190.67 517.94,186.64 518,186.74Z" style="fill:rgb(38,50,56);fill-rule:nonzero;"/>
    </g>
    <g transform="matrix(0.33976,0,0,0.33976,-5.49855,7.17697)">
        <path d="M496.7,183.12C496.197,185.288 495.528,187.414 494.7,189.48C494.022,191.603 493.186,193.672 492.2,195.67C492.695,193.5 493.363,191.373 494.2,189.31C494.868,187.184 495.704,185.114 496.7,183.12Z" style="fill:rgb(38,50,56);fill-rule:nonzero;"/>
    </g>
    <g transform="matrix(0.33976,0,0,0.33976,-5.49855,7.17697)">
        <path d="M482,196C481.669,194.914 481.425,193.804 481.27,192.68C480.84,190.48 480.32,187.68 479.73,184.68C479.14,181.68 478.58,178.84 478.15,176.68C477.884,175.578 477.697,174.459 477.59,173.33C477.99,174.392 478.298,175.486 478.51,176.6C479.01,178.6 479.63,181.47 480.24,184.6C480.85,187.73 481.33,190.6 481.63,192.68C481.841,193.775 481.964,194.885 482,196Z" style="fill:rgb(38,50,56);fill-rule:nonzero;"/>
    </g>
    <g transform="matrix(0.33976,0,0,0.33976,-5.49855,7.17697)">
        <path d="M474.67,199.92C471.915,198.344 469.34,196.473 466.99,194.34C468.415,195.049 469.756,195.915 470.99,196.92C472.321,197.784 473.555,198.79 474.67,199.92Z" style="fill:rgb(38,50,56);fill-rule:nonzero;"/>
    </g>
    <g transform="matrix(0.33976,0,0,0.33976,-5.49855,7.17697)">
        <path d="M385,243.41L375.8,312.78L340.8,251.01L341.45,305.93L354.53,354.07L400.63,326.84L393.21,260.77C393.21,260.77 387.18,242.72 385,243.41Z" style="fill:white;fill-rule:nonzero;"/>
    </g>
    <g transform="matrix(0.33976,0,0,0.33976,-5.49855,7.17697)">
        <path d="M473.54,291.56C468.86,290.11 461.04,294.61 460.03,295.75C459.02,296.89 422.03,256.36 416.03,249.75C415.782,249.428 415.507,249.127 415.21,248.85C410.82,244.85 390.29,236.17 390.29,236.17L381.84,229C381.84,229 383.49,239.57 384.48,246.31C384.48,246.31 391.06,255.25 393.04,260.79C395.02,266.33 395.82,300.21 395.82,300.21C395.82,300.21 403.54,340.62 402.75,340.84L415.19,337.68L415.19,342.78L448.84,364.44C448.84,364.44 474.37,362.12 479.99,358.23C485.61,354.34 473.54,291.56 473.54,291.56Z" style="fill:rgb(58,195,189);fill-rule:nonzero;"/>
    </g>
    <g transform="matrix(0.33976,0,0,0.33976,-5.49855,7.17697)">
        <path d="M400.05,329.92C400.041,329.844 400.041,329.766 400.05,329.69C400.1,329.51 400.16,329.3 400.23,329.03C400.4,328.42 400.63,327.57 400.94,326.5C401.58,324.26 402.51,321.08 403.65,317.13C406.02,309.13 409.3,298.05 413.02,285.47L413.02,285.71C411.26,283.5 409.41,281.2 407.53,278.85C406.16,277.14 404.81,275.46 403.53,273.85L403.36,273.64L403.57,273.48L412.04,267.35L411.96,267.65C409.851,263.002 407.338,258.549 404.45,254.34C401.87,250.52 399.45,247.26 397.33,244.59C393.14,239.27 390.42,236.34 390.42,236.34C390.622,236.481 390.81,236.642 390.98,236.82C391.32,237.16 391.81,237.68 392.43,238.36C393.67,239.73 395.43,241.76 397.57,244.36C399.71,246.96 402.18,250.24 404.8,254.07C407.732,258.279 410.279,262.744 412.41,267.41L412.49,267.59L412.33,267.71L403.88,273.86L403.93,273.49L407.93,278.49L413.42,285.36L413.51,285.46L413.51,285.59C409.72,298.15 406.38,309.22 403.98,317.19C402.77,321.13 401.8,324.3 401.11,326.52C400.77,327.58 400.51,328.42 400.32,329.03L400.1,329.67C400.098,329.756 400.081,329.84 400.05,329.92Z" style="fill:rgb(38,50,56);fill-rule:nonzero;"/>
    </g>
    <g transform="matrix(0.33976,0,0,0.33976,-5.49855,7.17697)">
        <path d="M459.21,321.85C459.091,321.527 459.007,321.191 458.96,320.85C458.84,320.19 458.68,319.24 458.53,318.06C458.132,314.977 457.965,311.868 458.03,308.76C458.096,305.647 458.431,302.545 459.03,299.49C459.27,298.33 459.49,297.39 459.68,296.75C459.748,296.404 459.859,296.068 460.01,295.75C460.09,295.75 459.77,297.21 459.39,299.55C458.899,302.597 458.612,305.674 458.53,308.76C458.471,311.847 458.588,314.936 458.88,318.01C459.11,320.37 459.29,321.83 459.21,321.85Z" style="fill:rgb(38,50,56);fill-rule:nonzero;"/>
    </g>
    <g transform="matrix(0.33976,0,0,0.33976,-5.49855,7.17697)">
        <path d="M454.51,318.89C454.42,318.585 454.38,318.268 454.39,317.95C454.34,317.34 454.32,316.45 454.34,315.36C454.417,312.507 454.803,309.67 455.49,306.9C456.189,304.149 457.147,301.471 458.35,298.9C458.81,297.9 459.21,297.12 459.52,296.59C459.655,296.303 459.827,296.034 460.03,295.79C460.1,295.79 459.52,297.05 458.69,299.05C457.593,301.645 456.694,304.319 456,307.05C455.32,309.789 454.888,312.584 454.71,315.4C454.57,317.54 454.6,318.89 454.51,318.89Z" style="fill:rgb(38,50,56);fill-rule:nonzero;"/>
    </g>
    <g transform="matrix(0.33976,0,0,0.33976,-5.49855,7.17697)">
        <g opacity="0.3">
            <path d="M460.39,295.66C453.934,301.572 451.144,310.527 453.1,319.06C453.48,320.6 454.37,322.4 455.96,322.44C457.133,322.347 458.123,321.511 458.41,320.37C458.669,319.251 458.703,318.092 458.51,316.96C457.841,309.973 458.269,302.924 459.78,296.07" style="fill-rule:nonzero;"/>
        </g>
    </g>
    <g transform="matrix(0.33976,0,0,0.33976,-5.49855,7.17697)">
        <g opacity="0.3">
            <path d="M395.82,300.19C401.89,273.37 399.24,253.34 382.35,231.93L384.48,246.29C384.48,246.29 392.73,259.21 393.36,261.49C394.87,266.87 395.82,300.19 395.82,300.19Z" style="fill-rule:nonzero;"/>
        </g>
    </g>
    <g transform="matrix(0.33976,0,0,0.33976,-5.49855,7.17697)">
        <path d="M518.24,390.16L493.42,419.86C493.66,419.61 542.19,454.5 542.19,454.5C553.41,450.89 562.13,444.73 566.79,434.42L518.24,390.16Z" style="fill:rgb(255,190,157);fill-rule:nonzero;"/>
    </g>
    <g transform="matrix(0.33976,0,0,0.33976,-5.49855,7.17697)">
        <path d="M566.09,431.89C566.09,431.89 603.09,420.07 607.55,425.11L552.14,468.51L540.71,454.08L543.11,452.95C552.733,448.432 560.751,441.083 566.09,431.89Z" style="fill:rgb(58,195,189);fill-rule:nonzero;"/>
    </g>
    <g transform="matrix(0.33976,0,0,0.33976,-5.49855,7.17697)">
        <g opacity="0.6">
            <path d="M549.25,451.78C548.41,452.969 548.605,454.62 549.7,455.58C550.864,456.464 552.538,456.278 553.48,455.16C554.363,453.903 554.145,452.161 552.98,451.16C551.79,450.4 549.66,450.74 549.09,452.04" style="fill:white;fill-rule:nonzero;"/>
        </g>
    </g>
    <g transform="matrix(0.33976,0,0,0.33976,-5.49855,7.17697)">
        <g opacity="0.6">
            <path d="M552.14,468.51L548.77,463.9L603.16,424C603.16,424 606.47,423.14 607.55,425.1L552.14,468.51Z" style="fill:white;fill-rule:nonzero;"/>
        </g>
    </g>
    <g transform="matrix(0.33976,0,0,0.33976,-5.49855,7.17697)">
        <path d="M566.77,430.91C566.97,431.19 565.71,432.37 565.06,434.28C564.41,436.19 564.59,437.89 564.26,437.98C563.93,438.07 563.11,436.19 563.93,433.88C564.75,431.57 566.63,430.61 566.77,430.91Z" style="fill:rgb(38,50,56);fill-rule:nonzero;"/>
    </g>
    <g transform="matrix(0.33976,0,0,0.33976,-5.49855,7.17697)">
        <path d="M574.46,428.76C574.73,428.97 573.92,430.35 573.89,432.22C573.86,434.09 574.55,435.5 574.28,435.7C574.01,435.9 572.63,434.5 572.7,432.18C572.77,429.86 574.25,428.51 574.46,428.76Z" style="fill:rgb(38,50,56);fill-rule:nonzero;"/>
    </g>
    <g transform="matrix(0.33976,0,0,0.33976,-5.49855,7.17697)">
        <path d="M583.21,433.13C583.01,433.38 581.57,432.32 581.11,430.3C580.65,428.28 581.45,426.69 581.74,426.83C582.03,426.97 581.87,428.37 582.27,430.03C582.67,431.69 583.46,432.89 583.21,433.13Z" style="fill:rgb(38,50,56);fill-rule:nonzero;"/>
    </g>
    <g transform="matrix(0.33976,0,0,0.33976,-5.49855,7.17697)">
        <path d="M566,431.22C566.09,431.33 565.15,432.34 563.22,433.38C562.077,433.988 560.865,434.454 559.61,434.77C558.869,434.95 558.118,435.083 557.36,435.17C556.913,435.24 556.457,435.24 556.01,435.17C555.336,435.066 554.817,434.51 554.76,433.83C554.733,433.232 554.993,432.655 555.46,432.28C555.809,432.003 556.197,431.777 556.61,431.61C557.316,431.293 558.049,431.039 558.8,430.85C560.065,430.538 561.371,430.43 562.67,430.53C564.89,430.71 566.12,431.38 566.07,431.53C566.02,431.68 564.73,431.36 562.65,431.4C561.442,431.432 560.242,431.617 559.08,431.95C558.395,432.147 557.726,432.398 557.08,432.7C556.37,433.01 555.87,433.4 555.92,433.78C555.92,433.92 555.92,433.96 556.22,434.04C556.551,434.091 556.889,434.091 557.22,434.04C557.936,433.98 558.647,433.877 559.35,433.73C560.541,433.483 561.706,433.125 562.83,432.66C564.83,431.82 565.93,431.07 566,431.22Z" style="fill:rgb(38,50,56);fill-rule:nonzero;"/>
    </g>
    <g transform="matrix(0.33976,0,0,0.33976,-5.49855,7.17697)">
        <path d="M566,431.89C565.94,432.01 564.64,431.46 563.17,429.78C562.318,428.792 561.642,427.666 561.17,426.45C560.888,425.727 560.684,424.976 560.56,424.21C560.278,423.228 560.533,422.167 561.23,421.42C561.743,421.034 562.437,420.983 563,421.29C563.394,421.504 563.757,421.769 564.08,422.08C564.66,422.624 565.153,423.255 565.54,423.95C566.203,425.105 566.568,426.408 566.6,427.74C566.6,430.03 565.77,431.24 565.68,431.16C565.59,431.08 566.01,429.84 565.76,427.81C565.62,426.638 565.224,425.512 564.6,424.51C564.237,423.932 563.797,423.407 563.29,422.95C562.74,422.43 562.15,422.12 561.97,422.36C561.644,422.852 561.553,423.464 561.72,424.03C561.82,424.711 561.984,425.38 562.21,426.03C562.595,427.167 563.144,428.242 563.84,429.22C565,431 566.11,431.73 566,431.89Z" style="fill:rgb(38,50,56);fill-rule:nonzero;"/>
    </g>
    <g transform="matrix(0.33976,0,0,0.33976,-5.49855,7.17697)">
        <path d="M505.18,404.1L480.36,433.81C480.6,433.56 529.13,468.45 529.13,468.45C540.35,464.84 549.07,458.68 553.73,448.37L505.18,404.1Z" style="fill:rgb(255,190,157);fill-rule:nonzero;"/>
    </g>
    <g transform="matrix(0.33976,0,0,0.33976,-5.49855,7.17697)">
        <path d="M553,445.84C553,445.84 590,434.02 594.46,439.06L539.05,482.46L527.66,468L530.06,466.87C539.663,462.351 547.666,455.015 553,445.84Z" style="fill:rgb(58,195,189);fill-rule:nonzero;"/>
    </g>
    <g transform="matrix(0.33976,0,0,0.33976,-5.49855,7.17697)">
        <g opacity="0.6">
            <path d="M536.19,465.72C535.356,466.916 535.555,468.567 536.65,469.53C537.811,470.413 539.482,470.226 540.42,469.11C541.303,467.853 541.085,466.111 539.92,465.11C538.73,464.35 536.61,464.69 536.04,465.98" style="fill:white;fill-rule:nonzero;"/>
        </g>
    </g>
    <g transform="matrix(0.33976,0,0,0.33976,-5.49855,7.17697)">
        <g opacity="0.6">
            <path d="M539.08,482.46L535.72,477.85L590.1,438C590.1,438 593.41,437.14 594.49,439.1L539.08,482.46Z" style="fill:white;fill-rule:nonzero;"/>
        </g>
    </g>
    <g transform="matrix(0.33976,0,0,0.33976,-5.49855,7.17697)">
        <path d="M553.71,444.86C553.91,445.14 552.65,446.32 552,448.23C551.35,450.14 551.54,451.84 551.2,451.92C550.86,452 550.05,450.13 550.88,447.83C551.71,445.53 553.57,444.56 553.71,444.86Z" style="fill:rgb(38,50,56);fill-rule:nonzero;"/>
    </g>
    <g transform="matrix(0.33976,0,0,0.33976,-5.49855,7.17697)">
        <path d="M561.4,442.71C561.67,442.92 560.86,444.3 560.84,446.17C560.82,448.04 561.5,449.45 561.22,449.65C560.94,449.85 559.57,448.45 559.64,446.13C559.71,443.81 561.2,442.46 561.4,442.71Z" style="fill:rgb(38,50,56);fill-rule:nonzero;"/>
    </g>
    <g transform="matrix(0.33976,0,0,0.33976,-5.49855,7.17697)">
        <path d="M570.15,447.08C569.95,447.33 568.52,446.27 568.05,444.25C567.58,442.23 568.39,440.64 568.68,440.78C568.97,440.92 568.81,442.32 569.22,443.97C569.63,445.62 570.4,446.84 570.15,447.08Z" style="fill:rgb(38,50,56);fill-rule:nonzero;"/>
    </g>
    <g transform="matrix(0.33976,0,0,0.33976,-5.49855,7.17697)">
        <path d="M553,445.17C553.09,445.28 552.16,446.29 550.22,447.33C549.079,447.938 547.866,448.402 546.61,448.71C545.87,448.898 545.119,449.035 544.36,449.12C543.913,449.19 543.457,449.19 543.01,449.12C542.339,449.01 541.823,448.457 541.76,447.78C541.735,447.182 541.995,446.606 542.46,446.23C542.809,445.953 543.197,445.727 543.61,445.56C544.317,445.245 545.05,444.991 545.8,444.8C547.068,444.488 548.378,444.38 549.68,444.48C551.89,444.66 553.13,445.33 553.07,445.48C553.01,445.63 551.73,445.31 549.65,445.35C548.444,445.376 547.247,445.561 546.09,445.9C545.403,446.093 544.734,446.344 544.09,446.65C543.38,446.96 542.88,447.35 542.93,447.72C542.93,447.87 542.98,447.91 543.24,447.99C543.571,448.041 543.909,448.041 544.24,447.99C544.952,447.931 545.66,447.827 546.36,447.68C547.554,447.431 548.722,447.073 549.85,446.61C551.77,445.77 552.87,445 553,445.17Z" style="fill:rgb(38,50,56);fill-rule:nonzero;"/>
    </g>
    <g transform="matrix(0.33976,0,0,0.33976,-5.49855,7.17697)">
        <path d="M552.94,445.84C552.87,445.95 551.58,445.4 550.1,443.73C549.252,442.74 548.576,441.614 548.1,440.4C547.824,439.675 547.62,438.925 547.49,438.16C547.208,437.178 547.463,436.117 548.16,435.37C548.673,434.988 549.363,434.934 549.93,435.23C550.322,435.45 550.685,435.719 551.01,436.03C551.59,436.577 552.086,437.207 552.48,437.9C553.134,439.059 553.498,440.36 553.54,441.69C553.54,443.98 552.7,445.18 552.61,445.11C552.52,445.04 552.94,443.78 552.69,441.75C552.55,440.581 552.154,439.458 551.53,438.46C551.171,437.88 550.729,437.354 550.22,436.9C549.67,436.37 549.08,436.07 548.91,436.31C548.584,436.798 548.489,437.406 548.65,437.97C548.75,438.651 548.914,439.32 549.14,439.97C549.525,441.107 550.074,442.182 550.77,443.16C552,444.89 553.05,445.68 552.94,445.84Z" style="fill:rgb(38,50,56);fill-rule:nonzero;"/>
    </g>
    <g transform="matrix(0.33976,0,0,0.33976,-5.49855,7.17697)">
        <path d="M549.27,444.25C548.825,443.953 548.407,443.619 548.02,443.25L544.72,440.25C541.93,437.75 538.12,434.25 533.78,430.57C529.44,426.89 525.72,423.26 523,420.69C521.65,419.4 520.56,418.35 519.82,417.61C519.421,417.242 519.047,416.848 518.7,416.43C519.149,416.725 519.571,417.059 519.96,417.43L523.25,420.43C526.03,422.93 529.84,426.43 534.13,430.18C538.42,433.93 542.25,437.42 544.97,439.98C546.33,441.27 547.41,442.32 548.16,443.06C548.565,443.422 548.937,443.821 549.27,444.25Z" style="fill:rgb(235,153,110);fill-rule:nonzero;"/>
    </g>
    <g transform="matrix(0.33976,0,0,0.33976,-5.49855,7.17697)">
        <path d="M445.2,393.42C439.672,385.261 433.179,377.8 425.86,371.2L320.52,454.2C331.86,457.59 355.73,458.04 366.77,453.8C377.81,449.56 393,440 402.85,433.4L444.41,405.79C445.432,405.195 446.334,404.415 447.07,403.49C449.15,400.5 447.24,396.43 445.2,393.42Z" style="fill:rgb(38,50,56);fill-rule:nonzero;"/>
    </g>
    <g transform="matrix(0.33976,0,0,0.33976,-5.49855,7.17697)">
        <path d="M431.45,326.26C431.45,326.26 453.02,322.26 464.17,327.63C475.32,333 535.62,396.05 535.62,396.05L507.26,419L415.19,354.31L431.45,326.26Z" style="fill:rgb(38,50,56);fill-rule:nonzero;"/>
    </g>
    <g transform="matrix(0.33976,0,0,0.33976,-5.49855,7.17697)">
        <path d="M297.93,454C297.93,454 316.03,459.48 333.68,456.19C351.33,452.9 415.43,394.55 415.43,394.55L420.18,394.55C420.18,394.55 419.45,400.77 422.74,404.06C426.03,407.35 486.09,446.34 486.09,446.34L522.3,412.89C522.3,412.89 439.82,329.79 430,327.13C420.18,324.47 409.89,321.9 400,328.49C390.11,335.08 297.93,388 297.93,388L297.93,454Z" style="fill:rgb(38,50,56);fill-rule:nonzero;"/>
    </g>
    <g transform="matrix(0.33976,0,0,0.33976,-5.49855,7.17697)">
        <path d="M502.85,461.19C502.007,460.497 501.227,459.731 500.52,458.9C499.13,457.42 497.28,455.33 495.33,452.9C493.38,450.47 491.7,448.28 490.53,446.63C489.853,445.768 489.254,444.848 488.74,443.88C489.493,444.672 490.188,445.518 490.82,446.41C492.07,448 493.82,450.19 495.73,452.57C497.64,454.95 499.48,457.08 500.79,458.57C501.537,459.394 502.225,460.27 502.85,461.19Z" style="fill:rgb(38,50,56);fill-rule:nonzero;"/>
    </g>
    <g transform="matrix(0.33976,0,0,0.33976,-5.49855,7.17697)">
        <path d="M503.29,456.18C501.154,453.674 499.151,451.057 497.29,448.34C495.28,445.72 493.404,443 491.67,440.19C493.81,442.693 495.813,445.31 497.67,448.03C499.684,450.647 501.56,453.367 503.29,456.18Z" style="fill:rgb(38,50,56);fill-rule:nonzero;"/>
    </g>
    <g transform="matrix(0.33976,0,0,0.33976,-5.49855,7.17697)">
        <path d="M507.22,455.93C507.09,456.01 504.45,451.62 501.32,446.13C498.19,440.64 495.75,436.13 495.87,436.07C495.99,436.01 498.64,440.39 501.77,445.87C504.9,451.35 507.34,455.86 507.22,455.93Z" style="fill:rgb(38,50,56);fill-rule:nonzero;"/>
    </g>
    <g transform="matrix(0.33976,0,0,0.33976,-5.49855,7.17697)">
        <path d="M511.23,450.17C509.038,447.452 506.986,444.625 505.08,441.7C501.81,436.94 499.25,433.02 499.36,432.94C499.47,432.86 502.23,436.65 505.51,441.41C508.79,446.17 511.35,450.09 511.23,450.17Z" style="fill:rgb(38,50,56);fill-rule:nonzero;"/>
    </g>
    <g transform="matrix(0.33976,0,0,0.33976,-5.49855,7.17697)">
        <path d="M513.64,444.5C513.049,443.808 512.52,443.065 512.06,442.28C511.13,440.88 509.84,438.95 508.38,436.85C506.92,434.75 505.57,432.85 504.58,431.5C504.008,430.793 503.499,430.037 503.06,429.24C503.729,429.844 504.335,430.514 504.87,431.24C505.94,432.55 507.35,434.41 508.81,436.52C510.27,438.63 511.52,440.6 512.37,442.06C512.88,442.825 513.305,443.643 513.64,444.5Z" style="fill:rgb(38,50,56);fill-rule:nonzero;"/>
    </g>
    <g transform="matrix(0.33976,0,0,0.33976,-5.49855,7.17697)">
        <path d="M516.46,439.53C515.929,438.913 515.463,438.243 515.07,437.53L511.94,432.53L508.77,427.53C508.294,426.864 507.882,426.154 507.54,425.41C508.124,425.99 508.641,426.634 509.08,427.33C509.97,428.56 511.15,430.33 512.38,432.26C513.61,434.19 514.67,436.03 515.38,437.37C515.818,438.048 516.18,438.773 516.46,439.53Z" style="fill:rgb(38,50,56);fill-rule:nonzero;"/>
    </g>
    <g transform="matrix(0.33976,0,0,0.33976,-5.49855,7.17697)">
        <path d="M521.26,436.77C520.697,436.113 520.198,435.403 519.77,434.65C518.9,433.32 517.69,431.48 516.29,429.49C514.89,427.5 513.59,425.73 512.64,424.49C512.076,423.833 511.577,423.123 511.15,422.37C511.806,422.935 512.399,423.569 512.92,424.26C513.92,425.49 515.32,427.26 516.72,429.26C518.12,431.26 519.29,433.14 520.09,434.53C520.556,435.234 520.948,435.985 521.26,436.77Z" style="fill:rgb(38,50,56);fill-rule:nonzero;"/>
    </g>
    <g transform="matrix(0.33976,0,0,0.33976,-5.49855,7.17697)">
        <path d="M526.51,432.7C525.838,432.038 525.226,431.319 524.68,430.55C523.59,429.19 522.07,427.33 520.34,425.31C518.61,423.29 517,421.51 515.83,420.22C515.151,419.563 514.532,418.847 513.98,418.08C514.749,418.633 515.456,419.266 516.09,419.97C517.34,421.19 519,422.97 520.74,424.97C522.48,426.97 523.95,428.91 524.97,430.33C525.564,431.065 526.08,431.859 526.51,432.7Z" style="fill:rgb(38,50,56);fill-rule:nonzero;"/>
    </g>
    <g transform="matrix(0.33976,0,0,0.33976,-5.49855,7.17697)">
        <path d="M430,327.13C430.426,327.191 430.838,327.323 431.22,327.52C432.317,328.078 433.367,328.723 434.36,329.45C436.98,331.29 440.58,334.2 444.9,337.94C453.54,345.42 465.07,356.2 477.61,368.3C490.15,380.4 501.34,391.54 509.4,399.63L518.9,409.26L521.46,411.9L522.12,412.6C522.195,412.679 522.265,412.762 522.33,412.85L522.08,412.63C521.9,412.47 521.67,412.25 521.39,411.97L518.76,409.4L509.14,399.89C501.02,391.89 489.79,380.78 477.25,368.68C464.71,356.58 453.25,345.76 444.66,338.22C440.37,334.45 436.82,331.5 434.24,329.61C433.267,328.868 432.241,328.2 431.17,327.61C430.793,327.419 430.402,327.258 430,327.13Z" style="fill:rgb(69,90,100);fill-rule:nonzero;"/>
    </g>
    <g transform="matrix(0.33976,0,0,0.33976,-5.49855,7.17697)">
        <path d="M426.16,362.86C426.115,363.281 426.028,363.696 425.9,364.1C425.67,364.99 425.37,366.1 425.02,367.45C424.29,370.28 423.29,374.19 422.4,378.55C421.51,382.91 420.95,386.91 420.66,389.81C420.51,391.26 420.4,392.44 420.34,393.25C420.333,393.675 420.28,394.097 420.18,394.51C420.131,394.088 420.131,393.662 420.18,393.24C420.18,392.42 420.23,391.24 420.33,389.78C420.623,385.97 421.157,382.182 421.93,378.44C422.82,374.06 423.88,370.16 424.71,367.35C425.13,365.95 425.48,364.82 425.71,364.04C425.818,363.632 425.969,363.236 426.16,362.86Z" style="fill:rgb(69,90,100);fill-rule:nonzero;"/>
    </g>
    <g transform="matrix(0.33976,0,0,0.33976,-5.49855,7.17697)">
        <path d="M406.31,363.89C406.501,364.262 406.649,364.654 406.75,365.06C407.02,365.93 407.37,367.06 407.75,368.31L411.12,379C412.39,383.14 413.53,386.88 414.41,389.74L415.36,393.01C415.498,393.406 415.595,393.815 415.65,394.23C415.442,393.865 415.281,393.475 415.17,393.07C414.9,392.32 414.52,391.22 414.06,389.85C413.14,387.12 411.92,383.34 410.62,379.15C409.32,374.96 408.19,371.15 407.43,368.37C407.04,366.99 406.74,365.86 406.55,365.08C406.429,364.693 406.349,364.294 406.31,363.89Z" style="fill:rgb(69,90,100);fill-rule:nonzero;"/>
    </g>
    <g transform="matrix(0.33976,0,0,0.33976,-5.49855,7.17697)">
        <path d="M436.78,413.87C436.63,413.804 436.489,413.72 436.36,413.62L435.16,412.84L430.62,409.77C428.67,408.42 426.28,406.77 423.62,404.77C422.902,404.263 422.232,403.691 421.62,403.06C421.08,402.283 420.712,401.4 420.54,400.47C420.13,398.497 419.936,396.485 419.96,394.47L420.17,394.68L415.42,394.68L415.56,394.63C407.65,401.88 398.08,410.48 387.56,419.42C372.93,431.82 359.16,442.48 348.43,449.07C344.253,451.774 339.789,454.008 335.12,455.73C334.28,455.99 333.53,456.21 332.87,456.36C332.21,456.51 331.64,456.6 331.17,456.64L330.12,456.69L329.76,456.69L330.12,456.64L331.12,456.54C331.58,456.48 332.12,456.34 332.79,456.21C333.46,456.08 334.19,455.81 335.02,455.54C339.64,453.751 344.058,451.478 348.2,448.76C358.85,442.11 372.56,431.41 387.2,419.02C397.72,410.09 407.3,401.52 415.2,394.3L415.26,394.24L420.31,394.24L420.31,394.45C420.273,396.416 420.448,398.381 420.83,400.31C420.985,401.189 421.326,402.024 421.83,402.76C422.414,403.375 423.053,403.934 423.74,404.43C426.38,406.43 428.74,408.13 430.67,409.51L435.15,412.67L436.31,413.5C436.479,413.606 436.637,413.73 436.78,413.87Z" style="fill:rgb(69,90,100);fill-rule:nonzero;"/>
    </g>
    <g transform="matrix(0.33976,0,0,0.33976,-5.49855,7.17697)">
        <path d="M438.15,393.6C442.78,390.05 453.28,380.97 457.15,376.6C461.571,371.545 465.138,365.803 467.71,359.6C458.3,365.57 443,383.58 438.15,393.6Z" style="fill:rgb(255,190,157);fill-rule:nonzero;"/>
    </g>
    <g transform="matrix(0.33976,0,0,0.33976,-5.49855,7.17697)">
        <path d="M334.29,226.12L326.29,232.84C326.29,232.84 308.13,240.13 297.94,248.57C288.94,256.04 276.94,309.92 276.94,309.92L276.94,404.1C276.94,404.1 257.17,439.88 256.56,444.1C256.193,448.289 256.103,452.499 256.29,456.7L315.59,457C312.85,451.41 305.42,449.36 305.42,449.36C307.09,422.65 307.93,402.09 315.03,389.98C322.13,377.87 360.09,359.98 360.09,359.98L360.09,323.26L334.29,226.12Z" style="fill:rgb(58,195,189);fill-rule:nonzero;"/>
    </g>
    <g transform="matrix(0.33976,0,0,0.33976,-5.49855,7.17697)">
        <path d="M360.08,328.49C359.96,328.35 359.853,328.199 359.76,328.04L358.88,326.68L355.59,321.5L344,303L343.94,302.92L343.94,302.82C345.14,298.9 346.45,294.58 347.84,290.04L348.08,290.36L336.25,290.36L336.19,290.29C335.507,289.371 335.008,288.328 334.72,287.22C333.61,283.436 332.728,279.589 332.08,275.7C331.39,271.94 330.8,268.31 330.28,264.85C329.28,257.92 328.41,251.66 327.75,246.41C327.09,241.16 326.61,236.89 326.29,233.95C326.15,232.5 326.03,231.36 325.95,230.55L325.87,229.67C325.857,229.567 325.857,229.463 325.87,229.36C325.903,229.457 325.923,229.558 325.93,229.66C325.93,229.89 326,230.18 326.05,230.54C326.16,231.35 326.31,232.48 326.49,233.92C326.88,236.92 327.43,241.14 328.11,246.36C328.79,251.58 329.68,257.86 330.75,264.78C331.29,268.23 331.88,271.86 332.58,275.6C333.238,279.467 334.116,283.293 335.21,287.06C335.479,288.084 335.933,289.05 336.55,289.91L336.37,289.84L348.46,289.84L348.36,290.16C346.96,294.7 345.63,299.02 344.42,302.93L344.42,302.74C349.12,310.41 353.06,316.81 355.84,321.34C357.19,323.58 358.26,325.34 359.02,326.59L359.84,327.98C359.934,328.143 360.014,328.314 360.08,328.49Z" style="fill:rgb(38,50,56);fill-rule:nonzero;"/>
    </g>
    <g transform="matrix(0.33976,0,0,0.33976,-5.49855,7.17697)">
        <path d="M284.74,392.79C284.86,392.89 282.86,395.39 280.74,398.72C279.531,400.792 278.164,402.768 276.65,404.63C276.908,403.972 277.244,403.348 277.65,402.77C278.31,401.65 279.23,400.11 280.31,398.44C281.231,397.011 282.233,395.635 283.31,394.32C283.715,393.747 284.196,393.232 284.74,392.79Z" style="fill:rgb(38,50,56);fill-rule:nonzero;"/>
    </g>
    <g transform="matrix(0.33976,0,0,0.33976,-5.49855,7.17697)">
        <path d="M270.62,441.4C271.078,441.39 271.537,441.42 271.99,441.49C272.88,441.58 274.15,441.75 275.72,441.97C278.86,442.43 283.18,443.2 287.89,444.29C292.6,445.38 296.82,446.61 299.84,447.58C301.35,448.07 302.56,448.49 303.4,448.8C303.839,448.932 304.265,449.106 304.67,449.32C304.212,449.261 303.763,449.151 303.33,448.99L299.73,447.94C296.73,447.05 292.48,445.94 287.73,444.8C282.98,443.66 278.73,442.89 275.62,442.34L271.93,441.69C271.484,441.641 271.045,441.544 270.62,441.4Z" style="fill:rgb(38,50,56);fill-rule:nonzero;"/>
    </g>
    <g transform="matrix(0.33976,0,0,0.33976,-5.49855,7.17697)">
        <g opacity="0.3">
            <path d="M313.61,391.84C312.56,389.66 308.33,387.66 306.38,386.23C292.21,375.84 281.72,360.37 278.77,343.23C279.56,357.7 283.15,371.85 286.77,385.89C287.67,389.4 288.6,393 290.77,395.89C292.94,398.78 296.58,400.89 300.11,400.09C300.49,403.32 301.62,407.34 304.84,407.75C306.613,407.842 308.306,406.984 309.28,405.5C310.28,404.09 311.09,399.36 311.55,397.68C312.103,395.689 312.791,393.738 313.61,391.84Z" style="fill-rule:nonzero;"/>
        </g>
    </g>
    <g transform="matrix(0.33976,0,0,0.33976,-5.49855,7.17697)">
        <g opacity="0.3">
            <path d="M336.56,290.08L343.18,292.33C341.35,295.71 339.47,299.58 340.64,303.24C341.427,305.329 342.647,307.227 344.22,308.81C348.01,312.97 356.22,324.59 360.08,328.49L344.2,302.88L348.12,290.11L336.56,290.08Z" style="fill-rule:nonzero;"/>
        </g>
    </g>
    <g transform="matrix(0.33976,0,0,0.33976,-5.49855,7.17697)">
        <path d="M416.78,288.94L416.95,284.13L420.64,284.13L420.64,278.93C430.568,278.025 440.578,278.992 450.15,281.78L450.15,285L453,285L453,290.28L450.65,291.03L445.79,324.56L420,324.56L418.66,289.86L416.78,288.94Z" style="fill:rgb(224,224,224);fill-rule:nonzero;"/>
    </g>
    <g transform="matrix(0.33976,0,0,0.33976,-5.49855,7.17697)">
        <path d="M449.75,282.23C449.401,282.432 449.028,282.59 448.64,282.7C448.205,282.872 447.761,283.019 447.31,283.14C446.78,283.29 446.18,283.49 445.5,283.62C443.917,283.98 442.309,284.218 440.69,284.33C438.706,284.445 436.716,284.398 434.74,284.19C432.766,283.948 430.816,283.54 428.91,282.97C427.359,282.497 425.847,281.902 424.39,281.19C423.75,280.91 423.22,280.58 422.74,280.32C422.26,280.06 421.85,279.8 421.53,279.59C421.17,279.394 420.834,279.156 420.53,278.88C420.58,278.79 422.01,279.73 424.53,280.88C425.995,281.529 427.502,282.081 429.04,282.53C432.81,283.627 436.739,284.08 440.66,283.87C442.258,283.776 443.848,283.579 445.42,283.28C448.11,282.73 449.72,282.14 449.75,282.23Z" style="fill:rgb(38,50,56);fill-rule:nonzero;"/>
    </g>
    <g transform="matrix(0.33976,0,0,0.33976,-5.49855,7.17697)">
        <path d="M450.43,285C450.105,285.246 449.752,285.454 449.38,285.62C448.387,286.111 447.365,286.542 446.32,286.91C439.325,289.372 431.665,289.183 424.8,286.38C423.769,285.967 422.767,285.486 421.8,284.94C421.439,284.761 421.103,284.536 420.8,284.27C420.8,284.19 422.34,285.07 424.95,286.04C431.773,288.608 439.269,288.791 446.21,286.56C448.85,285.76 450.39,285 450.43,285Z" style="fill:rgb(38,50,56);fill-rule:nonzero;"/>
    </g>
    <g transform="matrix(0.33976,0,0,0.33976,-5.49855,7.17697)">
        <path d="M451,290.88C450.688,291.233 450.302,291.513 449.87,291.7C448.723,292.262 447.515,292.688 446.27,292.97C444.438,293.431 442.566,293.719 440.68,293.83C438.373,293.93 436.061,293.884 433.76,293.69C429.587,293.352 425.479,292.447 421.55,291C420.04,290.45 418.85,289.94 418.03,289.57C417.594,289.401 417.175,289.19 416.78,288.94C417.237,289.04 417.683,289.188 418.11,289.38C418.94,289.69 420.16,290.15 421.67,290.65C425.608,291.985 429.695,292.831 433.84,293.17C436.118,293.361 438.405,293.421 440.69,293.35C442.551,293.263 444.401,293.016 446.22,292.61C447.454,292.365 448.66,291.997 449.82,291.51C450.63,291.16 451,290.84 451,290.88Z" style="fill:rgb(38,50,56);fill-rule:nonzero;"/>
    </g>
    <g transform="matrix(0.33976,0,0,0.33976,-5.49855,7.17697)">
        <path d="M420.65,283.09C421.555,284.1 422.834,284.7 424.19,284.75C424.19,284.63 424.28,282.75 424.28,282.75C423.967,282.365 423.579,282.049 423.14,281.82C422.169,281.341 421.297,280.683 420.57,279.88" style="fill:rgb(69,90,100);fill-rule:nonzero;"/>
    </g>
    <g transform="matrix(0.33976,0,0,0.33976,-5.49855,7.17697)">
        <path d="M343.65,343L396.33,314L413.43,301.11L428.43,295.3L447.87,295.3C447.87,295.3 449.45,299.99 446.7,300.64C443.31,301.45 433.18,302.43 433.18,302.43L423.98,306.03C423.98,306.03 450.91,303.92 451.38,304.63C451.85,305.34 450.71,308.82 447.9,309.99C445.09,311.16 429.13,313.99 429.13,313.99C431.658,315.519 434.625,316.163 437.56,315.82C442.25,315.16 449.51,311.88 450.45,313.75C451.39,315.62 448.34,319.65 448.34,319.65C448.662,321.635 447.952,323.653 446.46,325C443.89,327.57 439.67,329 435.69,329.69C431.71,330.38 419.99,331.09 419.06,331.09C418.13,331.09 404.54,333.43 404.54,333.43L334.79,380.9L343.65,343Z" style="fill:rgb(255,190,157);fill-rule:nonzero;"/>
    </g>
    <g transform="matrix(0.33976,0,0,0.33976,-5.49855,7.17697)">
        <path d="M448.88,319.43C448.615,319.626 448.326,319.787 448.02,319.91C447.45,320.19 446.61,320.56 445.55,320.91C439.993,322.998 434.052,323.867 428.13,323.46C427,323.37 426.13,323.27 425.47,323.16C425.127,323.139 424.79,323.065 424.47,322.94C424.47,322.86 425.87,323.02 428.11,323.09C431.035,323.187 433.964,323.023 436.86,322.6C439.753,322.184 442.604,321.514 445.38,320.6C447.56,319.9 448.84,319.35 448.88,319.43Z" style="fill:rgb(235,153,110);fill-rule:nonzero;"/>
    </g>
    <g transform="matrix(0.33976,0,0,0.33976,-5.49855,7.17697)">
        <path d="M276.93,309.92C276.93,334.92 279.11,358.37 290.52,378.68C292.85,382.83 296.07,387.05 300.72,388.02L305.41,388.02L307.78,390.55C307.78,390.55 325.83,398.68 329.14,396.88C332.45,395.08 339.84,358.69 339.84,358.69L344.5,339.09L334.29,340.82C334.29,340.82 331.9,315.23 328.84,297.65C327.42,289.44 326.73,281.01 323.68,273.25C320.63,265.49 315.31,258.25 307.78,254.7" style="fill:rgb(58,195,189);fill-rule:nonzero;"/>
    </g>
    <g transform="matrix(0.33976,0,0,0.33976,-5.49855,7.17697)">
        <path d="M307.78,254.7C307.78,254.7 308.34,254.94 309.38,255.49C310.88,256.334 312.296,257.319 313.61,258.43C318.485,262.731 322.156,268.229 324.26,274.38C325.744,278.696 326.815,283.142 327.46,287.66L328.65,295.27C329.07,297.88 329.56,300.59 329.98,303.4C331.71,314.6 333.19,327.19 334.53,340.79L334.24,340.57L344.46,338.84L344.84,338.78L344.75,339.15L340.7,356.21C339.96,359.13 339.42,362.12 338.7,365.13C337.98,368.14 337.37,371.13 336.65,374.21C335.72,378.21 334.74,382.12 333.65,385.97C333.11,387.9 332.55,389.81 331.92,391.68C331.59,392.62 331.27,393.55 330.92,394.46C330.73,394.92 330.51,395.37 330.28,395.81C330.16,396.037 330.023,396.254 329.87,396.46L329.64,396.77L329.3,397.05C328.345,397.424 327.299,397.501 326.3,397.27C325.339,397.126 324.387,396.926 323.45,396.67C321.59,396.18 319.78,395.58 318,394.94C314.44,393.66 311,392.25 307.68,390.77L305.3,388.24L305.48,388.31L300.74,388.31C297.693,387.503 295.021,385.656 293.19,383.09C292.268,381.908 291.432,380.662 290.69,379.36C289.96,378.07 289.31,376.77 288.63,375.5C286.182,370.598 284.174,365.488 282.63,360.23C281.225,355.558 280.1,350.806 279.26,346C278.54,341.55 278.04,337.42 277.72,333.68C277.06,326.18 276.96,320.22 276.91,316.15L276.91,310.29C276.902,310.157 276.902,310.023 276.91,309.89C276.918,309.757 276.91,310.03 276.91,310.29L276.91,311.49C276.91,312.55 276.91,314.12 277,316.15C277.1,320.22 277.24,326.15 277.95,333.65C278.29,337.39 278.81,341.5 279.55,345.94C280.373,350.701 281.479,355.41 282.86,360.04C284.41,365.267 286.417,370.346 288.86,375.22C289.54,376.48 290.19,377.78 290.91,379.05C291.644,380.331 292.469,381.558 293.38,382.72C295.155,385.182 297.734,386.951 300.67,387.72L305.41,387.72L305.48,387.79L307.86,390.32L307.79,390.26C311.1,391.73 314.53,393.14 318.07,394.41C319.84,395.04 321.64,395.63 323.48,396.12C324.402,396.366 325.337,396.563 326.28,396.71C327.167,396.913 328.094,396.857 328.95,396.55L329.18,396.37L329.38,396.1C329.514,395.907 329.637,395.706 329.75,395.5C329.975,395.077 330.179,394.643 330.36,394.2C330.75,393.31 331.07,392.39 331.36,391.46C331.99,389.6 332.55,387.7 333.08,385.77C334.15,381.93 335.08,378.01 336.08,374.03C336.8,371.03 337.48,367.96 338.14,364.96C338.8,361.96 339.36,358.96 340.09,356.04C341.49,350.19 342.85,344.48 344.16,338.97L344.44,339.28L334.23,341L333.97,341L333.97,340.74C332.65,327.15 331.19,314.55 329.5,303.36C327.5,292.23 326.77,282.17 323.9,274.36C321.841,268.234 318.234,262.743 313.43,258.42C312.136,257.297 310.744,256.293 309.27,255.42C308.76,255.12 308.36,254.93 308.1,254.78L307.78,254.7Z" style="fill:rgb(38,50,56);fill-rule:nonzero;"/>
    </g>
    <g transform="matrix(0.33976,0,0,0.33976,-5.49855,7.17697)">
        <path d="M305.41,388C305.381,387.801 305.381,387.599 305.41,387.4C305.41,387.01 305.49,386.4 305.57,385.7C305.72,384.23 305.99,382.1 306.41,379.48C306.83,376.86 307.41,373.75 308.25,370.34C309.107,366.611 310.399,362.997 312.1,359.57C313.073,357.836 314.241,356.219 315.58,354.75C316.802,353.368 318.108,352.062 319.49,350.84C321.827,348.785 324.296,346.884 326.88,345.15C329.08,343.67 330.93,342.58 332.23,341.85C332.87,341.49 333.38,341.22 333.73,341.04C333.903,340.937 334.087,340.857 334.28,340.8C334.121,340.924 333.954,341.038 333.78,341.14L332.33,342.03C331.07,342.81 329.25,343.94 327.09,345.46C324.549,347.223 322.117,349.14 319.81,351.2C318.453,352.421 317.167,353.72 315.96,355.09C314.653,356.537 313.509,358.123 312.55,359.82C310.872,363.209 309.587,366.779 308.72,370.46C307.85,373.84 307.24,376.94 306.72,379.54C306.2,382.14 305.94,384.26 305.72,385.73C305.62,386.42 305.53,386.97 305.47,387.42C305.468,387.615 305.448,387.809 305.41,388Z" style="fill:rgb(38,50,56);fill-rule:nonzero;"/>
    </g>
    <g transform="matrix(0.33976,0,0,0.33976,-5.49855,7.17697)">
        <path d="M334.29,340.82C334.128,340.89 333.961,340.946 333.79,340.99L332.34,341.37C331.7,341.53 330.93,341.73 330.04,342C329.15,342.27 328.14,342.52 327.04,342.89C324.81,343.56 322.2,344.49 319.35,345.64C316.271,346.91 313.267,348.353 310.35,349.96C307.45,351.6 304.663,353.434 302.01,355.45C300.83,356.45 299.66,357.32 298.67,358.27L297.22,359.6L295.95,360.91C295.12,361.73 294.45,362.55 293.85,363.25L293.01,364.25L292.36,365.12L291.45,366.31C291.349,366.453 291.231,366.584 291.1,366.7C290.969,366.816 291.17,366.54 291.36,366.25L292.2,365C292.39,364.72 292.59,364.42 292.82,364.1L293.63,363.1C294.21,362.38 294.86,361.54 295.63,360.7L296.88,359.36L298.33,357.99C299.33,356.99 300.48,356.12 301.66,355.12C304.318,353.063 307.122,351.201 310.05,349.55C312.988,347.926 316.024,346.487 319.14,345.24C322.01,344.11 324.65,343.24 326.9,342.57C328.02,342.23 329.05,341.98 329.95,341.75C330.85,341.52 331.63,341.34 332.27,341.22L333.74,340.92C333.917,340.857 334.102,340.824 334.29,340.82Z" style="fill:rgb(38,50,56);fill-rule:nonzero;"/>
    </g>
    <g transform="matrix(0.33976,0,0,0.33976,-5.49855,7.17697)">
        <path d="M288.88,298.15C289.049,298.182 289.212,298.243 289.36,298.33L290.7,298.95C291.87,299.49 293.53,300.31 295.57,301.37C299.65,303.46 305.21,306.53 311.17,310.22C317.13,313.91 322.34,317.53 326.04,320.22C327.89,321.58 329.36,322.7 330.37,323.5L331.52,324.43C331.659,324.532 331.786,324.65 331.9,324.78C331.737,324.714 331.585,324.622 331.45,324.51L330.25,323.67L325.82,320.52C322.08,317.88 316.82,314.32 310.9,310.63C304.98,306.94 299.43,303.84 295.4,301.63L290.61,299.07L289.31,298.36C289.159,298.307 289.014,298.237 288.88,298.15Z" style="fill:rgb(38,50,56);fill-rule:nonzero;"/>
    </g>
    <g transform="matrix(0.33976,0,0,0.33976,-5.49855,7.17697)">
        <g opacity="0.3">
            <path d="M301.5,344.22C299.585,345.132 298.004,346.622 296.98,348.48C296.11,350.39 296.51,353.02 298.33,354.07C300.15,355.12 302.52,354.49 304.33,353.44C309.176,350.478 314.183,347.791 319.33,345.39C323.9,343.39 328.95,342.18 334.33,340.82C323.21,339.54 311.24,338.79 301.5,344.22Z" style="fill-rule:nonzero;"/>
        </g>
    </g>
    <g transform="matrix(0.33976,0,0,0.33976,-5.49855,7.17697)">
        <path d="M357,113.5C345,113.34 332.87,118.16 324.85,127.06C316.83,135.96 313.28,148.95 316.47,160.51L389.8,126.4C380.67,118.58 369,113.66 357,113.5Z" style="fill:rgb(58,195,189);fill-rule:nonzero;"/>
    </g>
    <g transform="matrix(0.33976,0,0,0.33976,-5.49855,7.17697)">
        <path d="M349.14,121.28C349.14,121.28 282.14,136.28 297.74,187.72C310.49,229.72 398.21,219.85 414.32,193.57C414.32,193.57 433.77,167.8 420.87,143.69C407.97,119.58 375.76,114.61 349.14,121.28Z" style="fill:rgb(58,195,189);fill-rule:nonzero;"/>
    </g>
    <g transform="matrix(0.33976,0,0,0.33976,-5.49855,7.17697)">
        <g opacity="0.3">
            <path d="M383.78,136C365.64,131.72 345.87,136.87 331.08,148.2C316.29,159.53 311,183.89 306.71,202C306.71,202 318.42,216.27 352.86,216.88C395.8,217.63 410.76,200.35 417.43,188.67C419.569,184.924 421.331,180.974 422.69,176.88C418,158.88 401.92,140.3 383.78,136Z" style="fill-rule:nonzero;"/>
        </g>
    </g>
    <g transform="matrix(0.33976,0,0,0.33976,-5.49855,7.17697)">
        <path d="M380.24,119.21C379.97,119.232 379.7,119.232 379.43,119.21L377.11,119.08L375.43,118.97L373.43,118.97C372,118.97 370.37,118.88 368.57,118.97L365.74,119.07C364.74,119.07 363.74,119.24 362.69,119.32C360.57,119.46 358.34,119.81 355.98,120.14C350.897,120.994 345.883,122.221 340.98,123.81C336.094,125.48 331.344,127.523 326.77,129.92C324.7,131.1 322.7,132.16 320.94,133.35C320.06,133.93 319.18,134.45 318.38,135.02L316.09,136.68C314.6,137.68 313.38,138.78 312.26,139.68C311.71,140.14 311.18,140.55 310.72,140.95L309.48,142.08L307.76,143.64C307.568,143.831 307.357,144.002 307.13,144.15C307.301,143.942 307.484,143.745 307.68,143.56L309.34,141.93L310.55,140.76C311.01,140.35 311.55,139.93 312.07,139.46C313.18,138.54 314.39,137.46 315.87,136.39L318.15,134.7C318.95,134.12 319.83,133.59 320.71,133C322.46,131.79 324.46,130.7 326.54,129.51C331.124,127.073 335.896,125.006 340.81,123.33C345.747,121.722 350.803,120.501 355.93,119.68C358.3,119.36 360.55,119.02 362.67,118.9C363.73,118.83 364.75,118.71 365.74,118.68L368.58,118.61C370.39,118.52 372.02,118.61 373.46,118.67C374.17,118.67 374.84,118.67 375.46,118.74L377.13,118.89L379.45,119.12C379.715,119.126 379.98,119.157 380.24,119.21Z" style="fill-rule:nonzero;"/>
    </g>
    <g transform="matrix(0.33976,0,0,0.33976,-5.49855,7.17697)">
        <path d="M413.3,232.9C411.75,229.04 413.7,221.9 413.9,217.74C414.626,202.834 413.184,187.902 409.62,173.41C407.62,165.2 404.84,157.02 399.88,150.18C394.92,143.34 385.1,136.27 376.7,135.31L370.82,212.67C370.55,218.18 370.6,223.84 372.46,229.04L381.84,228.98L390.27,236.21C390.27,236.21 410.8,244.93 415.19,248.89C415.732,249.415 416.215,249.999 416.63,250.63C416.591,244.568 415.463,238.563 413.3,232.9Z" style="fill:rgb(38,50,56);fill-rule:nonzero;"/>
    </g>
    <g transform="matrix(0.33976,0,0,0.33976,-5.49855,7.17697)">
        <path d="M328.08,161.44C327.236,154.112 331.853,147.177 338.94,145.13L365.75,137.36C377.91,134.9 392.35,145.96 394.29,158.21C396.45,171.83 398.54,188.54 397.89,198.91C396.56,219.77 381.06,223.91 381.06,223.91L385.42,252.43L375.19,317.58L339.14,253.92L328.08,161.44Z" style="fill:rgb(255,190,157);fill-rule:nonzero;"/>
    </g>
    <g transform="matrix(0.33976,0,0,0.33976,-5.49855,7.17697)">
        <path d="M389.8,173.76C389.941,175.177 388.921,176.469 387.51,176.66C387.368,176.684 387.225,176.697 387.081,176.697C385.832,176.697 384.759,175.775 384.57,174.54C384.418,173.12 385.444,171.821 386.86,171.64C387.004,171.615 387.151,171.602 387.297,171.602C388.546,171.602 389.617,172.525 389.8,173.76Z" style="fill:rgb(38,50,56);fill-rule:nonzero;"/>
    </g>
    <g transform="matrix(0.33976,0,0,0.33976,-5.49855,7.17697)">
        <path d="M390.77,167.35C390.48,167.73 388.34,166.44 385.51,166.71C382.68,166.98 380.73,168.6 380.39,168.29C380.22,168.15 380.49,167.49 381.34,166.75C382.488,165.785 383.906,165.198 385.4,165.07C386.873,164.925 388.354,165.251 389.63,166C390.56,166.59 390.92,167.19 390.77,167.35Z" style="fill:rgb(38,50,56);fill-rule:nonzero;"/>
    </g>
    <g transform="matrix(0.33976,0,0,0.33976,-5.49855,7.17697)">
        <path d="M364,176.3C364.147,177.718 363.124,179.014 361.71,179.2C361.565,179.225 361.418,179.238 361.271,179.238C360.021,179.238 358.948,178.316 358.76,177.08C358.613,175.662 359.636,174.366 361.05,174.18C361.198,174.153 361.347,174.14 361.497,174.14C362.746,174.14 363.817,175.065 364,176.3Z" style="fill:rgb(38,50,56);fill-rule:nonzero;"/>
    </g>
    <g transform="matrix(0.33976,0,0,0.33976,-5.49855,7.17697)">
        <path d="M362.94,170.51C362.65,170.89 360.51,169.6 357.68,169.87C354.85,170.14 352.9,171.76 352.56,171.45C352.39,171.31 352.66,170.65 353.51,169.91C354.658,168.945 356.076,168.358 357.57,168.23C359.043,168.085 360.524,168.411 361.8,169.16C362.73,169.75 363.09,170.35 362.94,170.51Z" style="fill:rgb(38,50,56);fill-rule:nonzero;"/>
    </g>
    <g transform="matrix(0.33976,0,0,0.33976,-5.49855,7.17697)">
        <path d="M375.22,190.58C375.22,190.42 376.93,189.95 379.75,189.31C380.47,189.17 381.14,188.96 381.21,188.45C381.207,187.696 380.97,186.962 380.53,186.35L377.87,181C374.15,173.43 371.39,167.18 371.69,167C371.99,166.82 375.26,172.87 378.98,180.44C379.867,182.313 380.723,184.097 381.55,185.79C382.086,186.622 382.313,187.617 382.19,188.6C382.029,189.138 381.626,189.572 381.1,189.77C380.711,189.918 380.304,190.015 379.89,190.06C377,190.55 375.25,190.74 375.22,190.58Z" style="fill:rgb(38,50,56);fill-rule:nonzero;"/>
    </g>
    <g transform="matrix(0.33976,0,0,0.33976,-5.49855,7.17697)">
        <path d="M381.05,223.93C371.161,225.018 361.16,223.386 352.13,219.21C343.1,215.034 360.75,232.87 381.84,228.98L381.05,223.93Z" style="fill:rgb(235,153,110);fill-rule:nonzero;"/>
    </g>
    <g transform="matrix(0.33976,0,0,0.33976,-5.49855,7.17697)">
        <path d="M374.67,197.52C373.442,196.247 371.64,195.695 369.91,196.06C368.662,196.285 367.557,197.007 366.85,198.06C366.174,199.1 366.21,200.457 366.94,201.46C367.968,202.415 369.481,202.649 370.75,202.05C372.045,201.453 373.208,200.603 374.17,199.55C374.468,199.291 374.715,198.979 374.9,198.63C375.049,198.303 375.01,197.921 374.8,197.63" style="fill:rgb(235,153,110);fill-rule:nonzero;"/>
    </g>
    <g transform="matrix(0.33976,0,0,0.33976,-5.49855,7.17697)">
        <path d="M367.06,193.33C367.52,193.25 367.81,196.33 370.66,198.27C373.51,200.21 376.74,199.56 376.81,199.99C376.87,200.17 376.13,200.65 374.75,200.82C372.948,201.02 371.133,200.573 369.63,199.56C368.189,198.591 367.181,197.098 366.82,195.4C366.58,194.12 366.85,193.33 367.06,193.33Z" style="fill:rgb(38,50,56);fill-rule:nonzero;"/>
    </g>
    <g transform="matrix(0.33976,0,0,0.33976,-5.49855,7.17697)">
        <path d="M362.82,162.44C362.62,163.24 359.75,163.14 356.46,163.86C353.17,164.58 350.57,165.73 350.06,165.08C349.83,164.77 350.23,164 351.25,163.15C354.012,161.034 357.597,160.297 360.97,161.15C362.24,161.52 362.91,162.07 362.82,162.44Z" style="fill:rgb(38,50,56);fill-rule:nonzero;"/>
    </g>
    <g transform="matrix(0.33976,0,0,0.33976,-5.49855,7.17697)">
        <path d="M389.77,157.64C389.33,158.33 387.31,157.84 384.96,158.03C382.61,158.22 380.66,158.87 380.14,158.24C379.91,157.94 380.14,157.24 380.97,156.57C383.215,154.856 386.287,154.662 388.73,156.08C389.62,156.66 390,157.3 389.77,157.64Z" style="fill:rgb(38,50,56);fill-rule:nonzero;"/>
    </g>
    <g transform="matrix(0.33976,0,0,0.33976,-5.49855,7.17697)">
        <path d="M401.77,159.34C397.17,151.87 392.41,144.23 385.47,138.87C378.53,133.51 368.82,130.81 360.83,134.41L360.38,135.57C362.8,139.38 365.27,143.25 368.73,146.13C372.19,149.01 376.89,150.79 381.27,149.69L378.62,145.83C385.317,151.889 393.201,156.49 401.77,159.34Z" style="fill:rgb(38,50,56);fill-rule:nonzero;"/>
    </g>
    <g transform="matrix(0.33976,0,0,0.33976,-5.49855,7.17697)">
        <path d="M306.81,242.45C313.072,238.818 319.57,235.607 326.26,232.84L334.26,226.12L341.59,253.75C343.374,253.325 344.989,252.37 346.22,251.01C348.27,248.5 348.05,244.9 347.74,241.68C344.81,211.107 343.808,180.379 344.74,149.68L323.35,160.75C319.85,174.02 322.09,184.13 321.11,197.82C320.17,210.91 309.72,225.08 306.81,242.45Z" style="fill:rgb(38,50,56);fill-rule:nonzero;"/>
    </g>
    <g transform="matrix(0.33976,0,0,0.33976,-5.49855,7.17697)">
        <path d="M363.88,134.74C363.22,146.57 356.56,157.74 348.88,166.74C341.2,175.74 331.58,182.91 322.1,190C319.98,179.76 320.22,168.87 323.95,159.09C327.68,149.31 335.09,140.76 344.75,136.74C350.8,134.243 357.445,133.548 363.88,134.74" style="fill:rgb(38,50,56);fill-rule:nonzero;"/>
    </g>
    <g transform="matrix(0.33976,0,0,0.33976,-5.49855,7.17697)">
        <path d="M358.69,265.14C356.64,256.93 353.35,248.91 353.15,240.46C352.95,232.01 355.83,223.84 355.71,215.46C355.6,208.17 353.25,201.13 350.89,194.24C348.53,187.35 346.13,180.32 345.89,173.04C345.65,165.76 348.01,158.04 353.66,153.43L328.36,166.43C323.28,187.88 326.97,210.94 320.09,231.89C318.22,237.56 315.56,243.31 316.31,249.24C317.31,257.02 326.05,262.35 326.31,270.24C326.41,273.6 326.82,281.12 328.69,283.93C329.93,285.81 334.18,284.55 336.31,285.29C344.68,288.19 347.95,289.29 356.79,289.75C361.4,282.61 360.75,273.34 358.69,265.14Z" style="fill:rgb(38,50,56);fill-rule:nonzero;"/>
    </g>
    <g transform="matrix(0.33976,0,0,0.33976,-5.49855,7.17697)">
        <path d="M301.17,247.24C301.125,247.155 301.085,247.069 301.05,246.98L300.73,246.22C300.59,245.88 300.48,245.44 300.32,244.93C300.182,244.33 300.079,243.722 300.01,243.11C299.73,239.173 300.544,235.234 302.36,231.73C303.552,229.303 304.947,226.982 306.53,224.79C308.17,222.39 310.02,219.9 311.7,217.12C313.505,214.244 314.788,211.072 315.49,207.75C316.138,204.162 316.389,200.513 316.24,196.87C316.19,193.11 315.97,189.42 316.15,185.87C316.294,182.442 316.712,179.031 317.4,175.67C318.587,169.984 320.527,164.482 323.17,159.31C324.944,155.83 327.043,152.525 329.44,149.44C330.27,148.34 330.99,147.53 331.44,146.99C331.66,146.73 331.84,146.53 331.99,146.37C332.14,146.21 332.18,146.16 332.19,146.17L332.03,146.4L331.52,147.05C331.06,147.62 330.38,148.44 329.57,149.56C323.779,157.327 319.774,166.277 317.84,175.77C317.17,179.106 316.765,182.49 316.63,185.89C316.46,189.42 316.63,193.1 316.73,196.89C316.881,200.574 316.623,204.263 315.96,207.89C315.238,211.264 313.924,214.484 312.08,217.4C310.38,220.2 308.51,222.69 306.85,225.06C305.272,227.231 303.871,229.525 302.66,231.92C300.844,235.363 299.987,239.232 300.18,243.12C300.339,244.529 300.671,245.913 301.17,247.24Z" style="fill:rgb(38,50,56);fill-rule:nonzero;"/>
    </g>
    <g transform="matrix(0.33976,0,0,0.33976,-5.49855,7.17697)">
        <path d="M414.09,242.19C415.15,241.55 416.154,240.821 417.09,240.01C419.555,237.652 421.315,234.652 422.17,231.35C423.41,227.22 423.26,221.95 421.84,216.44C421.082,213.549 420.178,210.699 419.13,207.9L415.85,198.84C411.38,186.42 407.33,175.18 404.39,167C402.96,162.95 401.79,159.66 400.97,157.33L400.07,154.69C399.98,154.42 399.9,154.19 399.84,154C399.78,153.81 399.78,153.77 399.78,153.76C399.828,153.831 399.865,153.908 399.89,153.99C399.97,154.17 400.06,154.39 400.16,154.66C400.41,155.29 400.74,156.16 401.16,157.26L404.73,166.87C407.73,175.04 411.81,186.26 416.34,198.66C417.46,201.77 418.56,204.8 419.61,207.73C420.656,210.544 421.554,213.412 422.3,216.32C423.72,221.88 423.84,227.32 422.53,231.46C421.625,234.806 419.783,237.826 417.22,240.16C416.512,240.771 415.744,241.31 414.93,241.77L414.28,242.09C414.17,242.17 414.09,242.2 414.09,242.19Z" style="fill:rgb(38,50,56);fill-rule:nonzero;"/>
    </g>
    <defs>
        <linearGradient id="_Linear1" x1="0" y1="0" x2="1" y2="0" gradientUnits="userSpaceOnUse" gradientTransform="matrix(-231.827,-46.5614,46.5614,-231.827,247.332,108.886)"><stop offset="0" style="stop-color:rgb(0,191,194);stop-opacity:1"/><stop offset="0.49" style="stop-color:rgb(0,189,196);stop-opacity:1"/><stop offset="0.67" style="stop-color:rgb(0,182,201);stop-opacity:1"/><stop offset="0.79" style="stop-color:rgb(0,171,212);stop-opacity:1"/><stop offset="0.89" style="stop-color:rgb(0,154,226);stop-opacity:1"/><stop offset="0.98" style="stop-color:rgb(0,132,245);stop-opacity:1"/><stop offset="1" style="stop-color:rgb(0,125,251);stop-opacity:1"/></linearGradient>
    </defs>
</svg>
