<?xml version="1.0" encoding="UTF-8" standalone="no"?><!DOCTYPE svg PUBLIC "-//W3C//DTD SVG 1.1//EN" "http://www.w3.org/Graphics/SVG/1.1/DTD/svg11.dtd"><svg width="100%" height="100%" viewBox="0 0 224 188" version="1.1" xmlns="http://www.w3.org/2000/svg" xmlns:xlink="http://www.w3.org/1999/xlink" xml:space="preserve" xmlns:serif="http://www.serif.com/" style="fill-rule:evenodd;clip-rule:evenodd;stroke-miterlimit:10;"><path d="M142.192,78.942c-34.492,-20.842 -50.767,-84.874 -104.01,-46.61c-53.243,38.264 -31.165,116.878 19.856,135.891c51.021,19.013 116.665,8.272 135.138,-27.048c31.565,-60.352 -27.848,-48.252 -50.984,-62.233Z" style="fill:#f0f0f0;fill-rule:nonzero;"/><path d="M142.192,78.942c-34.492,-20.842 -50.767,-84.874 -104.01,-46.61c-53.243,38.264 -31.165,116.878 19.856,135.891c51.021,19.013 116.665,8.272 135.138,-27.048c31.565,-60.352 -27.848,-48.252 -50.984,-62.233Z" style="fill:#f0f0f0;fill-rule:nonzero;"/><g><clipPath id="_clip1"><path d="M142.192,78.942c-34.492,-20.842 -50.767,-84.874 -104.01,-46.61c-53.243,38.264 -31.165,116.878 19.856,135.891c51.021,19.013 116.665,8.272 135.138,-27.048c31.565,-60.352 -27.848,-48.252 -50.984,-62.233Z"/></clipPath><g clip-path="url(#_clip1)"><path d="M2.287,153.024c0,0 29.411,-29.492 78.534,-15.5c49.123,13.992 78.045,2 71.946,-72.159c0,0 69.044,9.633 60.192,58.693c-10.742,59.542 -149.409,82.261 -210.672,28.966Z" style="fill:#f0f0f0;fill-rule:nonzero;"/></g></g><path d="M145.8,74.942c-34.485,-20.842 -50.764,-84.874 -104.007,-46.61c-53.243,38.264 -31.165,116.878 19.857,135.891c51.022,19.013 116.665,8.272 135.138,-27.048c31.565,-60.352 -27.849,-48.252 -50.988,-62.233Z" style="fill:url(#_Linear2);fill-rule:nonzero;"/><path d="M145.8,74.942c-34.485,-20.842 -50.764,-84.874 -104.007,-46.61c-53.243,38.264 -31.165,116.878 19.857,135.891c51.022,19.013 116.665,8.272 135.138,-27.048c31.565,-60.352 -27.849,-48.252 -50.988,-62.233Z" style="fill:url(#_Linear3);fill-rule:nonzero;"/><g><clipPath id="_clip4"><path d="M145.8,74.942c-34.485,-20.842 -50.764,-84.874 -104.007,-46.61c-53.243,38.264 -31.165,116.878 19.857,135.891c51.022,19.013 116.665,8.272 135.138,-27.048c31.565,-60.352 -27.849,-48.252 -50.988,-62.233Z"/></clipPath><g clip-path="url(#_clip4)"><path d="M5.9,149.024c0,0 29.411,-29.492 78.534,-15.5c49.123,13.992 78.045,2 71.946,-72.159c0,0 69.044,9.633 60.192,58.693c-10.744,59.542 -149.411,82.261 -210.672,28.966Z" style="fill:url(#_Linear5);fill-rule:nonzero;"/></g></g><path d="M82.294,28.983l-0.466,-1.335l-0.461,1.335c-0.463,1.197 -1.4,2.152 -2.589,2.636c1.189,0.484 2.126,1.439 2.589,2.636l0.466,1.335l0.466,-1.335c0.463,-1.197 1.4,-2.152 2.589,-2.636c-1.191,-0.483 -2.13,-1.438 -2.594,-2.636Z" style="fill:#fff;fill-rule:nonzero;"/><path d="M179.729,116.458l-0.308,-0.881l-0.307,0.881c-0.305,0.79 -0.924,1.42 -1.708,1.739c0.784,0.319 1.403,0.949 1.708,1.739l0.307,0.881l0.308,-0.881c0.305,-0.79 0.924,-1.42 1.708,-1.739c-0.784,-0.319 -1.403,-0.949 -1.708,-1.739Z" style="fill:#fff;fill-rule:nonzero;"/><path d="M33.155,72.168l-0.308,-0.881l-0.307,0.881c-0.305,0.79 -0.924,1.42 -1.708,1.739c0.784,0.319 1.403,0.949 1.708,1.739l0.307,0.881l0.308,-0.881c0.305,-0.79 0.924,-1.42 1.708,-1.739c-0.784,-0.319 -1.403,-0.949 -1.708,-1.739Z" style="fill:#fff;fill-rule:nonzero;"/><path d="M167.391,57.666c0,1.703 1.383,3.086 3.086,3.086l50.257,-0c1.703,-0 3.086,-1.383 3.086,-3.086l0,-14.254c0,-1.703 -1.383,-3.086 -3.086,-3.086l-50.257,-0c-1.703,-0 -3.086,1.383 -3.086,3.086l0,14.254Z" style="fill:#c5e0e2;"/><path d="M216.703,56.4l-10.4,-0c-0.534,-0 -0.973,-0.439 -0.973,-0.973l0,-9.775c0,-0.534 0.44,-0.974 0.974,-0.974l10.4,-0c0.534,-0 0.973,0.439 0.973,0.973l0,9.775c0,0.534 -0.44,0.974 -0.974,0.974Z" style="fill:#fff;fill-rule:nonzero;"/><path d="M174.373,47.132l26.849,0c0.461,0 0.84,-0.379 0.84,-0.84c0,-0.461 -0.379,-0.84 -0.84,-0.84l-26.849,0c-0.461,0 -0.84,0.379 -0.84,0.84c-0,0.461 0.379,0.84 0.84,0.84Z" style="fill:#fff;fill-rule:nonzero;"/><path d="M191.01,50.54c0,0.464 0.376,0.84 0.84,0.84l9.372,0c0.464,0 0.84,-0.376 0.84,-0.84l0,-0.001c0,-0.464 -0.376,-0.84 -0.84,-0.84l-9.372,0c-0.464,0 -0.84,0.376 -0.84,0.84l0,0.001Z" style="fill:#fff;"/><path d="M173.533,50.54c-0,0.464 0.376,0.84 0.84,0.84l11.203,0c0.464,0 0.84,-0.376 0.84,-0.84l-0,-0.001c-0,-0.464 -0.376,-0.84 -0.84,-0.84l-11.203,0c-0.464,0 -0.84,0.376 -0.84,0.84l-0,0.001Z" style="fill:#fff;"/><path d="M181.095,55.627l20.127,0c0.461,0 0.84,-0.379 0.84,-0.84c0,-0.461 -0.379,-0.84 -0.84,-0.84l-20.127,0c-0.461,0 -0.84,0.379 -0.84,0.84c0,0.461 0.379,0.84 0.84,0.84Z" style="fill:#fff;fill-rule:nonzero;"/><g><ellipse cx="135.379" cy="158.21" rx="57.426" ry="4.824" style="fill:#149892;"/><path d="M96.939,127.601c1.211,-0.436 3.253,-2.468 3.256,-2.468c0.003,0 -1.746,-0.934 -1.867,-0.987c-1.37,-0.523 -4.324,-0.731 -5.351,0.548c-0.256,0.338 -0.395,0.751 -0.395,1.175c-0,0.68 0.357,1.313 0.94,1.664c0.987,0.641 2.403,0.442 3.417,0.068Z" style="fill:#3ac3bd;fill-rule:nonzero;"/><path d="M118.518,108.002c0.032,-0 -0.933,-1.749 -1.011,-1.852c-0.853,-1.192 -3.2,-2.994 -4.762,-2.49c-0.777,0.272 -1.301,1.01 -1.301,1.833c-0,0.29 0.065,0.576 0.19,0.837c0.46,1.062 1.746,1.684 2.801,1.943c1.257,0.292 4.083,-0.271 4.083,-0.271Z" style="fill:#3ac3bd;fill-rule:nonzero;"/><path d="M117.566,94.509c-1.304,0.996 -1.17,3.953 -0.678,5.335c0.04,0.121 0.918,1.911 0.933,1.889l0.025,-0.025c0.016,0.467 0.041,0.968 0.078,1.516c0.078,1.009 0.174,2.145 0.361,3.377c0.187,1.33 0.453,2.648 0.797,3.947c0.377,1.456 0.883,2.876 1.513,4.242c-0,0.016 0.018,0.031 0.024,0.047c-0.311,-0.352 -1.266,-1.314 -1.347,-1.379c-1.136,-0.934 -3.879,-2.042 -5.254,-1.149c-0.524,0.363 -0.837,0.961 -0.837,1.597c0,0.466 0.168,0.917 0.473,1.27c0.725,0.903 2.129,1.164 3.221,1.133c1.245,-0.037 3.635,-1.22 3.825,-1.313c0.674,1.374 1.439,2.701 2.288,3.974c0.492,0.744 1.008,1.479 1.538,2.21c-0.293,-0.311 -0.554,-0.56 -0.595,-0.594c-1.136,-0.934 -3.878,-2.042 -5.254,-1.146c-0.524,0.363 -0.837,0.962 -0.837,1.599c0,0.465 0.167,0.915 0.47,1.268c0.728,0.902 2.129,1.164 3.224,1.13c1.096,-0.035 3.178,-0.999 3.735,-1.264l0.623,0.834c0.993,1.332 1.986,2.655 2.923,3.981c0.33,0.467 0.622,0.934 0.933,1.413c-0.261,-0.264 -0.479,-0.485 -0.516,-0.513c-1.139,-0.934 -3.878,-2.042 -5.254,-1.149c-0.524,0.363 -0.837,0.961 -0.837,1.599c-0,0.465 0.166,0.915 0.47,1.268c0.728,0.902 2.128,1.164 3.224,1.133c1.096,-0.031 2.976,-0.909 3.623,-1.217c0.311,0.491 0.623,0.983 0.878,1.475c0.177,0.339 0.37,0.654 0.532,1.005l0.489,1.021c0.289,0.663 0.588,1.342 0.853,1.995c0.189,0.452 0.357,0.887 0.532,1.323c-0.312,-0.47 -0.974,-1.376 -1.04,-1.444c-0.9,-0.923 -2.022,-1.6 -3.259,-1.964c-0.094,-0.107 -0.198,-0.205 -0.311,-0.293c-0.347,-0.283 -0.782,-0.439 -1.231,-0.439c-0.655,0 -1.267,0.331 -1.626,0.878c-0.859,1.401 0.327,4.112 1.282,5.223c0.056,0.065 0.744,0.71 1.186,1.111c-0.311,-0.196 -0.579,-0.389 -0.887,-0.585c-0.604,-0.395 -1.217,-0.772 -1.868,-1.176l-0.983,-0.564c-0.311,-0.193 -0.694,-0.358 -1.043,-0.538c-0.815,-0.408 -1.665,-0.778 -2.527,-1.133c0.342,-0.529 1.537,-2.428 1.709,-3.514c0.171,-1.087 0.087,-2.506 -0.716,-3.34c-0.368,-0.41 -0.895,-0.645 -1.446,-0.645c-0.551,-0 -1.078,0.235 -1.446,0.645c-1.061,1.245 -0.295,4.112 0.476,5.357c0.05,0.077 0.704,0.905 1.074,1.357c-0.523,-0.212 -1.039,-0.424 -1.575,-0.623c-1.537,-0.563 -3.112,-1.086 -4.684,-1.612c-0.482,-0.162 -0.959,-0.33 -1.438,-0.495c0.125,-0.187 1.594,-2.409 1.784,-3.626c0.171,-1.083 0.09,-2.506 -0.713,-3.34c-0.369,-0.409 -0.895,-0.644 -1.446,-0.644c-0.551,0 -1.077,0.235 -1.446,0.644c-1.061,1.245 -0.311,4.112 0.476,5.357c0.056,0.093 1.003,1.288 1.245,1.581c-1.055,-0.364 -2.101,-0.738 -3.112,-1.145c-1.375,-0.547 -2.714,-1.18 -4.009,-1.896c0.059,-0.087 1.6,-2.403 1.799,-3.648c0.171,-1.083 0.087,-2.505 -0.716,-3.34c-0.368,-0.41 -0.894,-0.645 -1.446,-0.645c-0.551,0 -1.077,0.235 -1.445,0.645c-1.062,1.245 -0.312,4.112 0.476,5.357c0.05,0.081 0.769,0.993 1.12,1.419l-0.059,0.069c-1.283,-0.756 -2.496,-1.627 -3.623,-2.602c-0.622,-0.529 -1.198,-1.068 -1.74,-1.606c0.33,-0.402 1.824,-2.254 2.126,-3.355c0.29,-1.056 0.364,-2.491 -0.342,-3.399c-0.365,-0.507 -0.953,-0.808 -1.578,-0.808c-0.479,0 -0.941,0.177 -1.298,0.496c-1.192,1.127 -0.747,4.047 -0.115,5.376c0.034,0.071 0.463,0.762 0.784,1.263c-0.24,-0.246 -0.495,-0.495 -0.719,-0.737c-0.853,-0.9 -1.578,-1.778 -2.216,-2.562c-0.358,-0.448 -0.672,-0.859 -0.965,-1.245c0.121,-0.566 0.576,-2.845 0.339,-3.94c-0.236,-1.096 -0.821,-2.369 -1.867,-2.858c-0.273,-0.138 -0.574,-0.21 -0.88,-0.21c-0.805,-0 -1.53,0.5 -1.816,1.253c-0.538,1.556 1.205,3.944 2.375,4.828c0.1,0.074 1.818,1.086 1.824,1.055l0,-0.035c0.271,0.38 0.567,0.785 0.9,1.221c0.622,0.796 1.329,1.696 2.178,2.617c0.891,1.005 1.839,1.958 2.839,2.854c1.116,1.007 2.321,1.913 3.598,2.705l0.05,0.028c-0.467,-0.118 -1.784,-0.398 -1.886,-0.408c-1.46,-0.146 -4.358,0.436 -5.014,1.94c-0.093,0.23 -0.141,0.477 -0.141,0.726c-0,0.867 0.581,1.635 1.417,1.869c1.101,0.352 2.418,-0.205 3.311,-0.837c1.009,-0.71 2.36,-3.022 2.465,-3.206c1.32,0.776 2.691,1.463 4.103,2.054c0.818,0.352 1.656,0.679 2.49,0.996c-0.405,-0.087 -0.769,-0.161 -0.822,-0.168c-1.46,-0.143 -4.357,0.436 -5.014,1.943c-0.093,0.23 -0.141,0.476 -0.141,0.725c0,0.867 0.582,1.634 1.417,1.867c1.102,0.352 2.418,-0.202 3.312,-0.834c0.893,-0.632 2.097,-2.586 2.406,-3.112l0.974,0.358c1.556,0.56 3.112,1.114 4.631,1.705c0.536,0.209 1.052,0.433 1.556,0.657c-0.361,-0.078 -0.666,-0.14 -0.715,-0.146c-1.457,-0.143 -4.358,0.435 -5.015,1.942c-0.092,0.23 -0.139,0.475 -0.139,0.723c-0,0.867 0.581,1.635 1.415,1.87c1.105,0.351 2.419,-0.203 3.312,-0.835c0.893,-0.631 1.983,-2.399 2.353,-3.012c0.523,0.242 1.049,0.485 1.557,0.747c0.333,0.183 0.669,0.339 0.996,0.544l0.974,0.582c0.604,0.392 1.245,0.794 1.811,1.192c0.405,0.274 0.788,0.542 1.171,0.813c-0.527,-0.215 -1.572,-0.623 -1.663,-0.623c-1.419,-0.364 -4.376,-0.23 -5.25,1.158c-0.177,0.299 -0.27,0.641 -0.27,0.988c0,0.76 0.446,1.454 1.138,1.77c1.036,0.513 2.422,0.165 3.402,-0.311c1.077,-0.539 2.705,-2.528 2.907,-2.78c0.638,0.448 1.245,0.89 1.824,1.317c0.974,0.722 1.868,1.4 2.633,2.017l0.769,-0.729c-0.831,-0.622 -1.777,-1.332 -2.832,-2.076c-0.645,-0.457 -1.342,-0.934 -2.061,-1.416c0.346,-0.751 0.646,-1.522 0.9,-2.309c1.245,0.08 3.529,-0.623 3.825,-0.723c0.283,0.726 0.554,1.432 0.797,2.101c0.377,1.038 0.709,1.998 0.996,2.879l0.825,-0.784c-0.271,-0.756 -0.576,-1.572 -0.912,-2.437c-0.284,-0.735 -0.604,-1.516 -0.934,-2.316c0.271,-0.165 2.456,-1.534 3.112,-2.536c0.623,-0.909 1.13,-2.238 0.75,-3.334c-0.251,-0.81 -1.006,-1.366 -1.854,-1.366c-0.265,-0 -0.527,0.054 -0.769,0.158c-1.491,0.691 -1.996,3.608 -1.815,5.064c-0,0.085 0.23,1.003 0.38,1.579c-0.14,-0.312 -0.271,-0.642 -0.417,-0.978c-0.287,-0.66 -0.592,-1.313 -0.915,-2.014l-0.514,-1.011c-0.165,-0.343 -0.38,-0.682 -0.57,-1.027c-0.46,-0.791 -0.961,-1.557 -1.484,-2.341c0.579,-0.252 2.62,-1.176 3.361,-1.986c0.741,-0.809 1.457,-2.041 1.245,-3.181c-0.142,-0.947 -0.965,-1.656 -1.923,-1.656c-0.165,0 -0.329,0.021 -0.489,0.063c-1.575,0.46 -2.518,3.265 -2.558,4.731c-0,0.09 0.084,1.145 0.143,1.724c-0.311,-0.464 -0.623,-0.934 -0.971,-1.382c-0.975,-1.32 -1.999,-2.624 -3.019,-3.931c-0.312,-0.398 -0.623,-0.803 -0.934,-1.205c0.205,-0.087 2.658,-1.132 3.489,-2.038c0.738,-0.809 1.457,-2.042 1.245,-3.181c-0.141,-0.948 -0.963,-1.657 -1.921,-1.657c-0.166,0 -0.331,0.021 -0.491,0.063c-1.575,0.458 -2.515,3.265 -2.559,4.731c0,0.109 0.128,1.625 0.178,2.011c-0.676,-0.884 -1.345,-1.774 -1.967,-2.674c-0.848,-1.213 -1.615,-2.481 -2.298,-3.794c0.097,-0.04 2.659,-1.12 3.511,-2.051c0.738,-0.809 1.457,-2.042 1.245,-3.181c-0.14,-0.948 -0.963,-1.657 -1.921,-1.657c-0.165,0 -0.33,0.021 -0.491,0.063c-1.568,0.464 -2.502,3.265 -2.543,4.719c0,0.096 0.097,1.245 0.156,1.799l-0.09,0.028c-0.652,-1.341 -1.183,-2.736 -1.588,-4.171c-0.23,-0.787 -0.407,-1.556 -0.566,-2.3c0.501,-0.152 2.767,-0.871 3.626,-1.625c0.859,-0.753 1.671,-1.867 1.59,-3.025c-0.04,-1.036 -0.904,-1.866 -1.94,-1.866c-0.095,-0 -0.189,0.007 -0.282,0.02c-1.618,0.283 -2.86,2.966 -3.063,4.42c0,0.078 -0.034,0.893 -0.043,1.488c-0.066,-0.339 -0.14,-0.688 -0.196,-1.015c-0.215,-1.223 -0.333,-2.353 -0.433,-3.358c-0.053,-0.573 -0.087,-1.09 -0.115,-1.575c0.411,-0.402 2.048,-2.054 2.456,-3.097c0.407,-1.043 0.622,-2.431 -0,-3.424c-0.349,-0.599 -0.992,-0.969 -1.685,-0.969c-0.403,0 -0.797,0.126 -1.126,0.359Z" style="fill:#3ac3bd;fill-rule:nonzero;"/><path d="M62.722,112.484c-0.956,0.019 -2.916,-0.849 -2.916,-0.849c-0,-0 0.961,-1.118 1.033,-1.183c0.809,-0.728 2.801,-1.656 3.863,-1.043c0.423,0.264 0.681,0.729 0.681,1.228c-0,0.322 -0.107,0.635 -0.305,0.889c-0.507,0.712 -1.541,0.958 -2.356,0.958Z" style="fill:#3ac3bd;fill-rule:nonzero;"/><path d="M42.519,104.619c-0.022,-0 0.186,-1.463 0.211,-1.556c0.274,-1.055 1.426,-2.932 2.646,-3.001c0.013,-0 0.026,-0 0.038,-0c0.794,-0 1.448,0.653 1.448,1.447c-0,0.037 -0.002,0.073 -0.005,0.11c-0.037,0.859 -0.765,1.634 -1.434,2.097c-0.788,0.545 -2.901,0.903 -2.904,0.903Z" style="fill:#3ac3bd;fill-rule:nonzero;"/><path d="M39.59,94.992c1.17,0.345 1.867,2.437 1.892,3.526c0,0.094 -0.127,1.572 -0.149,1.557l-0.025,-0c0.112,0.33 0.23,0.681 0.348,1.07c0.215,0.723 0.452,1.538 0.648,2.447c0.224,0.973 0.39,1.958 0.498,2.951c0.127,1.111 0.155,2.232 0.084,3.349l-0,0.04c0.131,-0.333 0.529,-1.245 0.57,-1.317c0.544,-0.933 2.15,-2.452 3.345,-2.197c0.646,0.158 1.104,0.741 1.104,1.406c-0,0.167 -0.029,0.332 -0.086,0.49c-0.264,0.821 -1.17,1.375 -1.939,1.643c-0.868,0.311 -2.851,0.121 -3.01,0.106c-0.1,1.135 -0.277,2.262 -0.529,3.374c-0.143,0.647 -0.311,1.295 -0.479,1.942c0.121,-0.283 0.233,-0.535 0.255,-0.57c0.542,-0.933 2.151,-2.452 3.343,-2.197c0.646,0.156 1.104,0.739 1.104,1.404c0,0.167 -0.029,0.334 -0.086,0.491c-0.265,0.822 -1.167,1.376 -1.936,1.644c-0.769,0.268 -2.49,0.152 -2.923,0.112l-0.205,0.744c-0.336,1.189 -0.673,2.372 -0.971,3.545c-0.106,0.411 -0.193,0.822 -0.284,1.245c0.109,-0.252 0.206,-0.464 0.221,-0.495c0.545,-0.934 2.151,-2.45 3.346,-2.194c0.646,0.158 1.103,0.741 1.103,1.406c0,0.166 -0.028,0.332 -0.085,0.489c-0.264,0.819 -1.17,1.376 -1.939,1.644c-0.769,0.267 -2.309,0.161 -2.842,0.118c-0.078,0.423 -0.158,0.847 -0.214,1.26c-0.035,0.284 -0.085,0.555 -0.103,0.841c-0.019,0.286 -0.047,0.563 -0.069,0.84c-0.025,0.536 -0.053,1.09 -0.062,1.613c0,0.364 0,0.709 -0.015,1.061c0.099,-0.414 0.311,-1.217 0.336,-1.282c0.38,-0.881 0.98,-1.65 1.743,-2.232c0.037,-0.1 0.084,-0.196 0.14,-0.286c0.256,-0.45 0.736,-0.729 1.254,-0.729c0.304,-0 0.6,0.096 0.847,0.274c0.971,0.741 0.868,2.941 0.501,3.969c-0.022,0.059 -0.33,0.691 -0.529,1.086c0.152,-0.215 0.311,-0.423 0.46,-0.641c0.312,-0.436 0.641,-0.859 0.99,-1.317l0.535,-0.654c0.175,-0.221 0.386,-0.432 0.579,-0.653c0.461,-0.498 0.953,-0.984 1.457,-1.46c-0.38,-0.277 -1.715,-1.276 -2.123,-1.986c-0.407,-0.709 -0.728,-1.718 -0.392,-2.512c0.214,-0.556 0.752,-0.925 1.348,-0.925c0.229,0 0.456,0.055 0.66,0.16c1.07,0.585 1.304,2.776 1.095,3.847c0,0.065 -0.246,0.818 -0.383,1.229c0.312,-0.286 0.623,-0.569 0.934,-0.846c0.934,-0.803 1.868,-1.585 2.829,-2.369l0.866,-0.725c-0.134,-0.097 -1.749,-1.245 -2.204,-2.045c-0.408,-0.707 -0.731,-1.718 -0.395,-2.512c0.214,-0.558 0.753,-0.928 1.351,-0.928c0.229,0 0.455,0.055 0.659,0.159c1.071,0.589 1.302,2.777 1.096,3.847c-0.015,0.081 -0.355,1.164 -0.454,1.435c0.622,-0.535 1.263,-1.07 1.867,-1.628c0.812,-0.744 1.574,-1.54 2.282,-2.384c-0.063,-0.043 -1.753,-1.245 -2.22,-2.054c-0.407,-0.707 -0.728,-1.718 -0.392,-2.512c0.212,-0.558 0.75,-0.929 1.347,-0.929c0.23,0 0.457,0.055 0.661,0.16c1.071,0.589 1.301,2.777 1.095,3.847c0,0.072 -0.27,0.897 -0.401,1.286l0.062,0.031c0.689,-0.869 1.299,-1.797 1.824,-2.773c0.296,-0.532 0.548,-1.062 0.781,-1.578c-0.336,-0.19 -1.867,-1.08 -2.371,-1.765c-0.505,-0.685 -0.912,-1.628 -0.666,-2.453c0.165,-0.633 0.742,-1.078 1.397,-1.078c0.175,0 0.349,0.032 0.514,0.095c1.129,0.464 1.599,2.617 1.512,3.704c0,0.059 -0.118,0.653 -0.208,1.086c0.102,-0.237 0.211,-0.476 0.311,-0.704c0.352,-0.852 0.622,-1.655 0.856,-2.371c0.131,-0.405 0.24,-0.775 0.339,-1.124c-0.233,-0.361 -1.158,-1.821 -1.285,-2.646c-0.128,-0.824 -0.059,-1.867 0.541,-2.49c0.274,-0.305 0.664,-0.48 1.074,-0.48c0.41,0 0.801,0.175 1.074,0.48c0.787,0.934 0.215,3.06 -0.364,3.984c-0.05,0.081 -0.974,1.245 -0.987,1.224l0,-0.022c-0.087,0.336 -0.184,0.694 -0.311,1.086c-0.221,0.719 -0.473,1.532 -0.809,2.397c-0.352,0.934 -0.757,1.848 -1.214,2.736c-0.508,0.997 -1.102,1.947 -1.778,2.838l-0.028,0.031c0.293,-0.205 1.133,-0.75 1.202,-0.784c0.974,-0.489 3.147,-0.859 4.003,0c0.247,0.267 0.384,0.618 0.384,0.982c0,0.456 -0.215,0.886 -0.581,1.16c-0.675,0.538 -1.736,0.504 -2.524,0.311c-0.89,-0.224 -2.443,-1.472 -2.568,-1.572c-0.71,0.891 -1.48,1.733 -2.303,2.521c-0.476,0.461 -0.971,0.912 -1.472,1.357c0.258,-0.168 0.492,-0.311 0.526,-0.336c0.977,-0.489 3.147,-0.859 4.003,0.016c0.248,0.267 0.386,0.618 0.386,0.982c-0,0.456 -0.216,0.887 -0.582,1.159c-0.673,0.538 -1.734,0.501 -2.525,0.311c-0.79,-0.19 -2.147,-1.245 -2.49,-1.519l-0.579,0.508c-0.933,0.806 -1.867,1.606 -2.767,2.418c-0.311,0.29 -0.622,0.582 -0.915,0.875c0.231,-0.15 0.427,-0.274 0.458,-0.29c0.974,-0.488 3.147,-0.859 3.999,0c0.248,0.267 0.386,0.619 0.386,0.983c0,0.456 -0.216,0.886 -0.582,1.159c-0.672,0.538 -1.733,0.504 -2.521,0.311c-0.787,-0.193 -2.017,-1.139 -2.437,-1.466c-0.311,0.311 -0.601,0.622 -0.875,0.934c-0.183,0.217 -0.376,0.414 -0.547,0.644c-0.172,0.23 -0.352,0.445 -0.523,0.663c-0.311,0.433 -0.645,0.878 -0.934,1.31c-0.209,0.311 -0.405,0.585 -0.601,0.875c0.312,-0.286 0.934,-0.841 0.99,-0.881c0.887,-0.622 2.979,-1.326 3.956,-0.591c0.346,0.273 0.548,0.69 0.548,1.13c-0,0.38 -0.15,0.744 -0.417,1.014c-0.585,0.623 -1.637,0.76 -2.45,0.682c-0.893,-0.087 -2.552,-1.037 -2.761,-1.155c-0.311,0.479 -0.622,0.934 -0.915,1.398c-0.485,0.762 -0.918,1.469 -1.294,2.104l-0.726,-0.312c0.408,-0.659 0.878,-1.397 1.413,-2.197c0.327,-0.489 0.685,-1.005 1.056,-1.531c-0.442,-0.431 -0.858,-0.887 -1.245,-1.367c-0.835,0.386 -2.618,0.504 -2.848,0.517l-0,1.674c-0,0.822 0.04,1.578 0.071,2.263l-0.778,-0.311c0,-0.598 -0.019,-1.245 -0.015,-1.936c-0,-0.588 0.015,-1.214 0.034,-1.868c-0.231,-0.043 -2.114,-0.41 -2.845,-0.933c-0.666,-0.473 -1.382,-1.245 -1.41,-2.117c-0.002,-0.03 -0.003,-0.061 -0.003,-0.091c0,-0.796 0.655,-1.451 1.451,-1.451c0.018,0 0.037,0.001 0.055,0.002c1.217,0.087 2.347,1.976 2.609,3.034c0.015,0.066 0.105,0.76 0.155,1.202c0,-0.265 0.016,-0.52 0.031,-0.791c0.022,-0.535 0.059,-1.071 0.1,-1.646c0.028,-0.277 0.056,-0.554 0.087,-0.838c0.031,-0.283 0.081,-0.576 0.121,-0.865c0.109,-0.669 0.253,-1.345 0.408,-2.023c-0.467,-0.019 -2.132,-0.118 -2.863,-0.483c-0.732,-0.364 -1.557,-1.03 -1.715,-1.867c-0.023,-0.102 -0.034,-0.207 -0.034,-0.311c-0,-0.731 0.553,-1.352 1.279,-1.435c1.217,-0.103 2.617,1.597 3.034,2.602c0.028,0.065 0.246,0.822 0.358,1.245c0.1,-0.408 0.196,-0.812 0.312,-1.22c0.311,-1.177 0.691,-2.356 1.052,-3.533c0.109,-0.361 0.214,-0.722 0.311,-1.083c-0.168,-0 -2.151,-0.081 -2.969,-0.492c-0.729,-0.364 -1.557,-1.03 -1.712,-1.867c-0.023,-0.104 -0.035,-0.209 -0.035,-0.315c0,-0.73 0.554,-1.351 1.28,-1.435c1.217,-0.099 2.617,1.6 3.037,2.606c0.032,0.077 0.346,1.164 0.411,1.444c0.237,-0.794 0.464,-1.588 0.657,-2.381c0.265,-1.07 0.461,-2.155 0.585,-3.25c-0.078,0 -2.144,-0.068 -2.985,-0.488c-0.728,-0.365 -1.556,-1.031 -1.712,-1.868c-0.023,-0.103 -0.034,-0.209 -0.034,-0.314c-0,-0.731 0.554,-1.352 1.279,-1.435c1.217,-0.103 2.618,1.597 3.038,2.605c0.025,0.065 0.265,0.893 0.371,1.292l0.071,-0c0.098,-1.104 0.098,-2.214 0,-3.318c-0.05,-0.623 -0.127,-1.189 -0.221,-1.749c-0.386,0.024 -2.154,0.13 -2.95,-0.165c-0.797,-0.296 -1.659,-0.853 -1.908,-1.678c-0.05,-0.148 -0.075,-0.303 -0.075,-0.459c-0,-0.673 0.47,-1.261 1.127,-1.409c1.198,-0.233 2.776,1.301 3.305,2.257c0.028,0.053 0.262,0.623 0.423,1.021c-0.043,-0.252 -0.084,-0.514 -0.133,-0.753c-0.178,-0.909 -0.393,-1.728 -0.592,-2.45c-0.118,-0.411 -0.23,-0.781 -0.339,-1.123c-0.395,-0.175 -1.97,-0.884 -2.531,-1.501c-0.56,-0.616 -1.08,-1.522 -0.933,-2.368c0.084,-0.727 0.706,-1.282 1.438,-1.282c0.121,0 0.243,0.016 0.361,0.046Z" style="fill:#3ac3bd;fill-rule:nonzero;"/><path d="M101.642,122.926c0,0 -1.764,6.558 -1.556,8.516c0.209,1.958 1.177,4.012 0.196,7.243c-0.98,3.231 -3.523,8.516 -3.523,8.516l-0.097,0.684c0,0 0.489,0 0.489,1.273l0,1.958c0,0 2.25,2.251 2.546,3.035c0.296,0.784 -0.099,3.735 -1.665,3.735c-3.113,-0 -3.464,-1.821 -4.308,-3.819c-1.531,-3.629 -1.556,-3.913 -1.077,-6.262c0.48,-2.35 0.589,-6.266 0.492,-8.809c-0.096,-2.543 -0.311,-7.439 0.196,-9.496c0.507,-2.058 0.489,-8.22 0.193,-9.297c-0.296,-1.077 8.603,1.746 8.603,1.746l-0.489,0.977Z" style="fill:#cfcfcf;fill-rule:nonzero;stroke:#263238;stroke-width:0.31px;"/><path d="M99.685,154.151c-0.296,-0.784 -2.546,-3.035 -2.546,-3.035l-0,-1.958c-0,-1.273 -0.489,-1.273 -0.489,-1.273c-0,0 -1.762,-0.392 -2.253,0.393l-0.489,0.784l-1.164,-1.868c-0.034,0.206 -0.069,0.405 -0.109,0.595c-0.489,2.35 -0.455,2.633 1.077,6.262c0.843,1.999 1.179,3.819 4.307,3.819c1.566,0 1.958,-2.928 1.666,-3.719Z" style="fill:#cfcfcf;fill-rule:nonzero;stroke:#263238;stroke-width:0.31px;"/><path d="M97.139,151.116c-0,0 -0.981,1.077 -2.839,0.685" style="fill:none;fill-rule:nonzero;stroke:#263238;stroke-width:0.31px;"/><path d="M85,120.081c-0,0 1.372,5.189 1.469,7.343c0.096,2.154 -1.662,6.262 -0.781,10.178c0.881,3.915 2.536,9.891 2.848,11.36c0.15,0.644 0.247,1.299 0.292,1.958c0.045,0.66 -2.054,-1.469 -3.523,-0.881c-1.469,0.589 -1.868,2.939 -0.784,5.678c1.083,2.739 5.776,4.404 6.95,4.796c1.173,0.392 2.935,-0.685 2.838,-1.868c-0.037,-0.638 -0.169,-1.268 -0.392,-1.867c-0.223,-0.6 0.296,-0.392 0.196,-1.37c-0.014,-0.483 -0.149,-0.954 -0.392,-1.372c-0.243,-0.418 -0.977,-10.272 -0.292,-13.695c0.684,-3.424 1.556,-5.777 1.173,-8.32c-0.383,-2.543 -0.585,-5.291 -0.585,-5.291c-0,-0 0.685,-4.504 0.685,-5.581c-0,-1.077 -4.318,-4.877 -9.702,-1.068Z" style="fill:#fff;fill-rule:nonzero;stroke:#263238;stroke-width:0.31px;"/><path d="M94.3,158.652c-0.037,-0.639 -0.169,-1.268 -0.392,-1.868c-0.223,-0.599 0.296,-0.392 0.196,-1.369c-0.015,-0.483 -0.149,-0.955 -0.392,-1.373l-0.585,0.196c-0.281,-0.773 -0.678,-1.5 -1.177,-2.154c-0.685,-0.781 -1.662,0.1 -1.662,0.1c-0.392,-0.685 -1.469,-1.273 -1.469,-1.273c-0,-0 -2.054,-1.469 -3.523,-0.881c-1.47,0.588 -1.868,2.938 -0.785,5.677c1.083,2.739 5.777,4.404 6.95,4.797c1.174,0.392 2.936,-0.676 2.839,-1.852Z" style="fill:#fff;fill-rule:nonzero;stroke:#263238;stroke-width:0.31px;"/><path d="M84.511,155.717c1.077,2.742 5.777,4.404 6.95,4.796c0.822,0.274 1.93,-0.171 2.49,-0.865c-0.311,-0.794 -1.556,-1.245 -2.39,-1.778c-1.074,-0.684 -1.762,-2.546 -2.839,-5.481c-1.077,-2.935 -3.423,-2.35 -3.423,-2.35c-1.473,0.589 -1.865,2.939 -0.788,5.678Z" style="fill:#878787;fill-rule:nonzero;stroke:#263238;stroke-width:0.31px;"/><path d="M90.288,152.193c-0,0 1.077,0.489 1.173,2.447" style="fill:none;fill-rule:nonzero;stroke:#263238;stroke-width:0.31px;"/><path d="M82.052,88.645c0,0 -3.112,9.338 -3.215,16.082c-0.103,6.745 1.659,10.788 1.659,13.487c0,2.698 0.106,6.328 0.106,6.328l2.49,-0.726l-0,-5.082l1.348,4.874c-0,-0 2.904,-3.113 5.602,-2.904c2.699,0.208 4.255,1.97 7.884,2.904c3.629,0.934 7.576,0.106 7.576,0.106c-0,-0 0.283,-3.679 1.036,-8.199c0.861,-5.077 0.92,-10.258 0.175,-15.354c-0.343,-2.391 -0.927,-4.742 -1.743,-7.015c-0.153,-0.417 -1.653,-5.03 -2.064,-5.021l-20.854,0.52Z" style="fill:#263238;fill-rule:nonzero;stroke:#263238;stroke-width:0.31px;"/><path d="M93.229,103c0.853,2.988 1.98,7.451 2.26,11.012" style="fill:none;fill-rule:nonzero;stroke:#828282;stroke-width:0.31px;"/><path d="M92.221,99.694c-0,0 0.152,0.461 0.395,1.245" style="fill:none;fill-rule:nonzero;stroke:#828282;stroke-width:0.31px;"/><path d="M95.8,107.476c0,-0 0.934,4.669 0.934,8.559" style="fill:none;fill-rule:nonzero;stroke:#828282;stroke-width:0.31px;"/><path d="M88.175,66.235c-0,-0 -5.836,3.035 -7.159,3.424c-1.323,0.389 -2.646,2.801 -2.879,3.89c-0.234,1.09 -4.28,9.494 -5.369,12.373c-1.09,2.879 -1.946,4.124 -1.012,5.213c0.934,1.089 3.657,2.49 5.136,0.778c1.478,-1.712 4.591,-8.87 4.591,-8.87l0.078,6.302c-0,0 3.423,1.401 9.726,1.479c6.303,0.078 12.528,-1.556 12.528,-1.556l-0,-8.404l4.824,7.392c1.098,1.012 2.721,1.231 4.047,0.545c2.334,-1.168 2.256,-2.646 1.167,-4.98c-1.09,-2.335 -6.225,-11.517 -7.781,-14.084c-1.557,-2.568 -4.825,-3.269 -6.225,-3.502c-1.401,-0.233 -4.125,-0.545 -4.125,-0.545l-7.547,0.545Z" style="fill:#fff;fill-rule:nonzero;"/><path d="M82.034,74.695c0.382,0.249 0.706,0.485 1.017,0.716c1.277,0.933 2.285,1.68 5.5,1.68c3.838,0 10.53,-1.397 14.529,-2.692c1.028,-0.33 1.911,-0.647 2.693,-0.934c0.781,-0.286 1.456,-0.516 2.063,-0.7l-0.476,-0.831c-0.579,0.181 -1.204,0.405 -1.902,0.654c-0.775,0.277 -1.652,0.591 -2.664,0.918c-3.934,1.273 -10.495,2.645 -14.243,2.645c-2.91,0 -3.735,-0.597 -4.946,-1.5c-0.311,-0.227 -0.656,-0.482 -1.064,-0.747c-1.376,-0.887 -3.081,-1.142 -4.112,-1.211c-0.124,0.274 -0.222,0.558 -0.292,0.85c-0,0.019 -0,0.047 -0.019,0.069c0.878,0.046 2.602,0.233 3.916,1.083Z" style="fill:#3ac3bd;fill-rule:nonzero;"/><path d="M82.438,71.981c1.245,1.136 1.718,1.606 1.725,1.609l0.127,0.127l0.184,0c0.019,0 0.47,0.019 1.245,0.019c2.599,0 8.805,-0.199 14.339,-1.895c2.456,-0.754 4.56,-1.27 6.306,-1.628c-0.109,-0.178 -0.205,-0.343 -0.292,-0.486c-0.088,-0.143 -0.156,-0.239 -0.24,-0.355c-1.706,0.358 -3.735,0.863 -6.048,1.575c-6.455,1.98 -13.863,1.868 -15.095,1.843c-0.218,-0.212 -0.713,-0.685 -1.622,-1.51c-0.7,-0.622 -1.883,-0.955 -2.904,-1.117c-0.283,0.253 -0.539,0.534 -0.763,0.84c1.043,0.122 2.397,0.396 3.038,0.978Z" style="fill:#3ac3bd;fill-rule:nonzero;"/><path d="M100.646,66.391c-0.311,-0.069 -0.575,-0.119 -0.799,-0.156c-0.274,-0.047 -0.601,-0.093 -0.95,-0.143c-3.942,1.427 -8.198,1.759 -12.313,0.958l-1.282,0.648c1.869,0.486 3.793,0.726 5.724,0.716c3.313,0.004 6.59,-0.685 9.62,-2.023Z" style="fill:#3ac3bd;fill-rule:nonzero;"/><path d="M77.492,85.48c-1.478,-0.673 -3.146,-0.623 -4.373,-0.439c-0.137,0.33 -0.255,0.622 -0.351,0.881l-0.056,0.143c1.108,-0.227 2.897,-0.417 4.395,0.264c1.064,0.486 1.823,0.847 2.346,1.102c0.137,-0.283 0.274,-0.563 0.405,-0.84c-0.529,-0.262 -1.282,-0.626 -2.366,-1.111Z" style="fill:#3ac3bd;fill-rule:nonzero;"/><path d="M90.506,71.296c1.153,-0.001 2.304,-0.082 3.445,-0.243c3.588,-0.476 7.069,-1.559 10.293,-3.203c-0.31,-0.21 -0.636,-0.399 -0.974,-0.563c-2.979,1.436 -6.166,2.395 -9.443,2.842c-5.347,0.741 -9.288,-0.501 -11.018,-1.22c-0.43,0.199 -0.822,0.373 -1.146,0.51c0.959,0.486 4.118,1.877 8.843,1.877Z" style="fill:#3ac3bd;fill-rule:nonzero;"/><path d="M103.815,86.725c-1.317,0.339 -4.124,1.011 -8.152,1.736c-4.69,0.844 -11.827,-0.659 -14.127,-1.201l-0,0.965c2.001,0.467 6.639,1.425 10.847,1.425c1.147,0.011 2.292,-0.079 3.423,-0.27c3.826,-0.688 6.568,-1.333 7.987,-1.69l0.022,-0.965Z" style="fill:#3ac3bd;fill-rule:nonzero;"/><path d="M78.619,80.649c2.857,1.245 5.407,2.527 5.432,2.54l0.093,0.047l1.136,-0c2.474,-0 8.846,-0.159 13.62,-1.656c2.06,-0.671 4.071,-1.485 6.017,-2.437c2.179,-1.021 3.825,-1.781 5.521,-1.747c-0.168,-0.311 -0.339,-0.622 -0.51,-0.933c-1.724,0.109 -3.39,0.881 -5.403,1.824c-1.913,0.933 -3.889,1.731 -5.914,2.387c-5.407,1.746 -13.256,1.65 -14.237,1.634c-0.488,-0.243 -2.801,-1.385 -5.378,-2.515c-1.006,-0.459 -2.087,-0.729 -3.191,-0.797c-0.14,0.312 -0.28,0.623 -0.42,0.934c1.117,0.007 2.22,0.252 3.234,0.719Z" style="fill:#3ac3bd;fill-rule:nonzero;"/><path d="M78.52,83.786l1.951,0.782c0.026,0.121 0.091,0.23 0.184,0.311c0.187,-0.408 0.348,-0.772 0.479,-1.065l-2.269,-0.908c-1.32,-0.526 -3.112,-0.732 -4.466,-0.807l-0.411,0.944c1.326,0.04 3.218,0.217 4.532,0.743Z" style="fill:#3ac3bd;fill-rule:nonzero;"/><path d="M81.495,83.976l0.016,1.289c0.915,0.23 2.673,0.433 6.1,0.532c0.868,0.025 1.709,0.037 2.524,0.037c6.68,0 11.479,-0.771 12.292,-1.117c0.446,-0.191 0.912,-0.336 1.388,-0.433l-0,-1.245c-0.14,0.15 -0.246,0.277 -0.311,0.365c-0.493,0.108 -0.974,0.262 -1.438,0.46c-0.75,0.312 -6.515,1.245 -14.417,1.006c-3.617,-0.103 -5.183,-0.327 -5.855,-0.486l0.289,-0.168l-0.588,-0.24Z" style="fill:#3ac3bd;fill-rule:nonzero;"/><path d="M113.408,82.918l-0.467,-0.899c-2.41,0.272 -4.693,1.225 -6.58,2.748l0.538,0.797c1.853,-1.519 4.122,-2.441 6.509,-2.646Z" style="fill:#3ac3bd;fill-rule:nonzero;"/><path d="M111.926,80.12l-0.517,-0.934c-2.953,0.044 -5.353,1.737 -6.738,3.001l0.523,0.803c1.332,-1.245 3.791,-3.023 6.732,-2.87Z" style="fill:#3ac3bd;fill-rule:nonzero;"/><path d="M80.443,77.969c0.981,0.501 1.687,0.893 2.254,1.208c1.179,0.657 1.774,0.986 2.876,1.158c0.155,0.018 0.312,0.027 0.47,0.025c2.589,-0 11.998,-1.41 15.251,-3.088c2.373,-1.253 4.897,-2.194 7.51,-2.801l-0.479,-0.85c-2.596,0.623 -5.105,1.564 -7.47,2.801c-3.278,1.697 -13.67,3.197 -15.146,2.97c-0.933,-0.144 -1.409,-0.408 -2.561,-1.049c-0.573,-0.312 -1.286,-0.716 -2.285,-1.227c-1.155,-0.62 -2.427,-0.992 -3.735,-1.092l-0.411,0.934c1.306,0.032 2.584,0.379 3.726,1.011Z" style="fill:#3ac3bd;fill-rule:nonzero;"/><g opacity="0.4"><path d="M82.034,74.695c0.382,0.249 0.706,0.485 1.017,0.716c1.277,0.933 2.285,1.68 5.5,1.68c3.838,0 10.53,-1.397 14.529,-2.692c1.028,-0.33 1.911,-0.647 2.693,-0.934c0.781,-0.286 1.456,-0.516 2.063,-0.7l-0.476,-0.831c-0.579,0.181 -1.204,0.405 -1.902,0.654c-0.775,0.277 -1.652,0.591 -2.664,0.918c-3.934,1.273 -10.495,2.645 -14.243,2.645c-2.91,0 -3.735,-0.597 -4.946,-1.5c-0.311,-0.227 -0.656,-0.482 -1.064,-0.747c-1.376,-0.887 -3.081,-1.142 -4.112,-1.211c-0.124,0.274 -0.222,0.558 -0.292,0.85c-0,0.019 -0,0.047 -0.019,0.069c0.878,0.046 2.602,0.233 3.916,1.083Z" style="fill:#fff;fill-rule:nonzero;"/><path d="M82.438,71.981c1.245,1.136 1.718,1.606 1.725,1.609l0.127,0.127l0.184,0c0.019,0 0.47,0.019 1.245,0.019c2.599,0 8.805,-0.199 14.339,-1.895c2.456,-0.754 4.56,-1.27 6.306,-1.628c-0.109,-0.178 -0.205,-0.343 -0.292,-0.486c-0.088,-0.143 -0.156,-0.239 -0.24,-0.355c-1.706,0.358 -3.735,0.863 -6.048,1.575c-6.455,1.98 -13.863,1.868 -15.095,1.843c-0.218,-0.212 -0.713,-0.685 -1.622,-1.51c-0.7,-0.622 -1.883,-0.955 -2.904,-1.117c-0.283,0.253 -0.539,0.534 -0.763,0.84c1.043,0.122 2.397,0.396 3.038,0.978Z" style="fill:#fff;fill-rule:nonzero;"/><path d="M100.646,66.391c-0.311,-0.069 -0.575,-0.119 -0.799,-0.156c-0.274,-0.047 -0.601,-0.093 -0.95,-0.143c-3.942,1.427 -8.198,1.759 -12.313,0.958l-1.282,0.648c1.869,0.486 3.793,0.726 5.724,0.716c3.313,0.004 6.59,-0.685 9.62,-2.023Z" style="fill:#fff;fill-rule:nonzero;"/><path d="M77.492,85.48c-1.478,-0.673 -3.146,-0.623 -4.373,-0.439c-0.137,0.33 -0.255,0.622 -0.351,0.881l-0.056,0.143c1.108,-0.227 2.897,-0.417 4.395,0.264c1.064,0.486 1.823,0.847 2.346,1.102c0.137,-0.283 0.274,-0.563 0.405,-0.84c-0.529,-0.262 -1.282,-0.626 -2.366,-1.111Z" style="fill:#fff;fill-rule:nonzero;"/><path d="M90.506,71.296c1.153,-0.001 2.304,-0.082 3.445,-0.243c3.588,-0.476 7.069,-1.559 10.293,-3.203c-0.31,-0.21 -0.636,-0.399 -0.974,-0.563c-2.979,1.436 -6.166,2.395 -9.443,2.842c-5.347,0.741 -9.288,-0.501 -11.018,-1.22c-0.43,0.199 -0.822,0.373 -1.146,0.51c0.959,0.486 4.118,1.877 8.843,1.877Z" style="fill:#fff;fill-rule:nonzero;"/><path d="M103.815,86.725c-1.317,0.339 -4.124,1.011 -8.152,1.736c-4.69,0.844 -11.827,-0.659 -14.127,-1.201l-0,0.965c2.001,0.467 6.639,1.425 10.847,1.425c1.147,0.011 2.292,-0.079 3.423,-0.27c3.826,-0.688 6.568,-1.333 7.987,-1.69l0.022,-0.965Z" style="fill:#fff;fill-rule:nonzero;"/><path d="M78.619,80.649c2.857,1.245 5.407,2.527 5.432,2.54l0.093,0.047l1.136,-0c2.474,-0 8.846,-0.159 13.62,-1.656c2.06,-0.671 4.071,-1.485 6.017,-2.437c2.179,-1.021 3.825,-1.781 5.521,-1.747c-0.168,-0.311 -0.339,-0.622 -0.51,-0.933c-1.724,0.109 -3.39,0.881 -5.403,1.824c-1.913,0.933 -3.889,1.731 -5.914,2.387c-5.407,1.746 -13.256,1.65 -14.237,1.634c-0.488,-0.243 -2.801,-1.385 -5.378,-2.515c-1.006,-0.459 -2.087,-0.729 -3.191,-0.797c-0.14,0.312 -0.28,0.623 -0.42,0.934c1.117,0.007 2.22,0.252 3.234,0.719Z" style="fill:#fff;fill-rule:nonzero;"/><path d="M78.52,83.786l1.951,0.782c0.026,0.121 0.091,0.23 0.184,0.311c0.187,-0.408 0.348,-0.772 0.479,-1.065l-2.269,-0.908c-1.32,-0.526 -3.112,-0.732 -4.466,-0.807l-0.411,0.944c1.326,0.04 3.218,0.217 4.532,0.743Z" style="fill:#fff;fill-rule:nonzero;"/><path d="M81.495,83.976l0.016,1.289c0.915,0.23 2.673,0.433 6.1,0.532c0.868,0.025 1.709,0.037 2.524,0.037c6.68,0 11.479,-0.771 12.292,-1.117c0.446,-0.191 0.912,-0.336 1.388,-0.433l-0,-1.245c-0.14,0.15 -0.246,0.277 -0.311,0.365c-0.493,0.108 -0.974,0.262 -1.438,0.46c-0.75,0.312 -6.515,1.245 -14.417,1.006c-3.617,-0.103 -5.183,-0.327 -5.855,-0.486l0.289,-0.168l-0.588,-0.24Z" style="fill:#fff;fill-rule:nonzero;"/><path d="M113.408,82.918l-0.467,-0.899c-2.41,0.272 -4.693,1.225 -6.58,2.748l0.538,0.797c1.853,-1.519 4.122,-2.441 6.509,-2.646Z" style="fill:#fff;fill-rule:nonzero;"/><path d="M111.926,80.12l-0.517,-0.934c-2.953,0.044 -5.353,1.737 -6.738,3.001l0.523,0.803c1.332,-1.245 3.791,-3.023 6.732,-2.87Z" style="fill:#fff;fill-rule:nonzero;"/><path d="M80.443,77.969c0.981,0.501 1.687,0.893 2.254,1.208c1.179,0.657 1.774,0.986 2.876,1.158c0.155,0.018 0.312,0.027 0.47,0.025c2.589,-0 11.998,-1.41 15.251,-3.088c2.373,-1.253 4.897,-2.194 7.51,-2.801l-0.479,-0.85c-2.596,0.623 -5.105,1.564 -7.47,2.801c-3.278,1.697 -13.67,3.197 -15.146,2.97c-0.933,-0.144 -1.409,-0.408 -2.561,-1.049c-0.573,-0.312 -1.286,-0.716 -2.285,-1.227c-1.155,-0.62 -2.427,-0.992 -3.735,-1.092l-0.411,0.934c1.306,0.032 2.584,0.379 3.726,1.011Z" style="fill:#fff;fill-rule:nonzero;"/></g><path d="M88.175,66.235c-0,-0 -5.836,3.035 -7.159,3.424c-1.323,0.389 -2.646,2.801 -2.879,3.89c-0.234,1.09 -4.28,9.494 -5.369,12.373c-1.09,2.879 -1.946,4.124 -1.012,5.213c0.934,1.089 3.657,2.49 5.136,0.778c1.478,-1.712 4.591,-8.87 4.591,-8.87l0.078,6.302c-0,0 3.423,1.401 9.726,1.479c6.303,0.078 12.528,-1.556 12.528,-1.556l-0,-8.404l4.824,7.392c1.098,1.012 2.721,1.231 4.047,0.545c2.334,-1.168 2.256,-2.646 1.167,-4.98c-1.09,-2.335 -6.225,-11.517 -7.781,-14.084c-1.557,-2.568 -4.825,-3.269 -6.225,-3.502c-1.401,-0.233 -4.125,-0.545 -4.125,-0.545l-7.547,0.545Z" style="fill:none;fill-rule:nonzero;stroke:#263238;stroke-width:0.31px;"/><path d="M91.287,67.558c2.234,2.425 4.866,4.451 7.781,5.991c4.591,2.335 9.727,2.49 13.773,0.312c4.047,-2.179 6.147,-2.879 6.147,-2.879l-1.711,-4.358c-2.408,1.579 -5.106,2.664 -7.937,3.19c-4.825,0.934 -9.649,0.234 -11.361,-0.778c-1.712,-1.011 -3.424,-1.945 -3.424,-1.945l-3.268,0.467Z" style="fill:#3ac3bd;fill-rule:nonzero;stroke:#263238;stroke-width:0.31px;"/><path d="M92.376,66.857c0.312,0.156 6.537,4.28 11.206,4.202c4.668,-0.077 6.536,-2.178 10.582,-4.902c2.553,-1.675 5.407,-2.838 8.404,-3.424l-0.467,-4.279c-0,-0 -6.381,-0.545 -11.205,2.334c-4.824,2.879 -8.326,5.914 -10.427,6.225c-1.346,0.156 -2.708,-0.116 -3.891,-0.778l-4.202,0.622Z" style="fill:#3ac3bd;fill-rule:nonzero;stroke:#263238;stroke-width:0.31px;"/><path d="M92.433,68.725l2.72,0c-0,0 1.69,-0.956 2.057,-1.177c0.367,-0.221 0.884,-0.516 0.884,-0.516l0.274,-0.654c0,0 -3.511,1.024 -4.687,1.024c-0.674,-0.007 -1.344,0.091 -1.986,0.293l0.738,1.03Z" style="fill:#263238;fill-rule:nonzero;stroke:#263238;stroke-width:0.31px;"/><path d="M103.504,56.533c-0.467,-0.7 0.778,-1.4 0.622,-2.879c-0.155,-1.478 -2.179,-1.556 -2.334,-2.723c-0.156,-1.167 -0.311,-4.046 -2.101,-6.536c-3.194,-4.445 -10.629,-4.482 -13.851,-0c-1.789,2.49 -1.945,5.369 -2.101,6.536c-0.155,1.167 -2.178,1.245 -2.334,2.723c-0.156,1.479 1.089,2.179 0.622,2.879c-0.466,0.701 -2.49,1.712 -2.49,3.424c-0.027,0.946 0.187,1.884 0.623,2.724l25.211,-0c0.436,-0.84 0.65,-1.778 0.623,-2.724c-0,-1.712 -2.023,-2.723 -2.49,-3.424Z" style="fill:#263238;fill-rule:nonzero;stroke:#263238;stroke-width:0.31px;"/><path d="M86.852,55.21c-0,0 -1.401,-1.867 -1.712,0.078c-0.311,1.946 2.101,2.724 2.101,2.724l-0.389,-2.802Z" style="fill:#fff;fill-rule:nonzero;stroke:#263238;stroke-width:0.31px;"/><path d="M98.651,55.21c0,0 1.401,-1.867 1.712,0.078c0.311,1.946 -2.101,2.724 -2.101,2.724l0.389,-2.802Z" style="fill:#fff;fill-rule:nonzero;stroke:#263238;stroke-width:0.31px;"/><path d="M88.33,58.532l1.09,5.446l7.003,0l1.167,-4.98l-9.26,-0.466Z" style="fill:#fff;fill-rule:nonzero;stroke:#263238;stroke-width:0.31px;"/><path d="M90.276,62.5c-0,-0 -1.868,-0.389 -2.024,0.078c-0.155,0.467 -0.466,4.435 -0.077,4.746c0.389,0.312 2.334,0.856 4.902,0.701c2.568,-0.156 5.369,-0.701 5.291,-1.634c-0.078,-0.934 -0.467,-2.957 -0.467,-3.58c0,-0.622 -7.625,-0.311 -7.625,-0.311Z" style="fill:#3ac3bd;fill-rule:nonzero;stroke:#263238;stroke-width:0.31px;"/><path d="M90.276,62.5c-0.299,-0.059 -0.6,-0.103 -0.903,-0.131c1.338,1.426 3.084,2.388 4.638,2.086c1.005,-0.193 1.942,-0.956 2.711,-1.955c-2.142,-0.174 -6.446,-0 -6.446,-0Z" style="fill:#263238;fill-rule:nonzero;stroke:#263238;stroke-width:0.31px;"/><path d="M97.668,50.542c-0.67,-0.334 -1.071,-1.044 -1.012,-1.79c-0.208,0.213 -0.482,0.35 -0.778,0.389c-0.622,0.156 -1.401,-0.156 -2.101,-0.156c-0.7,0 -1.089,1.09 -1.478,2.413c-0.389,1.322 -2.879,0.389 -4.28,0.467c-0.676,0.046 -1.278,0.45 -1.578,1.058c0.23,2.076 0.622,4.619 1.189,6.022c1.089,2.646 3.968,5.214 6.381,4.747c2.412,-0.467 4.435,-4.202 4.668,-6.614c0.112,-1.149 0.221,-2.611 0.312,-4.084c-0.159,-0.765 -0.52,-2.01 -1.323,-2.452Z" style="fill:#fff;fill-rule:nonzero;stroke:#263238;stroke-width:0.31px;"/><ellipse cx="91.054" cy="55.677" rx="0.467" ry="0.934" style="fill:#263238;"/><ellipse cx="94.789" cy="55.677" rx="0.467" ry="0.934" style="fill:#263238;"/><path d="M91.91,58.868c-0,-0 0.622,1.011 1.478,0.778c0.544,-0.181 0.993,-0.574 1.245,-1.09" style="fill:none;fill-rule:nonzero;stroke:#263238;stroke-width:0.31px;"/><path d="M89.276,53.872c0.51,-0.893 1.645,-1.234 2.562,-0.769" style="fill:none;fill-rule:nonzero;stroke:#263238;stroke-width:0.31px;"/><path d="M94.166,52.798c0,0 1.634,-0.389 2.335,1.167" style="fill:none;fill-rule:nonzero;stroke:#263238;stroke-width:0.31px;"/><path d="M91.987,60.657c0,0 1.012,0.934 2.49,0" style="fill:none;fill-rule:nonzero;stroke:#263238;stroke-width:0.31px;"/><path d="M98.343,83.724l-3.492,0.311c-0.424,0.036 -0.803,-0.282 -0.84,-0.706l-0.888,-8.945c-0.037,-0.424 0.28,-0.803 0.704,-0.841l3.492,-0.311c0.424,-0.038 0.803,0.28 0.841,0.703l0.89,8.946c0.037,0.425 -0.282,0.806 -0.707,0.843Z" style="fill:#263238;fill-rule:nonzero;stroke:#263238;stroke-width:0.31px;"/><path d="M111.568,83.942c0,0 -8.064,-0.663 -9.107,-1.292c-1.043,-0.628 -2.369,-1.671 -3.025,-3.206c-0.657,-1.534 -1.849,-1.316 -3.113,-1.338c-1.264,-0.022 -3.091,0.623 -2.801,1.027c0.289,0.405 1.245,0.022 2.104,0c0.859,-0.022 1.939,0.156 2.225,0.489c0.179,0.211 0.344,0.432 0.495,0.663c0.152,0.231 -2.178,-0 -3.24,0.526c-1.061,0.526 -1.656,1.195 -1.705,1.814c-0.05,0.62 0.709,-0.049 1.123,-0.329c0.51,-0.31 1.063,-0.543 1.64,-0.691c0.349,-0.07 0.706,-0.081 1.059,-0.035l0.775,0.172c-0.599,0.176 -1.21,0.31 -1.827,0.401c-1.267,0.212 -2.948,1.718 -2.655,1.976c0.292,0.259 1.789,-0.691 2.371,-0.865c0.427,-0.125 0.865,-0.208 1.308,-0.249c0.286,-0.024 0.573,-0.024 0.859,0c0.286,0.024 -1.952,1.015 -2.696,1.504c-0.744,0.488 -0.13,0.691 0.676,0.364c0.806,-0.327 2.244,-0.76 2.244,-0.76c0.566,0.317 1.185,0.528 1.827,0.623c0.492,0.041 0.985,0.054 1.478,0.04c0.493,-0.014 5.114,2.459 7.421,3.891c2.306,1.432 4.357,1.201 5.331,-0.283c0.974,-1.485 0.71,-3.066 -0.243,-3.844c-0.952,-0.778 -2.524,-0.598 -2.524,-0.598Z" style="fill:#fff;fill-rule:nonzero;stroke:#263238;stroke-width:0.31px;"/><path d="M83.154,89.579l-4.304,-0.094c-0,0 -4.585,8.432 -5.239,10.396c-0.653,1.964 2.163,3.835 3.368,4.118c1.204,0.283 4.669,0.28 5.332,-0.75c0.663,-1.03 1.777,-10.2 1.867,-11.977c0.09,-1.777 -1.024,-1.693 -1.024,-1.693Z" style="fill:#737373;fill-rule:nonzero;stroke:#263238;stroke-width:0.31px;"/><path d="M83.154,89.579l-1.674,-0.038c-0.623,1.631 -4.741,12.404 -4.118,14.097c0.06,0.155 0.134,0.304 0.221,0.445c1.497,0.168 4.161,0.047 4.728,-0.843c0.656,-1.031 1.777,-10.2 1.867,-11.977c0.09,-1.778 -1.024,-1.684 -1.024,-1.684Z" style="fill:#454545;fill-rule:nonzero;stroke:#263238;stroke-width:0.31px;"/><path d="M82.124,69.192c-0,-0 1.31,6.642 1.59,9.916c0.281,3.275 -1.497,13.288 -1.867,14.411c-0.371,1.124 0.187,2.338 0.653,2.338c0.467,-0 1.124,-0.934 1.311,-2.338c0.187,-1.403 1.301,-10.476 1.301,-12.82c-0,-2.344 -1.591,-12.161 -1.591,-12.161l-1.397,0.654Z" style="fill:#737373;fill-rule:nonzero;stroke:#263238;stroke-width:0.31px;"/><path d="M82.818,86.494c-0.675,0.574 -1.282,1.223 -1.812,1.933c-0.846,1.149 -4.59,6.042 -5.982,6.343c-1.391,0.302 -4.23,-0.482 -4.591,-2.054c-0.361,-1.572 0,-3.262 2.235,-4.23c2.235,-0.968 6.767,-2.838 6.767,-2.838c-0,-0 2.599,-2.839 2.841,-3.203c0.243,-0.364 1.028,-1.556 1.267,-1.752c0.24,-0.196 2.721,-0.844 3.144,-0.604c0.389,0.249 0.619,0.686 0.604,1.148c-0.059,0.312 -0.424,0.483 -0.424,0.847c0,0.364 0.365,2.779 -0.059,3.262c-0.423,0.482 -3.99,1.148 -3.99,1.148Z" style="fill:#fff;fill-rule:nonzero;stroke:#263238;stroke-width:0.31px;"/></g><path d="M70.312,27.843l0,28.757c-0.002,2.46 -2.027,4.484 -4.487,4.484c-0.002,0 -0.004,0 -0.006,-0l-61.326,0c-0.002,0 -0.005,0 -0.007,0c-2.46,0 -4.485,-2.024 -4.486,-4.484l-0,-28.757c0.001,-2.461 2.026,-4.485 4.487,-4.485c0.002,-0 0.004,-0 0.006,0l61.326,0c0.002,-0 0.004,-0 0.006,-0c2.461,-0 4.486,2.024 4.487,4.485Z" style="fill:#d1e8e6;fill-rule:nonzero;"/><path d="M70.312,27.843l0,2.489l-70.312,0l0,-2.489c0.001,-2.461 2.026,-4.485 4.487,-4.485c0.002,-0 0.004,-0 0.006,0l61.326,0c0.002,-0 0.004,-0 0.006,-0c2.461,-0 4.486,2.024 4.487,4.485Z" style="fill:#3ac3bd;fill-rule:nonzero;"/><circle cx="3.963" cy="27.177" r="0.942" style="fill:#fff;"/><circle cx="7.733" cy="27.177" r="0.942" style="fill:#fff;"/><circle cx="11.504" cy="27.177" r="0.942" style="fill:#fff;"/><path d="M9.557,34.5l14.117,0c0.458,0 0.834,0.376 0.834,0.834l0,11.426c0,0.458 -0.376,0.834 -0.834,0.834l-14.117,-0c-0.458,0 -0.835,-0.377 -0.835,-0.835l0,-11.424c-0,-0 -0,-0.001 -0,-0.001c-0,-0.458 0.376,-0.834 0.834,-0.834c0,-0 0.001,-0 0.001,0Z" style="fill:#fff;fill-rule:nonzero;"/><path d="M60.589,53.721l-51.864,-0c-0.544,-0 -0.992,-0.448 -0.992,-0.992c0,-0.544 0.448,-0.992 0.992,-0.992l51.864,-0c0.544,0 0.992,0.448 0.992,0.992c-0,0.544 -0.448,0.992 -0.992,0.992Z" style="fill:#fff;fill-rule:nonzero;"/><path d="M60.589,46.228l-31.464,0c-0.544,-0 -0.992,-0.448 -0.992,-0.992c0,-0.544 0.448,-0.992 0.992,-0.992l31.464,0c0.544,0 0.992,0.448 0.992,0.992c-0,0.544 -0.448,0.992 -0.992,0.992Z" style="fill:#fff;fill-rule:nonzero;"/><path d="M48.612,39.188l-19.487,0c-0.544,0 -0.992,-0.448 -0.992,-0.992c-0,-0.544 0.448,-0.992 0.992,-0.992l19.487,0c0.544,0 0.992,0.448 0.992,0.992c0,0.544 -0.448,0.992 -0.992,0.992Z" style="fill:#fff;fill-rule:nonzero;"/><path d="M145.448,24.139c1.144,-1.322 2.356,-2.583 3.633,-3.778c2.486,-2.138 5.337,-5.918 14.456,-3.132c0.706,0.228 1.4,0.493 2.078,0.793c0.8,0.341 3.294,0.349 5.844,-1.675c4.052,-3.218 5.637,-5.645 11.189,-5.721c6.46,-0.088 7.476,7.965 12.5,10.026c3.2,1.312 11.625,2.616 13.368,3.2l-63.068,0.287Z" style="fill:#d1e8e6;fill-rule:nonzero;"/><path d="M95.607,48.2l-0.466,-1.335l-0.466,1.335c-0.463,1.197 -1.4,2.152 -2.589,2.636c1.189,0.484 2.126,1.439 2.589,2.636l0.466,1.335l0.466,-1.335c0.464,-1.198 1.403,-2.152 2.593,-2.635c-1.19,-0.484 -2.13,-1.439 -2.593,-2.637Z" style="fill:#fff;fill-rule:nonzero;"/><path d="M132.9,0l-29.19,0c-0.001,-0 -0.002,-0 -0.003,-0c-1.579,-0 -2.878,1.299 -2.879,2.878l-0,15.769c0.001,1.579 1.3,2.878 2.879,2.878c0.001,0 0.002,0 0.003,0l1.571,0l-0,7.215l7.215,-7.215l20.4,0c0.001,0 0.003,0 0.004,0c1.579,0 2.878,-1.299 2.879,-2.878l0,-15.769c-0.001,-1.579 -1.3,-2.878 -2.879,-2.878Z" style="fill:#c5e0e2;fill-rule:nonzero;"/><path d="M107.807,15.447l6.886,-0c0.528,-0 0.962,0.434 0.962,0.962c0,0.528 -0.434,0.962 -0.962,0.962l-6.886,-0c-0.528,-0 -0.962,-0.434 -0.962,-0.962c-0,-0.528 0.434,-0.962 0.962,-0.962Z" style="fill:#fff;fill-rule:nonzero;"/><path d="M107.807,10.63l12.693,0c0.528,0 0.962,0.434 0.962,0.962c0,0.528 -0.434,0.962 -0.962,0.962l-12.693,0c-0.528,0 -0.962,-0.434 -0.962,-0.962c-0,-0.528 0.434,-0.962 0.962,-0.962Z" style="fill:#fff;fill-rule:nonzero;"/><path d="M107.807,5.948l21.814,0c0.528,0 0.962,0.434 0.962,0.962c0,0.528 -0.434,0.962 -0.962,0.962l-21.814,0c-0.528,0 -0.962,-0.434 -0.962,-0.962c-0,-0.528 0.434,-0.962 0.962,-0.962Z" style="fill:#fff;fill-rule:nonzero;"/><defs><linearGradient id="_Linear2" x1="0" y1="0" x2="1" y2="0" gradientUnits="userSpaceOnUse" gradientTransform="matrix(194.743,0,0,194.743,11.085,94.946)"><stop offset="0" style="stop-color:#00bfc2;stop-opacity:1"/><stop offset="0.25" style="stop-color:#00bbc5;stop-opacity:1"/><stop offset="0.49" style="stop-color:#00afcf;stop-opacity:1"/><stop offset="0.73" style="stop-color:#009bdf;stop-opacity:1"/><stop offset="0.97" style="stop-color:#0080f5;stop-opacity:1"/><stop offset="1" style="stop-color:#007cf8;stop-opacity:1"/></linearGradient><linearGradient id="_Linear3" x1="0" y1="0" x2="1" y2="0" gradientUnits="userSpaceOnUse" gradientTransform="matrix(194.743,0,0,194.743,11.085,94.946)"><stop offset="0" style="stop-color:#00bfc2;stop-opacity:1"/><stop offset="0.25" style="stop-color:#00bbc5;stop-opacity:1"/><stop offset="0.49" style="stop-color:#00afcf;stop-opacity:1"/><stop offset="0.73" style="stop-color:#009bdf;stop-opacity:1"/><stop offset="0.97" style="stop-color:#0080f5;stop-opacity:1"/><stop offset="1" style="stop-color:#007cf8;stop-opacity:1"/></linearGradient><linearGradient id="_Linear5" x1="0" y1="0" x2="1" y2="0" gradientUnits="userSpaceOnUse" gradientTransform="matrix(44713.6,0,0,44713.6,1253.28,14202.5)"><stop offset="0" style="stop-color:#00bfc2;stop-opacity:1"/><stop offset="0.25" style="stop-color:#00bbc5;stop-opacity:1"/><stop offset="0.49" style="stop-color:#00afcf;stop-opacity:1"/><stop offset="0.73" style="stop-color:#009bdf;stop-opacity:1"/><stop offset="0.97" style="stop-color:#0080f5;stop-opacity:1"/><stop offset="1" style="stop-color:#007cf8;stop-opacity:1"/></linearGradient></defs></svg>